<mxfile host="localhost" agent="Mozilla/5.0 (X11; Linux x86_64) AppleWebKit/537.36 (KHTML, like Gecko) Chrome/131.0.0.0 Safari/537.36" version="26.0.6">
  <diagram name="Page-1" id="UCrfKqlV-auS8XowhDjq">
    <mxGraphModel dx="2139" dy="998" grid="0" gridSize="10" guides="1" tooltips="1" connect="1" arrows="1" fold="1" page="1" pageScale="1" pageWidth="1654" pageHeight="1169" math="0" shadow="0">
      <root>
        <mxCell id="0" />
        <mxCell id="1" parent="0" />
        <mxCell id="1OezPi1NgcVtdhWN8k0L-1" value="GitHub" style="shape=image;verticalLabelPosition=bottom;labelBackgroundColor=default;verticalAlign=top;aspect=fixed;imageAspect=0;image=https://upload.wikimedia.org/wikipedia/commons/c/c2/GitHub_Invertocat_Logo.svg;" parent="1" vertex="1">
          <mxGeometry x="295" y="452" width="67" height="67" as="geometry" />
        </mxCell>
        <mxCell id="1OezPi1NgcVtdhWN8k0L-3" value="&lt;span style=&quot;font-family: &amp;quot;Courier New&amp;quot;;&quot;&gt;Developer&lt;/span&gt;" style="shape=umlActor;verticalLabelPosition=bottom;verticalAlign=top;html=1;outlineConnect=0;fillColor=#00CC00;strokeColor=#000000;" parent="1" vertex="1">
          <mxGeometry x="78" y="484" width="30" height="60" as="geometry" />
        </mxCell>
        <mxCell id="1OezPi1NgcVtdhWN8k0L-15" value="" style="shape=image;verticalLabelPosition=bottom;labelBackgroundColor=default;verticalAlign=top;aspect=fixed;imageAspect=0;image=https://upload.wikimedia.org/wikipedia/commons/a/af/Data_Version_Control._Official_Logo_by_Iterative.ai.png;" parent="1" vertex="1">
          <mxGeometry x="135.99999999999994" y="300" width="90" height="90" as="geometry" />
        </mxCell>
        <mxCell id="XdvyWvva6dk7Buqy7RHI-7" style="edgeStyle=orthogonalEdgeStyle;rounded=0;orthogonalLoop=1;jettySize=auto;html=1;entryX=0.5;entryY=1;entryDx=0;entryDy=0;" parent="1" source="1OezPi1NgcVtdhWN8k0L-23" target="XdvyWvva6dk7Buqy7RHI-6" edge="1">
          <mxGeometry relative="1" as="geometry" />
        </mxCell>
        <mxCell id="1OezPi1NgcVtdhWN8k0L-23" value="" style="shape=image;verticalLabelPosition=bottom;labelBackgroundColor=default;verticalAlign=top;aspect=fixed;imageAspect=0;image=https://cdn.invicti.com/statics/img/drive/h2jfrvzrbyh1yff2n3wfu2hkqqps6x_uvqo.png;clipPath=inset(0.33% 20% 3.59% 17.33%);" parent="1" vertex="1">
          <mxGeometry x="417.13" y="544" width="134.33" height="107.73" as="geometry" />
        </mxCell>
        <mxCell id="cZ3MUQ-4q9K2Py6t4Zb5-14" style="edgeStyle=orthogonalEdgeStyle;rounded=0;orthogonalLoop=1;jettySize=auto;html=1;entryX=0;entryY=0.5;entryDx=0;entryDy=0;exitX=0.286;exitY=0.969;exitDx=0;exitDy=0;exitPerimeter=0;" edge="1" parent="1" source="1OezPi1NgcVtdhWN8k0L-27" target="1OezPi1NgcVtdhWN8k0L-45">
          <mxGeometry relative="1" as="geometry" />
        </mxCell>
        <mxCell id="1OezPi1NgcVtdhWN8k0L-27" value="" style="shape=image;verticalLabelPosition=bottom;labelBackgroundColor=default;verticalAlign=top;aspect=fixed;imageAspect=0;image=https://miro.medium.com/v2/resize:fit:992/0*0bv49xUjF6q-_H7K.png;clipPath=inset(11.83% 11% 11.83% 16%);" parent="1" vertex="1">
          <mxGeometry x="751" y="206" width="214.62" height="98" as="geometry" />
        </mxCell>
        <mxCell id="BaASAAcb1w998YvZR67S-21" style="edgeStyle=orthogonalEdgeStyle;rounded=0;orthogonalLoop=1;jettySize=auto;html=1;entryX=0.5;entryY=1;entryDx=0;entryDy=0;" parent="1" source="1OezPi1NgcVtdhWN8k0L-34" target="1OezPi1NgcVtdhWN8k0L-50" edge="1">
          <mxGeometry relative="1" as="geometry" />
        </mxCell>
        <mxCell id="1OezPi1NgcVtdhWN8k0L-34" value="" style="shape=image;verticalLabelPosition=bottom;labelBackgroundColor=default;verticalAlign=top;aspect=fixed;imageAspect=0;image=https://storage.googleapis.com/gweb-cloudblog-publish/images/artifact_reg.max-2600x2600.jpg;clipPath=inset(32.4% 27% 33.2% 27.67%);" parent="1" vertex="1">
          <mxGeometry x="651" y="797.96" width="206" height="65.13" as="geometry" />
        </mxCell>
        <mxCell id="8PrslKJGBhRI_ENk29VD-28" value="model checkpoints &lt;br&gt;&amp;amp; metrics" style="edgeStyle=orthogonalEdgeStyle;rounded=0;orthogonalLoop=1;jettySize=auto;html=1;fontSize=12;entryX=-0.007;entryY=0.569;entryDx=0;entryDy=0;entryPerimeter=0;" parent="1" target="pw7c0dyJwH6RE3UTUSyw-1" edge="1">
          <mxGeometry x="0.01" y="20" relative="1" as="geometry">
            <Array as="points">
              <mxPoint x="1105" y="384" />
              <mxPoint x="1152" y="384" />
            </Array>
            <mxPoint x="1039.92" y="383.6111111111111" as="sourcePoint" />
            <mxPoint x="1167.0000000000005" y="383.6111111111111" as="targetPoint" />
            <mxPoint as="offset" />
          </mxGeometry>
        </mxCell>
        <mxCell id="1OezPi1NgcVtdhWN8k0L-45" value="ai custom-jobs create" style="shape=image;verticalLabelPosition=bottom;labelBackgroundColor=default;verticalAlign=top;aspect=fixed;imageAspect=0;image=https://miro.medium.com/v2/resize:fit:578/1*r-iod_ZxZQLy_dFoay52cA.png;clipPath=inset(2.5% 9.67% 2.86% 26.33%);" parent="1" vertex="1">
          <mxGeometry x="965.62" y="332.32000000000005" width="74.3" height="102.55" as="geometry" />
        </mxCell>
        <mxCell id="1OezPi1NgcVtdhWN8k0L-50" value="" style="shape=image;verticalLabelPosition=bottom;labelBackgroundColor=default;verticalAlign=top;aspect=fixed;imageAspect=0;image=https://blog.iron.io/wp-content/uploads/2019/04/Google-Cloud-Run.jpg;clipPath=inset(11.54% 34.33% 21.01% 33.33%);" parent="1" vertex="1">
          <mxGeometry x="1201" y="597.9999999999999" width="79.46" height="93.39" as="geometry" />
        </mxCell>
        <mxCell id="BaASAAcb1w998YvZR67S-9" style="edgeStyle=orthogonalEdgeStyle;rounded=0;orthogonalLoop=1;jettySize=auto;html=1;entryX=0.25;entryY=0;entryDx=0;entryDy=0;exitX=0.078;exitY=0.979;exitDx=0;exitDy=0;exitPerimeter=0;" parent="1" source="pw7c0dyJwH6RE3UTUSyw-1" target="1OezPi1NgcVtdhWN8k0L-50" edge="1">
          <mxGeometry relative="1" as="geometry">
            <Array as="points">
              <mxPoint x="1181" y="513" />
              <mxPoint x="1221" y="513" />
            </Array>
          </mxGeometry>
        </mxCell>
        <mxCell id="BaASAAcb1w998YvZR67S-11" style="edgeStyle=orthogonalEdgeStyle;rounded=0;orthogonalLoop=1;jettySize=auto;html=1;entryX=0.75;entryY=0;entryDx=0;entryDy=0;" parent="1" source="pw7c0dyJwH6RE3UTUSyw-1" target="1OezPi1NgcVtdhWN8k0L-50" edge="1">
          <mxGeometry relative="1" as="geometry">
            <Array as="points">
              <mxPoint x="1301" y="513" />
              <mxPoint x="1261" y="513" />
            </Array>
          </mxGeometry>
        </mxCell>
        <mxCell id="pw7c0dyJwH6RE3UTUSyw-1" value="experiment logging&#xa;and model evaluation" style="shape=image;verticalLabelPosition=bottom;labelBackgroundColor=default;verticalAlign=top;aspect=fixed;imageAspect=0;image=data:image/png,iVBORw0KGgoAAAANSUhEUgAAAaAAAAB5CAMAAABIrgU4AAAAwFBMVEX///8AAAD/zDOenp5XV1fIyMj8/Pz/yy//yyr4+Pj/yiPf39//yiXy8vLv7+/q6uqxsbFiYmIeHh7//vqEhITZ2dnT09Pm5uaYmJjAwMB9fX3Pz8+Ojo5BQUH/yRWlpaVPT08QEBAkJCR1dXVeXl5qamo5OTlKSkoqKioYGBj/+eiwsLAoKCj/5qb/0EY9PT3/89f/6rT/01X/56n/8c7/7sP/+OT/233/4ZH/1Fr/4pb/2XH/78j/1mX/3oX/56ibQ83dAAASD0lEQVR4nO1deV/iPhMHFClFOeRGuVS8ZdEVWa/9vf939VCSJpMmmUxp0X0+9vvXLo3TNpM5M5nmchkyZMiQIUOGDBkyZMiQIUOGDBkyZPgWvLytVm+LFAku0ib4s7Hyfc879D+bKRN8T43gz8aTX9jgcJ7OhDYFwULGoRTwh0/nekJXaRN8T4Xgz8atVxAYvaRBcCQJ+mkQ/OFY+mA+f6dN8CEFgj8cD4dyPr2//yLBH47fYMEfvqVA8D9I8E8KBH84nqHJWKZN8DEFgl+DcrfSbrcr3aPvfpAomvOSnM9U3GIoQf8ffna1Phse5xluhud3/xaTlmLFj1w+wmLljbz359QIjvdw9LpiaLHnGNsXQw/sQ3tFw1P0r/JR7J843lFH1fF8G4zr/WLlqByT9NtoI0Olkctg/BkFLrk3cln+ByrBG21mIpDzeeoaei6GlpFRA+0ZikPjwKu4LGq7HlDivnF6EktIP+b+GgWXAfoTSobvCmifaQRz165XkbPkZJCceoxBregjnFuHnrqeXkXF9YARXNTjUH/5+HCmNhfS+I+cU78mSIhRv51BNfkEs36lnDuq9PfFL+e5OIjLoDV66dq6d5lyKL2mQ/LY9Qo7VnE1+XtN/NgZmgc7EEPFSYy3nTkDoLdX8NLxznqNy6n96e8nA+AknF8h7DwezoCTMJiYh04vG314+yNhA1XfYRb+HEcLVVv718jLWHBd2W7mDLgtAByml2Ortot3rdkZeOirxmBc7HT1oQfdk/7eeUNy6mw9dK9/UjnQhpbbxfHg4hefsePJ7LSvUxTarB25cBFeiKuDauvbtmYTyIKTikCnWO81omq976ZKwy4kSAJqsOh02Qf3XCO5YTB7ZHXrHB2FSyCmoxACMiHK43J3rLr1d9vdQwe0QU9pEQ3RAU/snBUhQVeukYwHN+aLIZWZfumOX5rGDVk2OLgEb2OiUFFkLC1DBFI4o9QzOGWg4yaOscBfMuhBBTMbB3JAgEzKdMqvmQJbJ5wMWofokENOlUHEKszh+J8pUQRoON9JoEdffMwLMNv6cBVPTBdbVGk24pf7ZYpgyNlWcmrAimcSdlFrUAcP7LCbQMM7dBxXnEZTL1xsoyHrE6XZDJicsE1+H4xxLoPbxcdyQXDMPt4Lo9InIeX9sliSCEpUwfNq4b4CJeDA3Swma9fGa8LqGbVYqEYt5ssBCoOkM79GFSW3fPWCzIz3RLAszSZBeuIQFABycYwOVEJW3AXaR9ansALGSOQovEp8ehXQTbMyCKYeMHf09nXE/efSaJ5GKdvtEyBIlyJgWcxzFgIqeFzHVRERkXw2m+hEDIJOmt2+yKRSfmqntSiBopFSCjt2zwpB74P6d1BzYRF8JOdVQ4b2Mf2BMyiZBNEYBM2u1ZG79UH4GXDItdnjwkuE4IgqlAdg78HsFzNASXPwkrli++aLgkFGlyS0UNvZIBqDqpTXePUKCkpJaw3npQhBcjUkSPxfI35nZA+pgVCcbkbsmS8KRhuvh5EqtlTsgAzS01AhRLCVt2fOH/1CBAkLpRIQhH6n3QhpWX27H9dlAzrmq8JJMM5NaB8s3HUAWBeEQdDZs4i5tt4DEdrqkUI86QSpIlQDb2WfF7bwgRjZdRyTApv9PQkJnGHP4kpVmEFkEHC0Lc4OLAIVKz6JFXrRBKhQIFsh4JzaFlQux7Iod3KoXQnto9elKBrENTRQE+KjG+/sZNBAjhqaRywN85moulTXcDEI7oHXso1h03qRIwwtY3metQUQgZe+LyfM95Z7AdCBpjHIIkGm+UxUa/hgIkithoTmxZakZEt7DD0K2yRyHWa1UTL7p/nh4QQ7s+UWEBkEXsKiMr6GQWS3AzDIlp1iUWoXehQ2HcZ4eWm9mwxDoiIk/IftLBCZQRdymCW7ZVRxSdw4o4r7j/rXQOQt88qEbK2wj6Zi6I3FJ59gb55TShfUMFFk6WLV3UCAmb9BGAR2JSxq4OVLnAQyQehomxcv8+ECHw94QGZ1yO0IUt4mNYyyHISm3XI7NUdl0IHzdU1udqGEeMXNx9Xn6jc2wOS3k0PfI/DE5iXF9lIDtwsw01x8wzUYkicGySXAiy5OlgTAoGM7g07kKHPCPacebeAWAykbXRZ8z/N8D0lS60bIj2HTwIsZw0e2uDeRDVBQx0Ydx+TD7q+rtxPrQcza9vJDZRBIy1uVqb7ikXKQxzBLPULMVCGa6omTOwIbwZemF+uBqQM6zqjG2CU0EwALIbiOEZ5DolIOGoPkIFOszLGIWCGkZhREtUjs+RwlSE5n59SMtkkrMx+OmXSg40yOALckljwPB/BzmRkKE3TTyN91ihaY6ZIYBFYj5o0sR2DJl7DjCH/lyTkPKUpY+grBeOUlYNfOUG7AJv2evzJgpoHS2HoFANagNtZ+RZjknEWVprIHBWGeflBgYWVQV47BM7LPc2E28HJ3qA1LVIJx5CcnazXyxjQ1W9+h8QbL3yAnE8Krq6UbLSGT+oLWD6gkZRCo/EG04AbNB28U7FCP/AfMXNArS5u/S4yg9xZ37wJOmH6VreNQraA6jsdJzkgGrAixng2OX/oMArEsIRxeLH8/PDpymmpl6W1ygkaAd9dMP9NwwmeTldUGL5VzGi/GCBA9HXRt9DjMZ4i2Z1BHFo9fY3vCsfApGVSap0U0CmBetUIKpuGk1gJ+nLZjzCTjl/uGICWxxtnYPOM9pRRU4NKiQgGDzgwEu0A7T9KqiQu8bMEgP43T4EYA10bLwN9vfpYRLNBxWtDCljxev8Wg7ADa8w4H1eJ4AHIzv1p3bevcYgw66kNmp1aYHeAp3B73UmrqYwDctYvoJ+6Dyx9AqiSauuNkKIW7feW4gcseMNW57xgGGVQ92qBaq9Xa/d75FNxs2kpPfALccvfMj1FMFRtA20eml2m4C/AL0HGRTTe+meo2QcWIA33m+BMm4S7fA9Yx32wwzWu4HKd+mLz5Vlo7Z6W/uzxbD9yqSDJsqM0N0HERg8VYN3HdrKubFmMGI0rYdeqqoZHVbtNL7+SWgsXzYretD0AGUTVC3FYoKxysfJUK+9FV8RFu4d5AJ22C/gmbXddLuBjUKDpCn38Y5al8D8UBZRpOTX4Cb0hZkDzJhud5ymEosl89gHYIOzvMCDvzqG4Jupm0+m4F/E8CONqKi8M8KDUBBOJaRVp4Sg29TztcCYF2hL4J5vudEhifozBog8sx2Um4fXlxhJ4xsT1BUBAL1zJPXanuU1nGe4o+ZIE/mucR9ou57YqzbS9lv3YzPgBg0PQ0RGsw29f6DgxIh7de3gu+X/hMrwnshmBpO4KwIBb8zOxFVPsDPw6wjssDFmOIeCsMq2CSyeqlMTa6oyvoZisXDo669Uh2aebOJDxuzmUVPGybJxaSEQTRIFheLEqNmn2zjkOL5jcQ/JGsgKXstgCKqU6nhnOlemp7iiS5GC53cFI6egoIbnNYAmw0SovDVZDmm8qxE/kjKz6x1AIGEPoNmnvl3JFZ82xUp9OHoyRLlfD4Ene5ZbVu4sp5hnkygmCfcyJ+ZGtXP9kF/DgpMNeOhSlcAjXJqph2k+Jhq8R59p+2H6Sc0sA6N8E91a1WPEZwm/NG4MD3VMTaQ23BMwAdJ8St63ppEfZE5OQeTNmNQUEyGSPsDlAYJN3IAEhSKk5LzObi43HpilQfk/bYNFQbVIwTmlPycaIMlBkYe55HrN3oniDY5DSmFDa/o2UoHCQGqbezazl6D9jbv0GmJ8j1oB70W9KmsoYsNT8NbHhZUOwYcoTlbyY28jLm0aw9rCLRCfRda12AxiDldtbCK2XBo3XuDyORzR5hgpG4LTOIGkOpYJ6dqVIN6LjQI2P/s7ZQEAJqsPaKKxcVsCt8IgGIDFLskDU9cQsWPHZS5B1WvPlIS3mlsflWoRBwtJkR4srAtHiBxeKJbs4yWwQoFYspVae4cmqky7Y7SBs4VAbBDWT7aduV4BBWrPOuViRiHKIRRAAWVh/8YK5D1/w4HgjaiEsWGFkIuxeoabnNFVpTEDKD4Ikbq9fZnHPV5RXstuUxWsWNBKEkghhAeRzTateGBR1C03FDZLBSTWO+rpQfgEljfgqt8RGZQTAHeG/l/e3TyCuVvNHcPp2mmmu7M3f76iSIAzx28N8KlCZk8IYpXIXZVJFMulkCWbVfowx6mKTStglolaUB4HJA0nLPq9enFRayLPVjEKj9/1i9vqIEcQDXLHA/T5EVrwwOJsNRNC+Viq04Xj2mHIpMLYYAxWAQTMwlqQZfeRqDvB1+egY42oEksGVmO3APtvgCGTvHxAOaLOt8AIJ54RtuLBDeo0aCeD4op7Yl2+7IP4PpmMruKkegar4QS9p62HSqvCL7l9XiyhyYfcHCc0rcd6ygjxAFnUEwiU5I8lmhC9CaQ+nuICmQtQLH5dCps2YGFB3HHQxrnkeORTSK0m5vQ2tj9pH0qwo6g5TWXVTyBnw1g4D72eaL3p5iASqpyP/SnueRY7Esv9oEusMXOrn9Iqjr/SIGfbGKg8/d4/rObp8PZKx6zu3VxDpWEkaTako4lK9s1gjWdUYF8RBxLj0GfbGTELbZ2UwLlyYkiSx13L2Tm9T5MNT60ouo6QyCNojqgphgOL2dyufUrJBzfsPqDjALCt6Su632kII64WWtfCBGc146g6C1o+TJbTAEqq4DDsnQj04PWuOmLXbSUHzGq1OVZJzpI7aCyanf9kgSB+mpnh1/PlD7/gK6KzyIDEZK28BJH4dTFumrFad3Mq0dWQDYwNned2Yd98/nryu0IiGSLPVS+ryGFRfq9OBZfjW0RFPOMHR3zLlS6JMfxigGJTNI8RFsKndZCDJnpRJ+vj73CTl0+LTrb5+poYhD/A/O1NFIPQ/c8bmwD9PG5vO/6BwiMwiKvi2R8BecIsY6YjffwIbd7r/SHU/BqDoO011KDamrmdWeQnZCfnhaS8zIprclylJVl/+KzPzLymf4TNrYlAKonY2b3RCqjkMLzaABd/W4jwSs5ECIyiCoxy2dtd4ixh//+lnz+ffvx2e39DT/e/X9OXom2QlFKJxtWRQdh0b8in/o6jemKjlyOpPUNztSeWX2gl4OCxHQWx/ZsZgHvRJKfiEJLcVEO5MsCjvxg1EKL9EpP4h6h6QzlTli53nVzFqq7fQMwZa71BAvnmhsnuQoHnx852Co4xxioYZY+/YJLN7nNdBiFRKDlBptS5TVNLQjO0wcgH4Krif6zhAwFgTVAl7WFfKrHvyxRTrbEUefg9QGmPD1kxPFxtrO9UUb62ysUNLqUtiELknzOaABCK1DwXp0hZTw/MSG/Qb1Dz4G2VY/iEfI+Li/H9RRuX9pEzNjS8ykR+wTV5ZyAIeYEIGAIsA4Y/kEjUGQeFCtwyrtSq47VQYTCq9QBpXbvYjuvLC+n4lBXtIP2CeuLA0hFAXFeZKnGAmfP404ZxsezQan4/q4N5gpAnMdxLyRL3AGHzasdC2TWq106qewO363zHBU61banb1zvasMYtf+aQmSWou00zyIM9rAISMabP1HU0kB7oeN0zrYuC0X66ezK/1LnWccts9iD7Es48cubNAiJRskp4W0EdOJN1qbSBOEvdGS6yGXJMWtPnSbH+Lm1eTF+Wgjq8XCfQwfHDhK1NMnPIE6oQ3no4mFA1X3Qd8G2CO0cAhk87b4VHR+4ozv3rU4CPOMmw8Ff+QX/jhYtPBFHJTs2Ct3dYg7ZVwjEmNJu1RwDNWzD5pjsQHIcMRm0M0poZfFQjNCSCah+cRm3ndVjD4XWCaB/nUnM7ilIG418ynEDqtFsHdmnb2GdjSltm8YBux7HAadTQZ9YtP0vxEOYbk4ejOl5tt8NJr/SRryMkf73j2Qgb18nP5E5bpp1vOTsXH2+nrXOJCg6U723WgMWr1xsRunSc+Tko3D9nlgO7LdbqcKtAaDwTn5Axf19ehB3H3jcr0Fo5abq1bfPn3tHuTRr8HdFzQLacL9hhG22/AlDf2+B7XOSbFYPOm0Cdq0uxlbPNlRMyQD/vP9ILsZ7KhihTqxWmJmSBPNx895oTB/x7skKE1lvR12jMtgAuH7tdS2zBm+CcTG5hm+C7RPA2T4Pgg/O7WuSxnSxWPg73k+9oGHDN+K5uP75zv2gacMGTJkyJAhQ4YMGTJk+DfxP2sQN9/bRtwWAAAAAElFTkSuQmCC;" parent="1" vertex="1">
          <mxGeometry x="1153.23" y="353.6" width="175" height="51.75" as="geometry" />
        </mxCell>
        <mxCell id="pw7c0dyJwH6RE3UTUSyw-4" value="&lt;font face=&quot;Courier New&quot;&gt;&lt;br&gt;&lt;/font&gt;" style="text;html=1;strokeColor=none;fillColor=none;align=center;verticalAlign=middle;whiteSpace=wrap;rounded=0;" parent="1" vertex="1">
          <mxGeometry x="1133" y="310" width="235" height="42" as="geometry" />
        </mxCell>
        <mxCell id="3" value="&lt;font face=&quot;Courier New&quot;&gt;git push/pull&lt;br&gt;&lt;/font&gt;" style="text;html=1;strokeColor=none;fillColor=none;align=center;verticalAlign=middle;whiteSpace=wrap;rounded=0;" parent="1" vertex="1">
          <mxGeometry x="131" y="449.5" width="90" height="30" as="geometry" />
        </mxCell>
        <mxCell id="IAqXeEij122gmrDpqoux-10" style="edgeStyle=orthogonalEdgeStyle;rounded=0;orthogonalLoop=1;jettySize=auto;html=1;startArrow=classic;startFill=1;endArrow=none;endFill=0;" parent="1" source="IAqXeEij122gmrDpqoux-6" edge="1">
          <mxGeometry relative="1" as="geometry">
            <mxPoint x="544" y="601" as="targetPoint" />
          </mxGeometry>
        </mxCell>
        <mxCell id="IAqXeEij122gmrDpqoux-17" value="" style="endArrow=none;html=1;strokeWidth=1;rounded=0;entryX=0;entryY=0.5;entryDx=0;entryDy=0;startArrow=classic;startFill=1;endFill=0;" parent="1" target="1OezPi1NgcVtdhWN8k0L-1" edge="1">
          <mxGeometry width="50" height="50" relative="1" as="geometry">
            <mxPoint x="115" y="486" as="sourcePoint" />
            <mxPoint x="319" y="430" as="targetPoint" />
          </mxGeometry>
        </mxCell>
        <mxCell id="IAqXeEij122gmrDpqoux-28" value="" style="shape=image;imageAspect=0;aspect=fixed;verticalLabelPosition=bottom;verticalAlign=top;image=data:image/png,iVBORw0KGgoAAAANSUhEUgAAAhEAAAEVCAYAAABe57eZAAAABHNCSVQICAgIfAhkiAAAABl0RVh0U29mdHdhcmUAZ25vbWUtc2NyZWVuc2hvdO8Dvz4AAAAtdEVYdENyZWF0aW9uIFRpbWUAVHVlIDIxIEphbiAyMDI1IDA4OjI4OjM4IFBNIENFVI0LSxcAACAASURBVHic7L1ZjB1Zet/5O+dExN0yk5nJ5M6qIqtraXVtXd3qrl7UIwnaugXD8+CRYHnmYUaCHmwIGAhu+8EDyIKFMaDB2LJsSDMaS+MB9DSShVFLggCr21K3pG517TtZVaxisbhvud49Is4583Ai7pYLySxWkcz8fkTgXt68sd574/uf73yL8t57BEEQBEEQbhF9pw9AEARBEIR7ExERgiAIgiBsCxERgiAIgiBsCxERgiAIgiBsCxERgiAIgiBsCxERgiAIgiBsCxERgiAIgiBsCxERgiAIgiBsCxERgiAIgiBsCxERgiAIgiBsCxERgiAIgiBsCxERgiAIgiBsCxERgiAIgiBsCxERgiAIgiBsCxERgiAIgiBsCxERgiAIgiBsCxERgiAIgiBsi+hOH4AgCHczbuRRI+MOQRBGEREhCMIAN/Jc44pXcoYiIkGEhCAIJXI3EAQBGBcQgeL24DV4wiIIgjCC8t7LrUEQdjmOoUZQgB4VDd4N/6B0eBQEQUCmMwRBADweVaiDgYAYuCZ04ZTwIiAEQRhDpjMEYRfT7XYBMCiUt/isDzaneLEQDZ4cyLXaYMpDEITdjExnCMIux+YWE5nwn+Yq6dWr0M9IpmehMQOVGFdR5CYiUlpGHoIgDJDpDEHY5TjvMBhYWuTMX36L9PIVfN9Rm5nj8KOPEj10DD0/TRKV8mFERkwOQWS6QxB2FSIiBGE3MRo9WRAbDT7n7Csv0j97jnnrqegKrtvmzMvPc1TnVKcegaoGKuu3JQjCrkU8k4KwW/AjixuJm3QpvTdepnXydQ4mFWajhCkUNWeZwnHp/ROwehnyJjARFzGZ+impoIKwqxARIQi7BcXAA+EUaAf0+rC4zOm/+x5HalUS6zAetHMk1jGlodLtcvaVl2GtCS4bJGqIWBAEQUSEIOwinAKrwSuCCFhdY/G5l5jqeVyrN3gPCpSHSupJ1vrYM1ew756DThesB1dWs0TiIARhFyMiQhB2CY6hvTc4yFP6J9+iffossyYmzoNrwTMUGSq11K3moK5z7tlXYHER8i74FMiDO2PEwyEIwu5CRIQg7CIUofwD3sPpUzRPn2avd1T7loqP0D54InxRH8IoRU0Zkk7GrFOc/853oNcCl4JL8WTkWCwe7xFBIQi7DBERgrBLGPzYcwu9Hotvv03UapLYnMg5IlSoVslw2kMZjfJgHFRzR754jc6LL4DNIDKDFl0eFaZBBEHYVYiIEO4xpGbih8E7oJ/D6TM0T58h9imaHKUK9aAcKIdXDqsdmXHkJjwHh+51uXjqHbh2GbCAYyQ6QhCEXYaICOEepDBZnnUGbMP0Q8kiCDhQeFhb4oPvfo+FKA7ZGCgGGsIz8EZAmNYopzc0sG/PHmh1eO/7z8PKKobwurJgxBMx/n0c+e6J0BJ2KiIihHuHsilUcTd2aqzswaATpSvf6xn5y+Sys9jwzDz4fOQNaR9sm/Mv/jWuuUIFRZxryBV4j/cWCEJCeYfGY5zD4MNzPKafszeuoBfXOPu958FBjCPK7cd6vncj5fdvoMFG/rOup5kg7BBERAj3DmrETPpxB4MGdPE3DyMBfnqTZecyaqhUBKSEaxFHrL7wfdLLl6h7h8kteA1eD2IgRtG+FBTFtorYiJpVzGSK3rnLtN96G0UM3oqFZMILMfFcLo+wE9nZd1NhZ1K42MubsoEiWyAHHJYwW2/VcMkIy069ka+XRiOCq9+BnoUPzrL09mlqPUfNG7x1g3SN3ITrBA7tXRAQuEGMRLkoD8ZDw3pmMs/5l9+AlSVU7PFqN3ojxv0/uvy/GvENFc/1jv32CbsZERHCvUXhYfAE8WAsIVCwk0K7h+n2SLIexqYY71DsXOFwYxxkKdgUOqucef5F/HKLWuqpoPG5w+MHgmw0u2LDpt8+3C6Mg9jCdObxV5e59vyLoCxKWXZfAEp50YJIMBSiNsSchsUyeF2EhLDTkAZcwj2EHjN0OgeaPZrf/R4v/MEfYFdX2fvgAzz2w18h+crnoVZB16pYD/iYeEdG/jlGxwLrvBGRApeSnngHe+0q80TUbI5xFCPkQmS5sK5XRb2HwWT+5DijEBIeEufY5xXN0++z7+H74IGj4BVeRSi1E6/1Zng8Dp9bdJRAmkOa41ebXLhwERJDruHgsfuozkxvsg0Zzwn3JiIihHuGYeCkHvZvyDJOfvs7TF1f4r5GnbX3z/DmpfMkz36PT/zIl6g+8wXiSgUiHW7u1eoOLIY0LiQGeKDbgm6HcydeZ055KtZhXDEiLgy98sMbwc1fmrCdGa3xvR4XX3iOwzPTMLOA1+u9ETtTVDg8FoVCEaGiGLod/OISzWuLNFeb1KpVjDV0s5xsuUl1arpoWiKiQdgZiIgQ7ilCzkAwm0Y5WFskTzscqFUwrRX2uD4HkmkuvfYar548Se2b3+GJn/oJ1Gc/C0kSej6YW7+Bl05oPfLsrqSsbV3EN9Buc+755zHtNhUTEeFR2uOLwlJKKcxoSkEhADYrHOWL120RHxHnlmo/pXm6ib//FOrJPahKssmBwV173TZokQ6hroZad8hFAK/3OGexLse5cC2un3ibOM1InOFgtY4xEblTZO0Ut9qC+0RACDsLERHCPUV5+1UQ3PF7GlRnG7Tfb7EvgoZJSNfWOJ7UUFN7eOPVN3jpymXmX3qB4z/5E/DIJyGOQOvhMuqyV+vH9aUHpHx+d5qA4sjKxloeyOH6O6foXL7KoSihYi3K32BOvihdXZa/3nRvCox3uDynpjwHKhXe+/6LPHT4EdSBBiiP06BVcUz4u/jajTDqRFGA8lhAFepiEDhZZK0Y67DtHs3VVXyzRZKnNDAkRgOKvNPDGRPiVyPzsZ+OIHzUKO/9bouEEu5pCiNodcjG0BnX/vTPOPcHf8SBtQ4LWpHYYK6s0vhalTUyFm1Kf3YPh37w8yw88zl46nFAQVSH3EOuIQIXhZg4M7K/SbsClBMqHwO3EohXmLiuJaoZ7Im3OP3dv2W+lzKTpsTWFa70EQYCqnhdjysHPzkyZ+T9zuNyi1cOZxTNuE5n333c//f/PjRMSPtUaiDMytYa41fu45YVk9ez2P9kUTIVMlcsntxbUpfhraOOCQG7FvJWh5Ur14gdGOeIbErV5mCL1Fk0mfd0PLhalT33H0IvzBe71OP7F4R7FPOrv/qrv3qnD0IQbp6yTGWRd+FzGpWY5bfegdVVGmhi51DOh1TFPKWCZzqJMHnGuXdOcf7NE6TnzzM3vwBz86BMEVUYnsLQ2KlibqD8x+D/H+P53hTBOCoUOtZwdYWzzz5Ho9mlkVmqtsyc8BMu++I/qnh9MnZh3YkWcRRFoQ5v/EAceAztZk7VQXz0IEQGCELCjaytNtjex8fk9VTrn6qyFolF49EeqiaiYhJ0lpG3WvSXV0hX1qikjqr1VG1ObG0QTiMt0lPryOOYytwekrk5qEQT8yM7MVZE2E3IdIZw7zFaSMopeOA4C8eP897Jt5mvVkkcRKPVAq0jTx31KOJTjT2sNHuc/eZfceG5l3j4h7/CgS9+CR5+CFodmNmDMRrcSMbDPdOZMngHyD29M2dYPXOO2WqN2Dms0ijl0KpMeh2bGFovHjZhLPWzMLa68F4k3jPV67H81jvUHjwExw6CcmNVFMYf7waGBn/4WB6xh9yhnQPrIM/pLS6RdTvk3T6xg4SEyLkQPOHduu+Jw6MjQ31mGmpVdkOxM2F3IZ4I4R5jJAJOqWDh+zmNfsrl995jKs+ouxD0p1TRE6IoToXNod0jcY5ZnRCnGRdOneLq2yfh0jmm985BYya0ycYVo/OJG74qmlgVx/HRZx3crCei8ND0evTPneXCS68xryPqWUbsHU55vHZoVXgRxq3msCzlJJue3kh10ALtFdPVGXqtFiutZWaOHoQkRmlw3hMpg7rjBnSr6+lwoR9peJ8roipbXey1RTpXrpK3Ougso+Ig8RA5gnDzhadHD6+t14pUaaqzs5jZ+RDYO4gREYSdgYgI4d5htH4BYa59MLVx+CArJ94ku3iB2chgkmoxN+0Hq2pU6AHhHVXrqHvPtFeYZovVc2e5/tY77ItiiA3MTUHWwascr1UQCy5E5G9lB2+/qJgwel4X5z4a6lk8z3Nor3Hm+8/SO3+RGQc169De4wygHNr5MBlTqqvRutYbntDmf1BKj61rPKjMUY003bxPu7nK1MPHAdDWg45v+ew/GtTIElxWzllylxJpw6CmerNNdukK2eIy6WoTej0SVIh/8B7tFMqOeiAcXoXiXaqIyWn1M6b3H4C5PWG7RkSEsLOQ6Qzh3qS8EXsNJoLEcOixH+DyiddJrSW2Od65whvhifygeCCmGEHGzpEoqGnPVMexevYcf/N//R9MP/IQ93/uaea/8Axq3wGUVuBsUUhJgx/+bO6a+gfeQ6/L4ok3YekaDeVIytExDrVh/PTtzpdwoEKl0OnMsXjuIvnJU0SPPQl5t1AZd8n1AkYLp2sdoUnAdshaTfJWF9fu4NpdVGrRaY7xDo1FKVV4dBx+oKP8wOPli1LrDojrVahVwBSBpoKwwxARIdw7jNifQdUBA6BBw/xjT7L2l98ivXiRigKfZcRJBZxHeY32OiQaFoJCF06FilMYIMk9e+sJi6fe4fS7p1h6/hUe+rl/BIf2w765YCd09a4s7Oy95/qF86ydPUsjz4lig1IOl3t0UY1SuZuXDJNZGYPXN3itFFJeg1Khf0nVwkyqOf/Kmxw7cgxq9WBZ74o7zmiYZ/i/J0flGSsXLmE7HfJeP4hMF7xX2iiUD7mvoVT4RHioUoO26U6FJBirNNVaA6r10Cc9v9NTOYJw+5HpDOEeo5yeKLIEynt5biHSmPNnaF65hMkcpCmx0qAjhjUUilgGgqHUfrhE3uPbbebimBkV0Vtc5p3v/S3u8mWmXY6a3YtSVZQ3RZ0KcDoYj1GTcnu9E5tlExTueAW4HNVuceHll4mvXGXWOxKtw9SF92jvB1kGw5ack9vbZDe3cnwqlM3W3qNdEG2r3Q4qz6g+cF8owb2+ctPHxOj0T/nogQh6XVrXl2hevkZ/cRHV72OsD6mbPvTD0CoEkCqlBp9vuQUPwVtFmbWicUpjtSGensHMTIfaJM5TuDAEYcdwV4wLBGE7eMKoT3kg1qjpOtOffZrXvv89Hq/VqRJh0z5GEXI3vQ9VLllvQ8uY+chUcKmnrnKM0Ux5R+e5Fzh74gQzj7zE/Fd+Ch44Bof3kud94lo9FIlUHl8Uchp1Wm+WDHrzdSZG3jday0CN/t1x6cVn6b73FgdMnWrOoKiUwg+EllMU2RkwKU428zzcCMVkASVTuPgVMZZ9JuLKydeZ3VeDhx+G+j4yJqISRmY5bp/EGL1QZY1TwOeQ5UXJU0P/wnlsp4fr9IiyjIYxoFRZuBOjwvUdZn+Op4SqUpR5j0GBM+AcTXL6lYipmZkQUOm5y6ZyBOH2ICJCuOcYLRfkfWEAFZhIw4PHmPrEg1w9cZo9lQY+zXDO4qMI70MRqQ2rNvrhox4MGB2xgyk8+fIayy+8xHunLnD4mS9x5MufIf6Bh8ClIcXRuSLzYFweFPGYE2zTVI5O5xQuc1yO/eADFt86wZEkoZo6Issg/dJvVx1sgxAPoEMvDhWucyXLWKhHXD/1Ngtze+D+WQwhwNJTfH4jHpIydOP2eHM8zmV4XUodje+lKB1Dt0Xn6hJ0uqg0p5a5wovgx5wlWx2Fniy54RTlZ6siQ6VRC/EQWouIEHYsIiKEe4pRgxymJEbd6RoOHuTok0/x7mvv0I2hahK8tSHQLVLofBPDMJnfP/J/rRQJij3eErWXuPLn/x/nv/ctHvnKl5j74a/A3j2wZwaXZuj6LMqVEfiqDNfYcB/bOn814kPwDpaWOfv9F5i1ESZP0WUFykElyslgvvIgthYy24n78AqyItBQF0kfSRRjrWftwjX6Z85TmT2Mnpkb7MGWmbrlBd8qU+TmjmLsudIKbEbuHCa3qH5O7+pl0naHmjGQOaJi2gflcSjcqPBSIa9nyBbXUwFKk3vwiWF6bi9Ua+F1y+10swjCXYOICGHnoDSklr2feoJLR5+lubhGtZLgu11y71D6xnfx0paVxlr7oXCpecuU6rOwp8qV5hJv/tEfkrzwHPd9/hkO/dAX0MeOQ5qGGAylATPw2Q8CQUdLNNwioz08DA7ylParrxEvrVHNLRUb4vfuNGWAoQZUnKB6bWaihEsn3uHY4WOh6FJUThuE+IHbtOficRj3oIhRypI1m/TaHdKrKzS0oe4VdEImiUKFC+c1Wk0WOr+FvSvw2uFNRFKfCl6I8rDugs9FED4KREQI9xjjBmcs5kAbmJqDw/dRP/4gV5ZepKEUiVFY7zBbtIkZDD6VHgiJ8qV4ML2e4/M2yrbZbxLmp6e5cukqV/78v3D9pVc5+PSn2ffjPw7T0zA1BRh8psiSGBcX/TjUhxuQOsD1u5hKDfvuW3Q++ICZNCXxmhi1biCvJnthTGzvRgP/Sdu32dtHHQnl+XnvsZ0mGk8lgykUl154nkP75kJLdudQ1RoQobT5kC5/HzIsyhgIR/DUNBfpr67QXmuRtTrMRBVMng69JUqV1cOK0qQeM3oMk98ZNRkDMvSNOQWZ8rTzjEZiYGYmBFMOD1HEhLDjEBEh7CA0Wa9PvHCABz7/WV5+921aq21mTITCo+3WefpeQT6qSRi65VUIuscTIvZjn1NFEZuIZu5YPXuec1eucuntUzzy5S9RffozsHcBFcckPnizb0dVBgPElSpcu8Cl116n3lyj6i2RV3e8ZoXyI4JrhDJIsZo70uvXSV98keRzny3KQJcBjx9u385leGsxWkOvB+02tpfSXlyG3FH1MB0lGOcHrTGKNYcRnts+DF2sq8k8JNN1kukG6/uUCMLOQ0SEsGNwgNMV0GCeeAIOLrDabDIVa6LcY7wtShmvX1f5oTfCqw1G6B7wGkuCU47Ya7RTJHjmlGIm1sxlKZdffYO33z9L7Tt/yyd+6IcwX/oSTE9hVJ00S4nrlW2fn6YYNOcW9+4ZWu9/wGy9glEepQzKqW1nWXxYzEhgasmgA4UO/oEIT5T2uXLqFPcdPQTHHoAoGnqTbmqkvt7MO5eR5Rk6y7GtNXSnR9ru4nspcS+nqgxKRwNFaEdVxIinRjHilNhk704NRVH4jhQCovBg9XHMzEyhpxthY2VQ5d1YXEQQbgMiIoQdRZwQbtjTDRYeeZT+xaukq22mfY72aZE7cWv+gEFpBa/Rvgi0G7zmQi0BB/NKMz83T9s5Lr5/mpcvXWTvOyfY9+QTTD39JLUDB0N6oSl+diMjYAju/2HK4GR55FBeWfV65GfPceXNkxyuN6j4DOODeLhTAmIwEzRiLEsh5keMLsD+xgwXWiucfu45HpyegYMHi0yS4jO5obvGMdYgyzq0tURZjkpTFi9cIrHh84gdVBp1yB2kGeQOXxZ9KI9xZMu3YufVhDBQgEPjYkMyNQWVamjaVZ6MQoSEsCNR3m8xUSwI9xCleYkAXE7+wgu8/7u/T+PsGWbpELucOKqPla0u8/lKI5yroQGcnM4A8CORi2qD0Tde4ZSmE0M71ly1PfzsNPsfOs7Bpz8PX/pJqNSgosE7vHdYDWYQz1Cqk2jC8OSQ9aC3xuX/+lekp85xJKlh0iycu9aD7WyF2iDh9CPFa4a3GIc2in6kWYwN9vBh7vvJH4Pq3MbrOgZWvgzUdOSh9kUxvPdrLfprbfqtNr7XCy25nQsizPlgwp0fepr0rd3uRj1Sg4BRz8SUCKA03Ujj9s/SOHQAkkpoqVEWOhtUpSrff0uHIQh3LeKJEHYUYUQIWmuig4eZf/A4i2ffZ1+9iltbvrltbGFnNvzbaP0m79A+lH2OtKYax3TabdovvcRrJ08RPfcWx778FepPPQ5TdVRiih9hmZqZj1V1HIxlvYdOk+brr5BevUwNh7ZuJJXz3sB7h3GaKau4fvk6rTNnmfrkFL1OSrXeGH9zeUmKhqpWWwwRjha9tRa22cU2O/heikuDeIjUsPzVqMYrvTSTtnvy89zKmzMaNDq2gyK90ymoTDXwkUF5jyJibA0RDsIORESEsGMIxpYipVKjD+5n79NPcO7l52mnLWYq0+C2Nrqb/XUzIzTGyPSEcaCLlMsYTS03VLpdWi++xLlzl6i/8gL3ffmLcOwYzExDvR52nukwj66LhmHF9rRVrFy8ytXTHzCVOio6wjk35nn4MOmjHyWD3hpKYbXHFkW8Zqzi6itvMjW3QHXPzOD9pXBygPIWX1ScNBZcZ4Ws1SVtrtFfaxM5h7aeCoq4nEJBbTvJY+Bxuun1g4CwKniCokZ9GAehFeumMO7Cz0cQPgwiIoQdiQN0pOGBI0w/+iDN199ktj6Na/c39WiXI80yXfEWPd/ryXJU35EYTd3EzFZjMpWwurLEhe9e4uKJN3noK19h70OfhE88DNMNSFSRC2oGxlQ7oNXm6rvvY1daJD4IE+X8ICVS+6HguJuxhZclyh01HFfPXWD5tdeZ+4kfBdsGU6WUcprQyl25IqvGOdbOXsZkDp/1SXJP5D3GgVGOSOnb2prjhnWvynhQHbSfVRpMXM6b3L4DEYS7GBERwo7EQRgRPnQMf+QQ1159nUOmglcZeqOy14ObvhsTD8OgyvKFG+y4bMTkQaHRxoRaAd6DS3G6T1VrjqmE3lqHD/7zn3L1yMsc/+xnqX7+03DfXljYA9RROAwa0h5LJ9/EXrjMgagaunQqj9YMaysUMQM3snu3OjC+FXf/xhsYv9aDnhQeKlnOfUmNy6+/ydzBOfjEMahHoXx4noH12E6PrNuh3+1Bp0vczzEOKl6jNRhXCAflQmBqeT18UUPE+7HUV3+T0Y0bxrsoAD0eJ1EIiDSCmX17h9keUuJa2CWIiBB2FKNloS0aoxX3Pf00J597lVazS02VjvKPgUFXqdKgOBSW2EM9d9Qyx3RSpbW0yLm/+hbpmy9w4CufZeEHPwPHHsR0O2AS+qfe4+qrr3LAaGqpI8kJbaknsjtu3RX/8VOmRSrviDzUvedgEnHtrTfZt6cOR6eCiLAWspzu4nVcp4/vp0SFeDAjIvBDV8n+MKjg/cm0JmrUMVM1ma4Qdh0iIoQdgwPy4rkheAIsisojDzP/4HEufvc5jq2rCz1Mw7st9mjCY+GVG0yPeAV4jXEhNTQmJYlj4ryL7mYsn7nGtdXrLL34Gvs//QSzX3wGYsPiay+x3/Wo9yzV3Kzbx8a4sZoG2z6d22gUFcFzMHwhx+iIunVcP3+BPYcOkhy6H3o5ncVlsrUmupeRWEh8yF5RyuH1UESMHZ8qC3z40QYjH/6gNyFka2is0jQaDZiaJsRIGGQ6Q9gtiIgQdhST93zrFcZUOPL4Z3jl1bdI05AGOJy20ON1Cka3dRsMsJuo36DLcsvlDjotYgXTWCpKkbXaXDvxFifeeZv5F5/n4AP3Uen3mI8T6KWgayFFdctUQTfWQOxuYlgGI3SoUEmC6jWZjWIuvXGCQ9Up+lFMpGJqHozy4XrZQhhEaqww2J2gdAI5goBIGlOYRqPIqrn1OiSCcC8jdSKEncNILn4ZZGgg1Jx+9wLP/7vf5Oj1cxzSGbgM12mhiYAIR1TUIgij3HWxECXlFMVNGrGNjN1G4qQUHKlSZFqTGkiNpp31mZmd5sC+/VBvgE9wOgZjQgtyXWRzAGjIdfB+TO524JG4xZTQ226rfVmXww227wGroRfBWmzY/+BxdKOOjmJsromcDm/wGmI1JpCULutrFN6JweezyZTVhLq6kRjZOCYknINVmtUsZfb+o5iDB8PJxNHW1/guFXeCsF1EMgs7j0kj7TzsmefIY4+zYi1dmxepGMNgyoC+7XUXykJVo8tm79MeYueo5jnTac5sP+UAispal6X3zrD63vu4dgdtLToyEEWhiIK3hdF0aIYC4kNnl3wETFbW9MXI3ThILNR6KW5pGd1uo7KUyAevEbgiTWWcOxUTEa60JqrWMNUaRBFWmXuubocgfFjkGy/sfLIcpmscfuoJetUKy7kj9QqvzR0tFz3K+mPQaAwVFRNbjeo78rUu7UuXSK9cgmtXoLkcilO5DHxGmKJxGBcW5d1g+sQVng6UG19udFwTy+1jvdtfe9BK0VlZw3X6kLlC3430O9EepX3wQOiNPrjRstgbnN+tnr8aX8qtehWcI1G1ArVQG2Lj4xGEnY2ICGHnMZm44F2Y1zh8gJljx1lC0fcRqBirNJ6y/ffNGZaPGk3htXAe28vR1jOdVJmrNGCtTffSFa6fPs3ambOwuhKailkbFudQhWNCecZbUd8DTFdr9FZXaV+/DmnRMK0s3LQuKHYrbkfP1A22qobl0TMNulaDSG6jwu5FAiuFncNEsKEvAiR8HFIK2TfP3CcfpXPpAv1Wm0YcY30HcKgiNEgVWQB3au66rGlg8HiniCOD9uDTDPqWGh6nwrRHttpiNc0w9RpTC3MwNQPVCuAHxlebCIcf8bLf2ol9nJdBeXD9nNn6FP1Wj+6Fi9QeegSSKFQaVXqkzsNEDER5pIP5jbJm9oSBnwwBu4UTVEph0KTe0XEpeVxjas9U0fUtZAMJwm5DvvXCzmLCKHjvwZjgiYg0859+mnx6lrZVWG+wWhfBiMNmW3cLRvkQBuAovAuOyDliW3SotBbd6eNW1lj74Dzd9z+AZhs6Xeil2E4QSCWedXGFdxXag8otkVfUVER/rRU8Lb1++Fwjc8NtfJR474OQURrihLheRdcqwUPiua3VMgXhXkG+9sKOopwRLztwOgXOKGykQknpRx5m7/HjLDU79NIMhy6C++4uBoLGu+FStgMnxDxEzlG1GZW0T9LpwPIKV197g9bZC9DtYuqNzQMZ/O0PIr0daA8msySFkFg9ex66PbxzoBW+jIlQQqy17gAAIABJREFUKnhtJgpufeQUha50ZJien4NaBdTNV8IUhJ3G3XcXEYSPgFASQoO33P/ZHySenydl2PbbuLvDC1EGQm5NiN3QOIx3xM6RWEeUZcS5JVtbY+3iJdILF8E6tM2JXY4pAi0nxYPaYvk4GdtvbolQLF67Tn9tFWXT4I6hEIp3xKNSxM7EEXG9RlSvgg49TpSUuRZ2KRITIewoRs2jKtpCe++LgDiNqiRw7DD1+w9z9ZUXua9RIXYOVVZSVHogLML/J/fw0QReTpasHvZuKJ6MnFgodjSZnhq86g1lsKkly9u02m3i9jLJdIPKwhymUodkCptbsjwjz3IaU41bEk8fNpNF3eD6lcfiFOTOcujAAdqrK6gkJkkidGSwLpR6coAuBVGZ/jn4HDfZz4Sxv6U4BhVSO1u9Do29M6HZ1iijKSyiKYRdgogIYVegR+PtZqY48tSnOHv+A2y/jbb2Th7a1kzGeGz1Vg+xd0SEBlc5jmxllX6/Q9paJZnaQ2XffZi4GgRFZIca5C4weqNipkxH7fU6OGPoLl4jqSUwvxA6bN+BJBqnQjEvXakSVaoj10zf7vxXQbhnkOkMYcdTzp8rpULKY7VG5ekn8fv3kqkERzQIEbjTNSO2Kki1MaHegvK6KH0QakWUUxyJBd3JcMtt+teW6Zw5D1cWYbVVzAuUUSRuUEXyIyoMsSVjnTFHen64XorxDp9Zli9dhixFebVu2ufj0hQ5nqRRI2rU14eUiJAQdiHiiRB2Fd57lNJw6ACNB4/TubxEw3oUKTEe7A5Q1t6FOI/iv8YVVaPbGa3FS/RrTaqz09Tm9sD++fAmDcqXHU7vjiugnKdWreKsx6U5nV6KX2mi9iZF9SfGgjccRcPUbZb4vhEeTWY8STWBaoxTtzgdIgg7EBERwq5CKQVGQ7XKgU9/mpPPvkIdHWpG5OnA8G7mkbjTwZdbBvBNGFDlISqaVcUuNCJPkpjcZ9iVJZZbS1RaiyRTU0Tzc1BJguEdbUimJ2MIbq33xM0yGgsS6nQ4okLUOAjNUEzEpXfPcMgp1OzcIFB2w9mEgYD4sEZ+uL5ToKKE+t69EMfkuZV2W8KuR0SEsLvQRVpgkhAdOkLt8BHap08TKUcFj1bq3nRLlwJCrX+tfMn4ojmXc6FvV67JFldw3S5Rs0UyPYU+cBAqFUCDLVNL78wFUT4csxkx0zHQXV6jHsXQaAzdLR+DKXdokkYDKhGgcWai0dkdLFImCHcKERHCrqE0h15pIq3h0CGOPv4kb58+Q81B5CzxvTyuHG1sNdKsaizTRBXm1hWVpD24ZheaXfqdPlpFxHsX0HG04XYnX5vMKvmwDDwSRZaFQg9btnuoVyK6KytUawm6Xhl6HFTRzGugdzb7HG8QPVGeR7nPCZJGDZIEjwJ1Z4tfCcLdgIgIYddQzviDwmqPiSOqD95Hb7aOyhX5cgeHH2sWea80VdrKiA9TVofTFBrAO8yIk6HfbnP9/fepNFvMzO7BJBFmenqigINZV5rReT8w3rf7emlfHLN3KAWNJKK5skTrGszMTEG9mIIpzst7X5xreUA3eTxlUOlARAxTfvEuZGYYiJOY9eKiOMZ746siCLcVERHCLiJkLgxu9jHwqQdofPIYa2+cYCGu4vPxkaqfaGB1L9UU2ih+Q22RGxk72IsmX7xKe/kqVsPC0UPQqMF0A0yFXqeH1zFxFKOLVupjAmbyem1TVJSelHAOIQVXKcjaq8xWDL12i/bp92g8dBySEORoVYT2KuiBgRiYSN+dPJ7RehIqiAW8HgZoRoZ2u4OLE2pz86HMNQpfhFSuK8p1D30/BOF2cA/7bgVhG5SlpCHMp++Z5sgTn2Ipz7FJBevBeTdY7lW2EwBqvKNqcxpZWGp5zrX33mP17AfYCxeguUq1WqcWVzAebJbjnAPn8T4sHxVeORwWT4b2jrrR9NttaLWDcHEenB2KJO/XN9vaElfspxAwI+3CnTZQSULb7zg0OHOEeAi5gQq7HfkNCLuLsaGjhrjK3KceQ++Z5Xq3j71H57nLrIZbrzNRMFIbQjlILFRz2FuZImqnLJ05z9U33oGL12C1jbKe2EPkPZoRo3ub8UXr7VGB4ornlSiidf065KEuhrmZ3atxgVBsceTRDZ8p8MrjIxPiLxpToZlbiIggQg8rcConXghhVyIiQtilFPPoWQ6zCxx/+gdposnu9GHdaUbEhLHQXVqBVo+aVVQyx9KZs3TOX4JrS5BbsCHbI7JukJo52JT366aDbhfOe4yD/lob2l3IPfFttuNeQYYijxQkFahXCa22xveiP7ZSV4Jw9yEiQthdjI2WI4gSmNrD/Gc+Q7tSwWr5SQChB4VTNJIGNZVQdRHVHJLMkq5cZ/XCObpnzkC7Bb0u9FNcu4OOE3Skb3uA5bBrp0GromIlUFGG5qXLZEsrkKZg/c1V3BzrYjp8VH4Y5+HQtPspuTE09i+E7woKhSF0ZdEjiyDsTuTbL+xSivGjikI9hP0Huf+pJ0nvdDWpO4UaeZyIFgxt1UOqZeQzIueg36O7vMilN16n88F5aHWIaw3Ic7yz2LwIhvyIslsMKhTTQmH7Kc3ri/RXm+sCO9dxM1Usi2wPq8FHmpn5eUhivEuRW6YgjCO/CGGXMT5ytICzDhb2c+zTnwm1BkZQuBt2ntwpDPqHaPDG4YwLI3KtQwZj0RRLe4vxlthZGtrgmi16H5yj9+4p+kvL9PsZURxjoi2Sv8Z2dvO3oVF9o4sW7olT+F7K2uIiPu0VAZXD+Ibi3Qw+9832V/TjUD7EQzgVRER13wIkCd0svenjFITdgqR4CrsaD/RzSz2O4PhxVisR015TsS6MuMu6Cju8xfNmdSYmx/WhJ4cr0huLqpY2w9oeWb9Pp9OhurCPyvwcql5DjZbMVBB6jA5rKmwvCFQP1tMqlPauOkW3m5KtrpHECUQRaDNRPApGq4WMM+wbopUmdx6vodZoQGQAR7VS38bBCsLORjwRwi5kWHBJeag16hBpuP8wx3/yR3nPpmSVCIfFkqNcHlwWlkE6406mzPDQKLTyA2+MxhETymskHmIXsiJi66iiqOU5060OnD9L69RbZGfehc4KpE2wLVzWIXMZufJYXYz2CddTuXLRg2qV44R4BeNNmMpQBl1OaRSZJFO5J7u2FOIiijQThydXHo/HhzSPMt2j8FgUHgpFmNryBlxIJk091PfMBheMK4SkH/dkjT0bnQpaV0BCEHYmIiKEXcT6ILjSw+ANEGvqT3yKbN8cqdFkdmeLhY3YyjMwmUY6WAqRETtHPc9p9DNMs0X38mVW3n6b/qWL0GmjjcYohXMea92IGHM3PWE0sM+lJ8KH6BbjHbGDyOW0Tp+CfgrWMqj/cDMb9y4IixxyB1ElgVoleDT8Rl2+BEEQESHsbkYLK2gNP/AolSNHuLLSJtYxXkGuCZPvO/jXslV9iTIzYssOogXahcqXiYU487i1Dr0rS/TOX4Gri9DtQZ4ReYcqi0OVRZ0IhZ5G+35sdqwb4/De0mk16S9egbSPLupHKLi5OhZ5Rppn5N5Sm56CakU8C4KwBTv4tigIt4jWEMXc9/TTpNUKvlrHqhCl78oYQDEkm1Iad1UEPFbQzMRVKpmnf32F66fP0Tp/Abu4hOl0iPp9NDng8MphTXi8mX2sJwiRPO9TSRRri1chT8E5lHdFJcsttl0EW+Y2x+GJkwRViYZdXzescS0IgogIYVczNso2hsx59j7+JH5+H5fTjDRKQEVF9UJ30yPyncro9RpbUCF2oFiUMiinUBlEuaLmY6Yyhb5wley9M7TeO0169TL4DFyKNTnOlH0ubmDsR7MrRuZVlPIo7/A2x1hL8+L50Dsj0vQ6a6haUsx/qDBFoUdrPQBoTFwhUx5dqWL2zAZhqcpcDz2S86EnFkHYnci3XxBG8HEF9h3gwNNP0GlUyaX41M0xEVA46rFRHrRVRNZTt55av49fXqZ58TKXX3mddHGRpJ+j2l1wdpMd3AwObcAoj3YW22yRX7oANqPaqOG67RtvQiuSSo3KVCP0ySiKTnm0hEQIwgbIHVLYZWw1ctREcR3m9nH4s0+zUjdkukwnvIE7XBj0ubAarHZk2g1eG16/0Ek1sY6kl5K0eqyefI/VV98hWe2gumkRcLnJ9V7Xo2P9Z6mUIiYIicULF2B5EWKD97ZY1xVBlCNLsW2vFVGtgqk3IIrDed3OiyQIOwwREYIwwuAHceQQ1QceoBNprNZordHKfyRNpnYCpefBbTHToydiJuLcUks907mGxVUuvXaS/rUldKeHym2hF9xY0OegIdcG+1FA5DSxhcgrIhRpv8/V8+eh18VUEnAueDt8mbNbLMphlUbVa+iZ6RBQOSY45XMXhI0QESEIJWW/hR5w3wPse/JxFm1OPzbD6XPhpjBFlobxIf3SKI9WHqPAKIi0ItER1chQ05qpOGYurtB6/wOuvXGS3pkLsNoueng4sI48y8lshvMer4pqmlgcoeaDsoo498SZQlsFXrN3fh/ddpeVcxcgzUPap7UjHoiweG/J8FzJctq1Gkw3ijNRI7M0IiQEYRK5LQpCiScMTA1gYvZ94hOY/ftZdXmIjdi98ZQ3jR4pHX2j9uSKoZfB+CA6ppQh6WW0zl9k8e1TrL3zLvm1RbCOOElIlMZjcT4P0xNl6+7ys3FlOezQ6wPnSdBkrTYsrwRB4gtvhPPgfBAhEJqv1WtQq8OgJbyWm6QgbIH8PgShRBFsUgx4ReXYwxx89Ae4mls6atggUljPjQTDzaCLglU1HA2tiPp9uleu0L14ifzCRVhaBpthnCPyHs9IjAMOp4oy5UX2hlEKbS3VyGA7HTpLS6HTJyOdPgG8xqoQOFmfmqJSKacy/MixbbwIwm5HfgeCMEoxovVZBo0pFj75Sdq1BlmlTjYokyx8FASPRBASic2pK89cEqM7PVrnL7D87ik65y+Rr65AbjE2RzuHJkcX/TxQDnSRdupBWUtNG2pe015cguYag6BNb/FonNI4InIVUa3WiePQ8lskoyDcGGnAJQgliuCFAFQSg/XETz6FP3iI5uJ1ZmrTuG4PI7Zl26yvsVHEGYxc09DkC7Tz2DwnAgyGrN2n2T2HWq4yO7dAMj8LtVqxchFtaSqgHEpFGFfGMHiUVsRKcfnMaQ5gUbN7wUR478lRZFaRzMyQTE8X9SOg9EZsnQsiCLsb+U0IQkERYlfUUCQUJZpf4MFnnuFyp4OPK+tahQu3CT0sf10uqgjKjK0jsRk1Z5lTmkY3p33hIosnTkKrDZkNOsI5cHnof1FkdRgHJnckeVGOG0+nuQydVXAWi8d6halUqTQakCTFAYX5DgmlFIStEU+EIAwI3RtDcSGFVkBseOALX+DcN/6MlXaXPagP96ORFNFNcOsCV732oe23BtBE3kPmSLzFOEsfx9Irr9LYt5fKvv2wdx9ESVGswoXKmXq40cg56lVDa22ZqFqjMjUT9qygUqth9syVe0amMgTh5pBhlSBsQg70UwcHjnD8M8+w4iOs0jdvY/zEglv/mixjqZbrltIrQR56YfS6kKVUtWJPNSG2Gd3r11k59Q7dt07C0gr00mJKwhfeCTfooVGtJGTdDmuL16GXoj0kcZWk3oBqMvphCYJwE4gnQhAKNBqNx6Eoiy9XEg2+wv6nnuGFV09yoLMMvg+lmFB6osRz6WnYwOMwap/URCzAbk0fLcVVef6D66CHnTddcZEiDcYwEBe5o1FJQr0IlWNXV2i1c0x9mtrsHpiuQyUu0kU8eZ5jV7rsSWqkuefie+9z6FNP0u/3qczOFO+7zdUgduvnKuwaREQIwgSaIAEGbjoD8ROP4fYt0Lm4yozVpV1itE6BV0WfCD9hO0beNxAfJRsZGTXpILyBWZscOPuJ9W91CuVm19/UQE6s77fYv5p4v2dCUGh8kTM6DMoMgY9eueCoALRyaDJIW9g0o91eRU/VqN1/BBIDCrSy4DXeQ2w1MZqlK4vMPPhgqFAZFwJFEISbRkSEIJR4CiUA0aiBVMCRaQ4/9SmWFk9TBWoZVGzwPChCvwingoDwHmDYc0MX/x/d3EYziaUWcOtExNboCRGh1omA8e3fiJtdf/MS1+Prrzu+TdYanv/kAU1sfaMT8eC9L6Y9LM4rsmaX9skl6vN7qC/sRc/NgtJoF+GUxjhNt9lh79QMaLkVCsJ2kF+OIJSMTTeEh16vRzWpQt9z/HOf4W++9xfUqYIvG0kNcjnWb64YSU/+dUMjSGE8/UbdIkdbX6/f19grXqPXWWk9fN+NvBK3sP5G/SvWeTGgrOAQUO6Wz3+seNXo8fvgMypFmfYej8PgURbwGd2sTzvv0W+uEC/OMnX8UYyJyHUUqpDWa7BnDjJLBhjxRgjCLSEiQhBgKB4mbGC1Wg1z8gb4xAM88aM/xht/8ic0pudJW10S68CmRD7FeRv6OjiHd0NDtG5kP2Ylh39zRX2jDY3zYGMbvDS6vS3cDW6T9Tc/tq3X31hErH9pXARsvo/Nzv9G66vi6LwKkRQahVMQOdA+IVFV8o5jZfkqWSdGLRxibXaa9lzMD3zuaZiu42KDkruhINwy8rMRhJKy09IEXhVhCiZi9qe+xqdVwmt//l/Y4+GANtSIiJXGk+FcXgT/FZv06137dkQ4aFeM8kuvRTka3zBWYv0IebLEtPZgN/AGlOtv1WVzO+vfyBsx6UUI5z++PxhOYdzo/NXY+qPXw617L0CsFF5F4C060vSc4o23TlB77FF+6L/9aTi4D5IYF4VzGQ3JEAThxijvveQzCQITwZQjeO+DMXRAmoFXLH7rW7z//WexH5yl0e1SSbskZKjIDno46AmPw8CgFkZWjzyHIhZixICuN/jjhnLTWIMtRABs7mzY7vrrj1NvcnxbH3+5nbKg10bnPyYuNpmaKa9zGYipvcYYQ1qtcjmOiO+/j8d/7Mep/NCXIc8hqQ4DY4v9bIa04xKEcURECALrzcZohsZARAAoBXnxn8UV0pdfYundd7n+7nuorENcpRARxXb86BYBrzc11l4N3zMwoOsM5daGeEysTBAM8I3m+29t/c0ExObH526w/XEBse5obxSTwbj3w6YWm1umGw2mDu7nwKefgk99EhYOhAhYE4Mxw/3c4BqJiBCEcURECAJDs3EjE+G9D3bMuyAmylLLZYtpQxAaW26kfLJxFsSH5oauho94/Tu9/Q336cKclCE8akBrQiBEqFDqVPnRuS2+ByIiBGEUiYkQhFvEF2WYQ7kCw6Brl3DXsr4I2MTklfJFuy0ZUwnCrSCyWhAoBqZ3+iCEj5HRT1tSOgVhu8h9UxAEYQS5KQrCzSMxEYIg7AJuHFB6a+8TBAHkFyEIgiAIwjYRESEIgiAIwrYQESEIgiAIwraQmAhBEHYRG5UVEwRhu8gvSBAEQRCEbSEiQhAEQRCEbSEiQhAEQRCEbSFlrwVB2EXIuEkQbifyixIEQRAEYVuIJ0IQBEG4R5CKoncbcsUFQRCEbbPdKgHbWU8qEtx9iIgQBEEQtkWz2cbZ8LzXTQFwNjx3lnVLv58N1lVK3fL+wjqKZquJtTnOObz3rK2ticC4Q0ixKUEQBGHbOAva3Pi1UbwDtc0hbJZlxHE8eO6co1Kp0Ov1SJIErWVs/HEiMRGTEurWxbEgCMKu54XnX+LChQskSYKJDDa3695jneXv/b2fxnvwNxAaG+G9HwiIc2cvcO7cOSqVCg899BB7ZqexucXhREh8jIiIEARBED40//F3/yP/6f/+T8zMzBAnMVmarXuPiQznz59HK43W25vO+Na3/pLf+T9/h1dffZ1mqwnA/Nw8zzzzOf7ZP/9nPPLwQyIkPkZ2vIjIMkscG/r9jCSOUTrMy1UqMd1On2q1QjHNBkC3k5FlGb1ejyzLuHTpEnme02g0mJ+fJ6nFxHFCrVYljiO63T6VSoWo+L7a3GMicWcIgrDzcRaUCtMTtWqN2dl59u3bR5ZlGLPezdDttYljg8093gMTs+mTcRJZZomMQWnIMs/v/t7v8a9+7dfo9/vs33eQmT3zZHnGSrPFN//rX/Lsc8/yW7/1W/zIj/w3wPpAzO3EYQhbs+NFRByHL3KlEocAIBeeAyRJhStXrnPixAm++73vcuLESa5fu0a316XVbNHpdOh0OiilqFQq1Go1VGSo1SpMT09TrVZ57LHHeOyxx/jiF7/Iw584PvYlTdOcOIq2PfcnCIJwt6M0g+DKm17nFoy59+By+Iu/+Cb/6td+jVqtwcLefaRphlKKOKoQRxWyvM/VK1f5+te/zh/90R/ywAMP3OKZCNthx4sI7yDNgudBm6Bml68t841vfIPvfOc7fPvbf413ntzmeO/RWhNFEVEUoZWmVmsQxzFKKdI0p99ps7yUk9vz2DznueeepdPpMj09zdGjR/nyF77I1376a/zkT/wESRINhIsICUEQdjPO36jGw3ryLIcYvFP823/7b+j3Mhb21mk2O8RxhFKgMCitiKOYg4cOcurU2/z6r/86v/3bv/0RnIUwyY4XEc75gefh5IlT/Lvf/E3+5q//muvXr6OUGoiEJEkG7jfnwDuPJ8jrWq2G954sy6hW6qiaHyjpTqfD3r0L5HnG+++/z7vvvMPv/d7v8egnH+Xn/uHP8TM/8zMcPXpUhIQgCMItUqlU0Ab+5m/+jjdef4P9+/eTphlxHFGr1ckyi/ceZx1Ka9K0x8LCAt/85jdZXFxkfn7+Tp/CjmdHmTXvQkyCzcM8WBmfcOH8NX7h5/8xX/3qV/nGH/8x7XabhYUFDh8+HL6kWuOsI0szstQW83UKvMZ6RavTo93to0xc7EcN8p6r1SreK4xJWFjYz7EHH+LoA8e4em2R/+1//zd89atf5Td+4zdotlqD4+y0e3fk+giCINxJdDGSUiosNyL3YSB3+swZemmfPA/BmsZo8jxHKQ84lA6POkpQJqLT73HxyuWxbUk8xEfDjhIRSoOJFFqHqQdQ/Iff/B2eeeYZvvHH36DRmGZmZoYkSej3+7RanYnAm8nLcWuXx3tPp9PBOUdjaop9+/axtLzEr/zLX+GrX/0qf/Inf1YEdVYGhVkEQRCEjcmLNFHnHP1+f/yPav30iNGaPLdopchSucd+HOwoEVHiXKhg9g/+wX/Hr/zLX6FWq/HQww/RarVIkipxXEHrqKh2pgiXYfRSuJHl5lFK0et2cdZitCZOEubn5jl27Bjvvfcev/Dzv8C//l//Nd1ed5DrLAiCsBvwbvtlru+//yiNqSnCvLAbCgg1cq9WjjTrMTXVIE4SDhw4MNiOeCE+OnakiHj7nbf52te+xre//e2QlpkktFotGvUGzoUvX2SK4MkNc4lHv6hu/PUbUK3V0MZgC+XcbLZJ05T9+/ezsLDAv/8P/55f+qVfwkSKLLvFkGZBEIRdRppbHnvsMfbvX5j4y8j9uBAVSZKwtLTMU08+xYEDBz++g2T39vW49wMrPYMaD61Wj5dffpmf/59+nmazyb59+4hMUqQfeUBTqSQ0m83B6kkc0+v1aLZWSdO0yM7QJElCFEWoyKAo8p2Vo9lsYq0lTVOyLGN6ag/T09NMT0+RphnWWpRSaK3RSjMzM4NzjjxzgOb4sU/wZ3/65/wP//3/yO///v9Dv58Rmei21pZoNtv84i/+ImfPnmV6anr8cnlFkiRcu3aNn/3Zn+Wffv1/vm37FQRB2Azv/SBDo7S3N3IQlDV49u9f4Jd/+Zf55V/+pxw9ehRX3INt7kiSBAhTyGtrKyil+Bf/y78g0hrv/YfyQnz96/+cv/u7v2Pv3jn6/f5I7Ysw+Gy32uzfv58//M//L3i1Kyse3/siQkGvm1OtRbSaLf7JP/4nNJtNjhw5QprmhfEe0u/3qdfrOOdYXFzi3OIF5ubneObzz/DFLz3D448/zv/P3nnH+VGV+/89Z8q3bt9N2RRIoSWECIIKClfkZwmgNBHhIkiTpih6LdcKShEFxIJ66dKu0oMgiFwVqaGDhhqEAOnZbP3WmTnn98eZmW/Z79ZsQjbsJ6/J7n7LzJmZM+c853k+z+dpbW2mfVo7ra2tIDTBMsSq1atZt24db775JuvWrePee+7jmWeeobNzA0KYTJvWjuf5eK6LGYtFno8QpmUyffp0Fi9ezJFHHc3vf389xaKHXwRTmGNiTHiuxxuvv8FLL7+EbVWGTWKxBJZt0bG+gxdeeGGjjzWBCUxgApsKruuCbWMJOPHE4/nn8//i0ksvZWp7O5MmTcIyHfoyfdi2yaqVKykUc5xzzrnssdt78VGYGxnGeOLxJ3jyiSdpbmmkUChgWeGUqecE6WuP88bUAhnvGP9GBGDbWo/h4IMPZvXq1TS3NFMoFCgWPUxROYmapklfbx8rVq5g/vz5fOtb/82xxxxLY3O85r59FEqWOuLs2dsyZ8627LnnHgCc8cVT6OzOcM899/DrX/+ap596lqbmJlqaW4LvV6KrswspJTNnzuSPf7yLX/3y15x66qlIJcfMGxGPxzEtk8bGRhobGive8zyJbdt4rkdjY+MAe5jABCYwgZFDGnpTwc9yqFEMb4kgPd+TYAn45S8uZu52c7jmmmt47tlnicVi+FIiDINdFi7g3HPPYd99PwKAOQZugclTJjN5ymRaWprI5/OYZuV8ks1kSaaS71oDArYCI0JJMC34zrd/wOuvv05bW5sWjTIFtciRK1asprm5iV/96lec9IVjkR6I4Cq4rgI8TNNACJOSb6pyH1IqXNdHSkk6GaepIcVBBx3EZz7zaW6/7U7OPe88lr+xnKbmJmJWpfSr4zjkcjmEEExrb+f8889nt912Y889PzBmktmmZVIoFPB9n0w2U3axtJCWMAW+9PH9CU7GBCYwgS0XXT19NNan8X0Pw7AwDfjyl07ntNNO48EHH+Ttt1di2zbz5u0xQgQFAAAgAElEQVTI3Llzg1Cy/q4nJdZG1s9wXTfYfDxPlsl06znB9VwtiPUuxrg3IgwBf//bQ1xxxRWk02kMw8QwwC1q7XbPK0YxsbdXvM2HP/xhLr/scqZN18xdYRJV8rRtAzDRHcQHBEKpijiXMvRnImGq4PVEQluoh3/6U3zqwAP41re+xe+uvZbG+iaSKR0+6e3tJZmKYzs2RbeIIQx6evo466wfct9f/oQxGlO9BjzXw3EcpC+xrVjZO9qIkL7U7zkTGSITmMAENh6yyvMQ/l49hYdDXPj+YEU8lVI01GkyvG0KUBIfgWGAbRp8JKiPISnN7QIFSgUMuBGdQdnvpW/aVkxrD7kGtpkqSys1gv9NDGOEpUi3Mox7J0yxILnooouQUmoOAzpOFcJxHGzb5s233uCA/Rfxpz/dSVtbG4WCti4Ji2/VnL8HysYYJEtDQSxmct555/GTCy6gp6eHQkEX6WpoaOj38cmTJ/Pggw9y9dW/658HPaYY6lYr+tdFn8AEJjCBLQdKaUVhXwVLPW0zRFs5xi6tU5Q2FWwDjKdKBptS75psjXFvRDz00EMsWbKE5pZmcvlchQEBmkjZ09PDXnvtpRm0gJRekD1Rvbfwu2Wdph8G7kDlSCRtTjjh83zpjC/R1dWlCUI10NDQQH19PVdfdTXxeKzmZyYwgQlMYDxAGZXch3LFnWqOxOig96aUDHR+9DYaXZ/aGPdT4mbHuLtiYQ0XJQEFN9xwA7FYjFQyhZIGhtBbmFGRz2uJ6csvv1zrrEuIJ3RKkFFhRYxFBwQMyGa1Upoh4Adn/TeLFi1izZo1+F5/DkJXVxdtbW38819Luemmm8emDRFE1c+ShayUMSrxlwlMYAIT2PpQYypUwesDeh4GWVCOUWh6PGDcGRFhxqRS8Oqrr/Pggw+TSKQCmWtAiaiqWzwex3VdTjv9FObMmaWzNdEWbMhpKE2qtd1PhmFUbOU+ilobQDLlBG0B34NTTz2ZpqYGXK+AwCq5xJSuEmoYJqlkihtv/H0kQJXNZkd/jQyBROg4JSKw0fVr2ngw3lXutglMYAKbB4bSW4iK8XGEw00Yjigff03EoNvGYQTfrwhrvLsNiXFnRIQwDFi6dCmZvgy2bQeuLd1LpZQIIejp0UWvjj32WAA8fzOzaA3IZnPsudcefOpTn2L9+vX9yuEahoGUEseO8+KLL7Jq5SoAbNvG9/whjZyRQslgXzIoMlbe2HejUsoEJjCBCVQjHGrVMKbI4XxmK8a4O3uhSboYQvMhevt6MU0T3/cjdTLP97BMi46ODvb9yL60t2v501gs1s+zsKlh2zYo+Nwxn2PSpEkUCoWgkl1p8zyJZTt0d/fy2GOPA2BZFqY1flm/E16OkWHCMzSBCUxgPGLcGRGGUWLhLl26FMuq9EKAXm0bwqC3t5eddtwJ31MUCgVyudzmbayCeNwCA+bNm8eCnRfiFt1+3ggpJZZp0dvby3333YfvbZxUa+n44+72TmACE5jAJsNoDXUpJ4z8gTD+dCIMre2QzeTJZDLU1SWR0ivFz4SBMAWu61JfX8+ee+6JYRha2cwvBjoPtRBwJIY4/LCn5aod2ZbB4YcfwYMPPowwLIrFIql0Cs+VCMMGBJMmTeWVV16KBKeKxWKZzGpw+kH7lYRCoYgIlLKi/GtlIH1FwfUQtokfhSgUQoGywIk5/fK6oZRvPdizUszlice1uqeo4SgpFj18z9eZJkaJCDvgZVKl/dQS24peU1AousRiQ2tbKAlS+ghTjMoYy+e0hkcspr1Ivq8FzQCkX3nesowrq5TCl7p2imWakYpd+TVQon+9WH29g3b2S1Or/HtTm4Wu62PbVTc2aFO/FLqyxgwk+xtyfMr3WT4Yb6yxnM8VA6I09PT0kUgkKt63LRMMnQpu26KfXR3+KYPfO7t7aWioQwC5ght5Ny3L0j+DLxQ9n2KgRZOo6pMF1yNmj25oLRR0Hy8WPWzLoi+TIZlIYloGxaKH9CWmZdbsX+V/S6nrVAhDIIRRcW82hkI+UP8TqpLzIFTtz4a8hbA3DHX/q993Pd0/pa+FnqxIQbJUl8MUZs2xabA6GtIHX/qlMgUB30FKWVG6QBrlPSaoyFTmMa6mzpfzQ6RUKN/FMAxs246eg/FeYXTcGRHFojYYOjo66OzqiG6GaZrRAxbyDAAam7S0s1IKIcx3TgnBgJ133pnJUybrzuwaAeeBIEUJwGf1mtV0dHTQ0tKiBaNk/0c+HLDjCSca4MvFXaRvkU6l6TA3VHxPGvrhNYSBlD6xWGVKqQjaOVAqlgCsVLzfRFoOx7GQZqlbDSUHa6AnmoHqhpiWEU3UoQGhAuG4bC7L8jfeoqOjg1WrVtCxoYMPf/jDzJu3I77njzocFIs5KKX7mi6Opl+XPmSyGVatXMVrr73GylUrKRaLFd/1PZ/mlmba29tpaW5h1uxZWKaF4zgIs8Q6cX2FUhLDEEFobVRN3SgopUBVTjC2bVYYBOvWdrJ69Wpee+01Vq1aVSa2o5HL5kimkjQ1NpFKp5g3bx6tra2kU2k838NxLHxPRX1mrFdz8YQT7bsunUZWZxwFtXUcx6JQ8HASpb6plB70DUP3bV9BU4MuWOdJyGT6ePrpp+nry9DV1Ukmk8X3PZ0NlkqTSMTZad48prVPo6GhDtf18DyfVCIWGSUjRdjHTaGNhLq6lG5roD1g2zYrV65k2bJlrFy1ku7u7orvp1NpprZPZe7cubS3t2NaJkVXT1yOo8891PIdj9DjYWAkDEBx83wPOxigyifoWpN12NeFCcI0icyboBuZlqm3YEHiV80gvpTYjoMvoac3RzodGrHh5yqPbzva4C0UCjiOM+4NCBiHRoRSCsex6O3rJZ/P4zixyMJU9Lc069J1CBN8T+qOUrW/TfYwGZSRc/TfOy+YSzIR5/l/Pk8qmcJ24phC4EuJZRnkchl6V3WzfPlbtLS04LpuWdW4Ev72t7+zbNkyGhsbo2yVcOJPJtOsWrmS9R3rkbJ/SqlSKhK/ev3f/+Z//3BrxXuqKjRUDdsU7LjTjixcuKD2qpVgspBw99330NvTW2MvJTQ2NvLRj3609spBlvYHOtPlqaefZMljS7j//+7nlZdfwfcVuVyO3r5uctkcF198MXPnzg0q+40chYKLklo23TItMpkcTzzxBPfffz9Lly7lpZdfwC26QW2WYr9rlc1licViJBNJYrEYpmWy04478YEPfIAddtyBfffbj1QqScy2yOS8yJCrrmq4OcYWw9BVB8NuIkx4/fXlPProozz88MO89eZbPPvs80gpcV03GMBLT0y4ctOeFy2nXldXR0NDA9tttx07bL8DBxx4AHPmzKGlpUmvrmv0l43B0qUvcv3111NfX49hGP2MOst06Onp4cijjmSXBfMrpoDwGksZeCIEPPHUM/z973/nnnv+xMsvvxKsRH08z0dKP7rfSimkVNTX19PW1sb73rcH73//+znwwE+SSsRQCjxF5LkYLnS9n0qDesWKVTzwwAM8+I8HeeCBB3A9l3w+3+9c9feLOI5DPB7HcRz23XdfPvGJRSz6xCdQlhUZh+PVkHjk4Ud4++23iSfi5LK5Ui2LwLj1PZ9UOsVhhx0SXYuB8MrLy7jmd9eQTqVpam4inUqTSKTKPiFYtXJVVAdJVakXh8hk+rj99j9SKBTKDHLdnur5KBb0/97eXtrb2/noRz864muwpcFQ4zTQs3Tpi3z6sE8jFZqoqARFt0gymaZYLGIKk1WrV3DPPXfzgT13x/d8vRKskigd6YM0KndyWbnyq668lmeeeY6mxqZgpablqYUJuVyOnp4uvnTGl5g3b8ea4QwhBKeecjpXXnkl9fX19Pbq2hihERGPJ/Fcl8bmZpKpJKKqAJlQknw+h2lZeK7L6jWrSs0cRhaI9PJ85zvf45xzfljTI1EsetGKZ7/9PspDDz406KWZv/N8Hn30UWIxe8DaIZ0bernrrru45ZZbeOSRRygWi7S0tAThrDqklPi+j1Qe5517Hp875j+HHECGwjPPPMeNN/6eJx5/gpdeeonevj5aW1rwfR/T0uXUw4kzRBRqUgrP85BSUiwWKRaL0aC/YOFC9t9/EQcffAizZ8+OQkOlfVT+rMamCGcoCXfdfTdXXHEFS5cuZe2atfjSp6W5Ddu2+5OQjdIAaRhG4D4WCCHI5/NIKclkMmT6Miil2HGnHTnssMM4/PDDmT1rVtl+Ko3+0ZRt/sc/HuI//mNvJk2aQj6fr9I+ESQSCdauW8MVl1/JCSce2+95Dz0Qd999N5dffgVPPPE4PT09TJ48Bdu2ogJPoYidFXg6fSlRUmGagg0bOunt7dXnuuMOfOxjH+O4445n9uxZmCM0Bsu9QI8//iS//c1veeaZZ3j9jdcRQgShDTPqf+XetvDa+Z6P6+maD6tXryaRSDB79mw+/vGPc8JJJzJn1rbRd2qNf+WP/1DhtHAMkD589atf5fr//T1tbW14rhus7EvwPQ/pufz79WX9QjDDxUEHHcK999wbeJ/tqvFR4nou8+bN4+mnnxx0P9KHG//3Ro4/7niEKUplDPxyb5lg5sxtAaJCjpHodRC78VyXvkyGTCZDoRhy7mT0U1QpGnpFXUU6k8mwcOFCnn766ZFdgC0Q484TEU404U33PR9h656YTCb1h1Sp8/b26ZVwGB+XFaqUmwll/ej4E46pTbyoMdg4jlNzQm9qbsKyLdqnteMW9TIyCkEEQd/B1OESCX2dHNth9qy5wfHLY4Hl7aocZtavWUtryyT9Vg3Og132UDc1NtHa2kpzS3Nk2IEu/hWLxVi3bh0tzW04QQZLaEC4riKfy1NXn+APv7+VX//61zz33HMkkgkaGxsRwsI0TWw7FrRDkkwmWbduXfB9X9cICVJ9h0JkDCl46qnn+O1vf8vixYuRUtLc3Ep9fSP19TosFg4ewhDRd3UbjLLbamAKG1PolXAyAQSK5ytXrOKSS37JddfewN777MOpp57Kwl12wbQMfE/h2JvWBVFtqF115bVcdfVVPP/c8wBMbZ/K1PZp0fkN1R8gkCL2qajVEnMSNDe1giFZvnw5F198Mddddx1HHXkUZ5zxFdLpRH+DQRkjzjKOOQm22WYOibjeX/XzEnMSFIseiUQKFcglCwGmoUMWz/9zKd/57ndZsmQJqWSSZLKOunRDNAEWi37QTn0dXLfy/JVSFf1jw4Zufnbxz7n77nv54he/yHHHHYsQwxttQgP83nvu47e/vYwnnnhCV+Q1TdqnTq/JJanuf/ozAtuKYVsxFixYSDaTZe2a9fz2t5fzx7v+xDe/+U0+85nP4Ho6NJyMW3iyxMcovy39hp8h7k/IjTCqOBIAY6Ft19Y6mVS6npkzZgQqwJUcha6uLhobmqPPV49P5UZLU1MTkydPJZlKYpmap2bb4aJLBN+vLsJYKeBn2TEaG2NlFZFD6yg0tCtP2gz6aHdXNzNmbDOic99SMW7p+6G7WClNqDH6a1gDsOxVbfVuUbEno8Y2TAxFVBzy0GN4HQbzYY24nWXNsm0D3/c5+j8/z8knn8yLL75IW1sbkydNjgwH13XHJL5eLEh8qXj7rdWcdtoZHHDAAdxy6y0opZg8efJG7786pTiVTtM+dSq+lPzp7rs58IAD+O73vkemL7fJDQjQhpqS8M/nl3LwwYdy6qmnsuzVZcyYMYPp06dv9P7LvVme7+G6Li3NLbQ0t1AoFLjo4ks4+uij+de/XgS0UaPJuGqzlFNWUkXegYsvvoQDDjyQZ599lvr6eurr6yPPi5K13dH99lel49LU2Mys2XNZs3o1Z555Jl/84hkUCj5eEDKJaivIymfE9xS5bI4zzvgKJ33hJJ588kkaGxt1SMw0dehIyX6ZXUMh05fB8z3i8TjNTU10bNjA6afrKpidGzZg21ZUZjsWs4PzGJpgPV4ReUBG+ahFisjDxridYoeNcXeGQugVW0NDQz9XMATa7cKPato/9czTeMHTUPQ3ZYGrcY5IgW1kMETlNhSkTrSItn7V/3x4+qnn+fjHP85f/vIXZsyYQVtbG67n0tfXh+sWUMoPLHwZWPyV1v9IYDqCe+69l0UH7M9Nt95CPBFnyuQpTJkypSapdTjnN9imlIpc3/X19SSSSa666ioWLVrEfX/5Gz19maEPshHwPcWVV17FQQcdxJNPPMnMmTNpbW3FdV08b+PF2MrP1TBN8sUCpmNhOhZFz6V96lQef+JxjjzySO7781/xpY9lWvg1+Dsbe/zomgebBBzbIFfw+dp/fYuzzz6bQqFAOp3GcRyKrouSEkMIhGmO2OA2DIO+vgz5fJ76+nqmTZvGVVddxZe//GVc1x10sF2yZAn7H7A/d9xxB4lEgng8jud7+NLH9yuvzWCGRPl5+yiKnosvJYYpsGKaK9HY2Mgdixdz6mmnsWb1GgwDunqyKLWFLbbeAZSun4zqfZRvVdVAyrYqVIynQyhbjnOMy7PypU8imegX89ax8VI8CuDVZcui913XQ73jlSoH6oRjVUBm82BjPSIDYenSFznhhBN45dVXaG9vj+TLpa9DEwMOcqMwIAB+85vLOPHEE1mxciXNTU2kkil836foFvtlr4wFhBDU19cHk4QO60yaNIlly5Zx9NFHc9ddd/czJMayd1x40YV845vfwHZs6urqKBQKxONxLMsilUoNvYMRQClFLBaLeCGO42BZFi3NLaxdu5bvfPc7vPzSy5E43ObCmWeeyaWXXsrkyZNpamwkkUhQKBSwLWtUxkMI6fsoJTGFwBA6zj5nzhxu+sMfOOWU0/AGuIHXX38jhx52KC+88AKJRCISzFNSbVR9G8MwsGwbIXSqYqFQwDJNkqkUbW1t/PWvf+XkU04hn3dprE++IxlCmxv9sncGg9H/qRu5gnDVFLsVaveMO06EIYjYywt2WcDy5W+RSqdQhPFLhRFY4W1TpvDwo49w2x23s/8Bi0jHU8hyluM4QL8BzQDLDOL9hkCqoDpo0J/jiSRS+jiOQ3d3d6QjEUIZOm3JLRZJBJ8dogUVf2VzWU1ilFAsuiSSlcRNFTgItDtU4SvwlYFUQdym6iEUworcy6++9haf+/xxdGzoZPqMbcjmiziWoFgs0tDQgO/7eJ6HGQz0nudhWQInEY8m/XjC0XnkUurP2pWGZhgLtwSc/qUzuHPxXaSClagQAl8aEKQCZ/MFfN+nvr6efC6vibuxONlslnw+X5ENEHpTfN9H+j6xZIKGhkZ8XxKPxxFCX3PPdfEDY8gUAhnUMq6vryeby/Hd736fYtHj6KOPQgidOVDRBUbRdcMsmp/97Of8z2//h9bWVmzbxrZsfF/R09MDgOd5GIap37NtfN/HLbpROXvTMpGy0lth2Ra+5xNLxKmrr8cI7mssEae3txfLMKO+KQxBrljANE0am5vo6OzkjDO+ws0330xrW+OAxNrhQBrBdZKVnKCu3p5oFWkKOP2LX+Gmm25ixowZpNJpsplMlK2UzeUwAy+EkpJ8Po9b5Z2Rvk8imdQ8HkApg3w+H9xj/axprpDEC7I5mppauXPxXVyw/U/5zn9/nULeJxbXWge/+sWl/PjHP8ZxHFpaWvACS6PcgJW+joWYpolUEs/1yLm54PkRGKLEx2lobET6PqZjs379etKpepQwUPgYhtDPZHBO09rbefSRJXzj69/kwot+ijAMzLJ0kvFlVAxvcvalj+FbCBM810MpH6V8fAx8fITS9zA0HTy/SCKRoqenh3QqjaqqEp3N5oMFgUtduq7fIlaP3yWOXj6bicjYtTzp4xHjzoiAEgFv7w/tzXXX3kBTUxPZfA5DCFSFpSeZNKmVn//iFxx+2KFBTFKNMKa15aG3t5dCIUdnVydeFdErmyvguh7pdO1VpZQ+bt7Ftmz6Mn1k+vqGOFrl/vO5PL29vZgm/QyI0SJXUCRiBp8/9lg61q9HCEGxqHPbq125lmWhlMJ1XYrFIoWixBQmmWyGzoAlH656HcfBr1os+EoPjscedzx33HEHzc1tUQw8jFmXwzAMuru6SaaSdKzuYN06j8mTJ2s9hLY2dlmwQF+l0IjwPLq6ulj2+r9Zvnw5K1asIp/LE4vFsGw7YCFKiCarUBjLJJlI4EvJ1772NSzL4OijjozEqMIBfTQCNbZtcvPNt3L++efT2NgYERCLrhbVKl/t2rZNd7dOlzUtk9bWVnZZuAvbbrMt6bo0ra3NFftes2YNvb29vP7mct5cvpz1HR00NDQgLFOTWquuv5ISH/S1AP75z39y2WWX8e3vfEOLI8lgwDXGRojHDPpSa2sr997/AJddfjk777wzuVyObCaj69YIgQwmV08psrkcjuMwefJktpk5s2J/vX19rFy5kg0dHUGGgENbWxt9mT7MwJuis0z0OCSEgWlaNDU38T+/vYxFH/s4Cxfugu/BkiWPc8kll2DZFul0WhtqZlU2lSHwlU8+n6dQKEQptJMmTaKxqTHwLlh0dG7g7bffZsWKFRiGQUtbK+l0WmcTCbMksle1em5oaODOO+9kn//YmyMOPyTylowvA2L4UErhei4x0yafz9PZ1UnRLSIsk2LRxbZ1gcTweU6lUhiGIpVK4MQs8pnKwoipdBLLtMl3Z1m7di1+dAFDIyI0IPTfwlDamM7rz28NGJdGRIh9992XyZMnk81mUQbEbJu860bvKwPq6up44YUXOPtH5/DNb34TyzbZyIXdRmLj3Fmu67PDjjvw6cM+Q3NLM+VWLmgGdLHo8uBDD+LYTk33XWklMo05c+ZUvjlEWKC3q5P3vGeXSF9gINGpgRDGGX2UXiEqhRMz+O4PzuWRxx5l53nzKRZdfN/DNC185UfpdQBSemzo3IBlWkyZOoXmpmamTJ1Ea2srjuOw5557RrF9y7L6EzUM+PEFP2HxXXcxbcYMXFeilMT1fZA+lmFVTFyxWIzu7m46V3Tynve8hwMP3J99992XXXddSHniR7nYF0DeU2zo7uLJJU9x/1/+wt1/upt169ZRV5fUIjOB0JQQoHwZXEvtYbEti29/+9tss8227LnnniO7wDWw/I23OPecc0kmk1HGj+d5gdhU5fXp6NiAlD7v+8DuHH744Xzg/R9g0uRJtDQ3gKEzZ8phB2TQnt4ca9au5d77/sz111/PG28sJ5GIR16jEEJVGhItrS1cccUVHHrYwcyaNQtq6KKMBOX8mtDrNmPGDJ555hn+/Oc/U9dQT3dvD/F4nKLnYglBZ1cXSilSySTv3X139tl7b/baay8mT5lCS3Ol0eR6HmtWr+aZZ5/l2Wef5eabbuXNN5dHISqlVGR3ay0JraXR3NTEsmXLuOCCC7jxxht48623OOmkk+jt69VGSF8fDQ0NFApuxfF6enowTZM999yTT33qU8yfP18bEZMnkU6XhN82dPXx9ttv88pry7j3nnt56KEHWbVmDc0NzZiOGXgh/JLHJoAhDAqFAhdeeCH77LMPbW0tle9vZcaEbdm4nr7G22y7DZ/61EGkUsnIiDCdMjEy4Oknn6Krq4tYLEFXVzeOU2nk9XV109zcxCc/+Uly+Ty+V7noqU6NjtmODnvh0z61fZOd5+bEuNWJAC15e9zxJ/L3v/+NppYWEvE43X1V4kaGpFh06evt5eRTTubss39Ykbs90mfknY5oKQme72OZoSJb8EbwUwI9PXkOPOBAVqxYgV3lzlfKx5eSbCbLZ4/8LBdd+OPSm8O4GKZRymUv14QIIX2i+iaHH34EDz/6CM0tLbjFIsI0tREhfWzbpqOjkw9+8EP84Ac/YO8PfYip7e06PczQDOhkIkFnx/qK/e+88zz2eN8efHCvD9I+rZ3t5s7BtEyUUvT19VFXpxUHw+yN6nDGrbcv5swzz0QpRXNzC57n4vsSz9OejVS80oOzbs1att9ue0459RSO+dx/aq2RoBP4XkkOuxwe2uMRM6A7U6Qh5bDsjRX87prfsfjO2+ns7IzU6swoVVQPPpZtYwpBJtvH1KlTuOuue6ivT0f7Hql4EcBJJ53MXXfdRSqVoi5dR9EtavGoUGSqzBqqr2/kzDPP5NBDDyYetzGEPk/flzgxQXX0S5g6w8WwBHYQuejLu5x19tlcfc3VpBMpbLtkmJWn/RlCkHBirFm7hmOPOZYfX3BOyRM0TE/Eksee4ojPHkEs4BL4gf57KAOvfG2ENjU3sXrVahLJWCRjnc/mAjd1ik9+8pMc+/nPs9tu70EI6Orqo7kx3e94uv+W7sMby1dz+eWX8b+//z3SlziOrY1DU6CkIhN4KBJJrWSY6elm8eLFXHXVVVx33XVMmzYNQ5QE4EKZ8BDHff44Fu2/iIUL51f0N61noNNVjTJysqf0M/rqstf5zW9+w+2334nj2JjCDMir5YsEAb5WXHz77bf5ylfO4Kyzvldx/JHqRNx4o9aJqCWU53kevr9xOhEnnnAKt91+e40UT42urg3ssMMO/PVv9wGVnsVwXAqPKX0tzhXKptdSGT3yc8dwz7330trSRiwWo1CoJOf3dvUyf/587r33HhwbPJ+KcbTf9VOV4/dorsGWhnHd/HjC4bNHHKEfEN+nL5OpqeEet21ampq48brrOfrII3nrzZWYEMlO+77SHmYqObTlqU5bUsqTVWu1FqQ7CCDhxCjkckjPwwhytsMNtD6E1m0QmILSFqxSBtug1OmrDYja0NoQoNnK2jVvoqRBQ0MD3d29nHfu+SSSCUwhIktfKZ9sTser6+vrOfKoI/j9H27kzj/ewfe+9x0+st+H2XHH7bWUeTBQpNPpiGthWVaQrqfPyzTgn8+/yAUXXIjrSpJJLZGs88AFpmmTTNbhOA7JVArPd+nq2sCBB+7PTTf/nuOO/09CT3OYnlfhiSjbBGAH2QD1KQcFzNl2Gj8869tcc801zJ49m/XrO3TcO2Bxh5NlqGBqGP2/FzUAACAASURBVCZvv7WSH3z/+1gCspkcuWx+yKudy+UqCF/PPPMc9957L4l4Ioj75wNDT4cbhLCw7Rjr1q9j22235dZbb+aoow6PDAiUdg44jg5NVPcHJcG2tUfFV1CUirq4zU/PP4ef/+wi8vlcEF7TE7JhWNEWnrttxfjHP/7B2jUbRjGgihITvsyrUt7fTcukp6eHZCqJbVoIBdL16NywgffvvgfXX3sdl/7qEnZduFCPHT401acrUzHLnq9yQ661rZlzz/k+P7/kYmJxG8/3cRwbN+DKJJMpYrEY0teCVYZhctJJJ/Poo0toaGjSIbm8C0rgutrgWbduPTvttAO33HwT3/jGf7Fg5/kl4zxoj2EEBoSgYtKyDP3ndnNncfFFP+HH551DIZvBLeaxzfIRLozLJ1HSoLmpiVtvvZ2engyFghfwY0Z6LzY9wmwbiUAaon/2hBo4CyJ8LJQsLXbKDQgAD1W2EVRd1p6cagMCQJgGrlfEsYNQqeg/XlbDskTUQce7AQHj3IgAOOjgA9htt91YsWIFyWQymESMYAsmCSUwMIk5Ce6//2/8v/3240tnfJXXX38T0wDbNKJBMITn+eRyQw/a4w3Dczxt+owRGbRj2bJlPPzwwzQ3NeN6LplsFtu26O7upqenh6OPPprFixdz1lln8d7d3juyg6jKp/jSSy/lrbfeoq4uHbn1w3YYZU9zT08PPT09nHzKKVx55ZVss+00XFfR1zfy/qCqtu22354bbriRvff+EGvWrImMhzCt0A2ULk0hsGybu+6+m3v+/H/U1yVIJIcmYsVisYpUzcsvu5xCoUAqnSKd0hN5mCJoCCPy4MzadhZXXnklM2dOwxCjN5hNYeCjB5bDDz+cM844g0KhoEmWVm2jM5FI8O9//5tnn312dAcdBNWejFBRc8XKlRz7+c9z++23s+deOmQkRjFr2pbWWfjkgZ/gnB/9CN/zyOVyQXVhv6wujm5LKpWK+ldoWFmWhe/7JBNJ1qxZw8lf+AJ33HEbO+y4w0acucYhhxzC977/fdxikb7e3op+Xo6QiH3LLbeQjFvEbGv8Tw6DYPi3egyvQrlluxVhq+gnX/nKGbS0NJLP5ylf9VZa3fpU29rakEpx/Q03cPDBB3PscSdx5x/vwXNVRcdyLJNkMj50Zwtnhy0IFdkPhqjYhsZQKahjY1iEg2tdOk1rayvFYpGw+uXatWtpbdGx8gt+ci5Tp07FtmsX6Br6OPrnn+75axAaqCvVqxgg3WtDRwennXYaPzr7e8Ekm8e2jTFJ+YzFbCZNbuXKK69k9933QEo34qFI39fSwL4mWsZiMZQ0+NnPfo7rUSJtDQIhSvf5tdde48GHHqSxsZFisciGzg39Pq+UwnM9LrnkEmbMnBq0I6iLEbpmy7chEH6sqCBumpx00knMmTOHvgH0LwqFAol4gt6+Ph544IGhD7CRiMVi9Pb2ctppp/HTn/yEeMLSvA5VOzQ15P4coT1FeY9DDj2Yzx55JG++9Ra2bRGPJxBlpCGlFI7t4LkenuthW9q1VSgUsCyLFStWcNppp3HeeT8CCBReNw7CMDj++M9z+OGHI5WqMGq0B7f0t23ZPPzwwwARwbL/CLplQ5anXo5qXB5ofNNXQBfMK201Ue3+DTIGdQ7N+EzpHwzjoV8MiY/s92GOOeZYXnvttco3lAjYsboDKKXV+kwhqK+ro6uri9tuu40vfvGL7LXXXpxwwsn8+jeX8+DDS+jLFvH9GiuyLcxgGHvU6thj19nLQ02aKe2Ry+ejtKdVq1ez3Xbbc9NNN7Ho4/sBgSsd+sWLh4Pw/l1yyS9QShG3Aw+ELwMjq3Jm/Pe/X+fQww7jh2d9l6KrC3ElglQsewwUJYWhXc6tLY388pe/qNAlEKYZFfUKywU7js1DDz7EH//4J2LO0I+r67qYlonv+Tzx+BOsWrmKdDqNW3QjA0P6Mpqguru72f+A/fnQh/YCiCoahu9XKysOBU8qBHpizBZdWloaOfroo3HdIl6hsmCUUlq7QCrJ1CntvPbv10rPlzIqCLUbgzDEKRR0dHTwsY99jJ9ecG7U58KqsGGYYEDUeK/oKopuEEIT8PX/+i/mz58/qNFkOza2Y+usAFPQ0NBAV1cXBx9yMP/93/+NUprvNdp012pYAv7r61+npaUlyHoKUj2lX/KEBT+feeYZXl++YosMZYyLsTfyNIxfDaCRYqswIqQPP/zBD/js4Z9h3boOhGGjfBBKYGBFm2k6gQVpEoslSCXTTGppxTYtOjs28I+//Z2zf3AWXzjhRA5ctD+f+fThnP29c7j6imt57KEnWPHmanK5Enu6WJClgaWsg7uuT7HoBTHOsT3XaoXIkXI2DMMMNi3DXNnNq0hXNdYgJS+Hzq+ufjgqY+YGJnoTGJiGgWEITPQmFPhuAeUVMaSimMszb96OXHvt1czdbm4kFSwDfoFZowJkdC0MI9AIUdG5GUIPoHcuvpelz/+TlsYmPM9HeRKk0vr+mBgSvEKR9WvWsvseu/HLX/68tG/TQAWhLl+VYq9hCH6g4WEgB1V4JQ1gzqyZfOPrX2fVypURsTKZrNN6A0pQLOg89mQqzl1330mhOPRAZNtauti0TB74xwMIU5DL5nRcPqjCKaUXGQrZXIYvfuk0QBMogbJ6DKXrG52XqL2F91wE1ykRj+E4NhZw2CGH0FjfoDU1pKyor5BMpXGLPkIIXnrhFbq7MxH5bTi6QMqQKENqb44hETpaTnRnfA/bFNimJqtuu802nHveOQAUCvmaBlJl9kJ/3kEICVi2gWkZxOM2voKGxjoOOGAR2WxvWUGmSoReQRVwclavXsfcuXO56MKLqK9PYRhBOXpZm5NUc59UDuahR8iy9dVon9LKJz7xCTI9vfiui1Bgm1ZFeDMej7P8jTf45/PPD3ygaoTZXEaNsWMMhJUqxicDlDQCo09G169iKyOZyrL+G42XVVvp+dW/iWCs0v+I/tbjmECoym2gczSq/kWvR+OvSXUxyPGKcZ3iGcLzdfnc3/3uKk46+XT+8IdbmDFjBp4rEaaoWNGUF9PRxKTKS9De3k6xWOTNN99k2bJlPPnE0xiGEa3idthxBxobm5gzZzazZ2/LbrvtRnt7O5MmlVLBhCGQSC165JeyGbZshNdIVP0sf2+w7478BIUwsWw7IJxpyeBzfvQjZs+aAUDB9fqJZQ3ehiooPTHeeOON5PJ5moQx4KloAmcdPzz7bFIJO2ifUTLMwhWGGtsl2meOOILb77iDJx5/nHQ6jWWZFS5wgFQyyf1/+QtvLF/ODtvNGnR/YeVXwzBYtmxZVHchVIQsl0zuy/Sw8/z57LJgPlJqHlA4sIUGxEhRXbUQoK2tiV133ZWHHnyQRCwZvW6aZhRSklLSl+mju7ub+npdLGt44bdB2gI4gTiY4zhkenr5ygXn0dLSQq7gkk7Gx1x51TThsEMP5eabbx7W55OJJJ2dnXzrW98inhh78SHTCLheBuy1115cftmVOIE3zrZsikVtOUa6FqbJK6++yv5q0bDCVxOg0pBQRjBWCLZm70M5tgojIlSMMwyLyy6/lEQiydVXX01TYzPxhFYLFEJEE0KJbBVYk2UoFFyU1NX/wmJP5RyDp59+mmJRxzPT6SSe7zFp0iQWLlzAggULeO/uu7Ld3O2YMnUSvqdKE9HmMiSUjvWH7e1fKXE4O6luaPnfY+tasS0bLHjp5Zf44umn89H/9+GI4KqFpUZCguqPJ596hoceeoimxkb6+jLEk7V5DYVCgUMPPYQPfuiD9PbliSfCCqGbdiSNxx1OOul43UbHKUtx1IYVviCRSLN23WpuvvlmvvvtbzCY6GpYubSnp4fXX389qmZqBKEYKUuGdVdnF8cfdyKer7BtQ2e6qFoGRPUqc/goFCUxR7DLggX8+c9/prG+qd9nwhRT6UtWr1nNjBk6f34s3PmWZSGEoKu7i/nz53P0UUfqYwWbECML1wwFAUyfPp1p7e28/sYbxJzEoJ9f/uZy3ve+9/Gpg/aPPEGbCnvvvTczZ85kw4YO0nV1NdVqbcviySef1CE/jHHnqlZKRt4VNchzMjAGXxANazyIqtGW9jPeruNIsFWcW319GsfRUqY9PVl++YufcvHPLsSyTXzpaSU6zw3c7yWEegThJpXU+fNKYlqa2BZW9QtRl25g2rRpAUFTk+06Ozu5++67+d73vsdhhx7OokWLOOOMr7D4zjtZt259lJ+8qepNjB4DEYjGCMNwZ/b09JDNZpg6ZQpnnPFl/CDPXalSyumIDhkOIMGp/fnPfyaf05LYqWSSWudXKBSpr6/nxBNPxDCgLh1HSj+StK7AGDOse3t7+dCH9manHXekp6enX/ZMfX09juNgWxZPP/10cI5UnGM5wtz81157jUwmE3l5QoQ1SHzp05fpo729XVdN9cDz1RAGxMjheh5FV9HY1FQzRS4scha2sbu7u+IcNxZKKeLxOG7R5bDDDoteD93/m+KZbGttZMbMmWT6+vrdz3CcCfkY+Xyeo448inzOGxWxczgwDG3MJRIJdl6wM2vWrsUwDLK5XNlnStyIZa++CujU93cnqoOUW8U0ucmwVXgiytFYn8T3FJ8/5mgO+MQiLrzwQm6++VbyuTzJVDKYTFJkspmoPkA5LNNCKhllC5imGW2gY3KhKlks5gB6kK6rayCdrkcpn+7uXu688y7uvPMu0ukkH/zgBznssMPY7yP74bkesZh2l29MrYBNhaEeF9XvE0O1v4xXoURNo2DDhk5OOeUktt1mSulbYnjtqTyOXomUC3D97W9/w7RMUqk6enp6MarUmqSU5PM59t9/ETvttJOuVwGYpoVtW/0Ktun4ZigcULsNwaGHhaaGOlxf8dGPfYzf/uY3QfvNiGiQy+u00lQ6zbPPPsuLL7zKDjtsh0EgnFO1P8vStSwWLlzI4sWLScRTyGB1Fm2Bp0oqyfTpMwMOhEIMK4Qx2Kxbur9hu2zLwrQMZs+aRXNTU0WIQotDSQQCIQQ5NxeFHv1ACrx6kq+2S0vnVCncEf6WzWYpukU8z+Oggw7qL2s+1OkOerb6apT36b5snnQyzuzZ2wQkWRl4eIJUYkwtcy4s8rks7e3tfGS/jxBPWLiu2mjybq3bJwDH0s/gttvMwBQ6a8MUot/CSpgmhhCsWrWKKVMmU62Iu+VgLPJFqvtyWdi75vGGTsUTkbd741o2nrDVGRGg3aAmFlOmTOKCn5zPkUcdyeWXXc59991Hb283hUKB1tZW8vl8zUqghtL1BGRA3qlEqXdEA2J5h6kiy3R3d3PXH+/i4YcfZsaMGXzuc8dy1FGf0cdSIMYFX2LTIZlK0pfp44jPfrbi9bG4JMtefYM1a9aQSCTxPE+HlqK9V66ADzzwQGJOGTNkwAYMNomOnBtS9Hwcy2TXXXfFl7LfylX6EkMYgezuBl555RV22GG7QfcpTC1e9b73va/i9XACjTwZgb83LAG98RmFwz//sH5NLd2SsRR1M00TP+ez84KdmTZt2tjteACEoZmWllZMy+p3fuV/Z3M5dt99VxoaGoCxyf6pRrXR1NTcHKUq13LNm0KQy2bJ5XL9FCfHD4bjXhrYgJjAyLBVT1+mZaCUz+7v3Y3LLvsNi++8nS984URmzdqGFSveYu3a1XR3d5LN9uH7Pr7vRw+5MHUp3/Jwhx74Bk/bqVZQa2lrY9LUKbi+zzPPPcs3v/FN9t//Uyx57Cls2xjTATM6vpBIQwZtKP99bI81zBaVthp1OTZ0bGDhLgvZfvvtByyVPBKEg7gh4PEnHmfVqlWk0ylc162Qdw6Rz+eZMWMG++yzN9n8QEHp6vs9mHbGUGldla/7QVXMPffck8ZgMtHt1xkmOi1Zh81y2TyPP/54FMfvR3epwYORfmnTtb/6lzE2DEZhQAwvhU1nymgxrfJ2hUXAwnMdCNXs+pEiFouRyWbZZcEuxBNDr5mUoSq2Gp+o2kLo87cCz+L06dMjQbNy+FJnokhf0t3dxW677UZ9w+ar5tje3k4iqcmttXQOLNumt7dXF9nbqlfTA3kyhhqExsIDsnVhK7walQ+3JpLpAeg979mFH/7oLO65526uuOIKjj76aCZNmgTAqlWrWL9+PZlMJtBkDwdAo3Lwi4yJ4aG7u5dCwUX6iilTpiGE4JGHH+GIzx7BN7/xHd3iTWYEv8PW9RDFvEBzAhbsMh/HMQdZ/Y8Or7z8SlnJ6/4kMqV0zYJ99t6HxsZ6knFN5FTRv/4prAq/7P3qf4O9p/qFRkCv/AAaGxpYsMsu/doHaOVDqYjFYrzyyisEFdX71xYzKque5nK5fimCQhjRFk3wm3myCJ+fsAhYRASODJzhKqsOjVgsRjaT0Z7H3CZmLiKjzJqWlhZsu5qhLyIBOKUUuXyWGTN0JpL0R6eDMlI0NTXpdN8Brq9lmuRyOXIBX2J8KR1sTCtrZaVNYDjYKsMZGtqYiMfjEXkL9ECbSMQ58MBFHHjgIjxf8dKLL/Hoo4/y4osvsmTJElavXs2aNR2YpkmhUMBxHGKxGI7jRN4JM8j4sEyHbC6LxMeJxTCx8T0fHz1g2ZaF5/oIYZPL5ahrqCdZlyabyXDNtb/jxRdf5PLLL2fylJaNOtvQyxDJVhjBJmQQSK79cA35yIxmLDfKvmcM/WDvsfvuEZGy+pOjfaTzOY+lS5eSTCYDQSMfgRWQXEP2tqS3t5fttt8Oz1dksjnq6hNl7R3NgFSdKlv5t6oSFnEsG4lWPpwyZQoPPvgwba2To+unlIf0Jfl8nkQiyarVq8hmiiRTDn19WdLpUsqkLk1tRr/H4/FB71+58TBwQaTq8xgZDKEZ/prELCIPSyj2NVJWQj9GTqQJImq65wuFAvF4nO23337QWi/VXgcZlnKuap/o93fU0YPv+UgEfZmeyKDQ5xmKEyikNLAsg3Syjmnt06LPhMZF9fltDKL7GexWShlpktSCaVnE4/GaJNh3AtH9HnIcCu6XKvESxGBpTP2OEIbiRtbPhSozPwZyXDGMZoxjbMVGRG3oh1SBEggTbGGwYMFOzJu3U1AvI0cmk+Ff//oXTz31FMvffJO1a9fw5vI3Wbt2LevWrSMej5NOp4nH48RigadCadd4c1MLrutR8PKBR8MsuQ2VwPU8hBDU1dWRTKV47LHHOPjgg7n22mvYbvs5gzV99DBCQ2LLQ0tLMzvsuOOYeSFCTQ4hBG+//XYgvuSXBuiyQVlX8mxipx13IhEzcJykJugZpSe/ehAf/gq5XJpTRH9XeLGiVDCNxoamivtU7u6X0seyTHLZHBs2bCCZmhJpP5SjPEwwtui/qh4tQlKnEAK55S9vR4FKvk258JJWi5S804RFFUhgDyjdHH2u6oVxMRmOplO9e3QdxhpboRFhVP1eGSNWZcQA3wv4D8LAtHS1P8tKUV+fZtr0yXz8E1p2OZ/TdQf6evt47vnnWLZsGU8/9TTLlv2b9evX09PTg2EKWltbyeRz2i2L0qzssrUKBF1Vyiiff8rUKaxZs4ZjjjmGO+64g8lT2jbq7BXhKkpGP0FEhoSk5KXY9Bg8Vq6Uvkbz5s1DAF5wTUYrXgW6zK6pTFavXs3atWuJxRL4vo9p6r6gqoyppqZm3rPrroD2hHhKVK56+hMPRtGqcjGaqvZKraopgcmTJ5cOKxTKL01GUipM06K3t5fVq1czfcYUbNseRVs2BiO/J1G2RlloMPRC6IJcWlrclCbCFEFlURirSTYqNhaEbob8fFkITunci6pPDNSucu/VaA2s8tXwlmn0jy+888bauwFboRExfAhh9HPfmpaB9LXolGEYOI5FPOHQntDph9vvMFeXkpVae/6xRx/nhRdf4J577+Wll19mxYoVxGIx0ukk8Xgczxt40pFSksnlSdelee211/nCyV9g8eLbK96vRQYcDipJlFvWoFQi/0mKbh7bLnf7btxqQBg6zfC1117D8zwcWw2ofGgYBi0tzTQ26AydQlFiWlXEqX63b2ytL98DK0gQamzsL8Sk2ykCsTRJNpuls6sTGBsxpgGxidyw0pdIpdOiNSdCGxW64JcMDGxNQDTHYHgKeRZApNcyrO+NuB+OdCU70PP4zq6GS6nA78ZV+caF7t6t2OqNiGr3rtEvcFXlrg5Y76GWQ819ChAGCGGxz3/sxT7/sRfHnfB5PE9x4403cscdd/D4k0+QyWRIxdPEE3HcYpFisUgiUR7DllhOHE9Cqq6BB/7xEBdd+HO++tUvoxT4UteC0NCGwHBjpGF9go02HqoO148rOWhzBmAyK30eXV3dbLf9XIQwKHpuMIFvHHxfYZoGHR0dUZEhU5TklRHBylRoTfzVq9ew84I9EMLUdTeErsERFuYKr3e/1MsReSRKg1N1wS9fgu95UXpnS4vmxpQ4AwTt0PtwXZe1a9aO4NiVCO2pnp4+6uvTWmTK06ESUzsGqK7Ymcu6kcetL5uhUCiQyWYpFAq89dZbNY5S6iSe61NfX89zQT0GH4kRGERKnxhKGCD0zxLZc5jWS1g3oxoq1A0xiPphOVcn/NiAOw7v2VDtKOe4CPoruoqq398hAadhXk4lZUUlzC1G7yC4d4KS3lvFUF6znZt/4RQ1Y6DbPC7DQ4NjqzciNiXKF7imaSGE4vjjj+WkE47lgYeXcOWVV/J/f/k/TFMglXZHV0OYOlZvCINEIs2ll17KIYccwrbbzgwqKVankY1j95zSeXp6ldP/6akmsY0GZqAEmMlkKgi1oA2H8GqGRkUmo6stVk9a1dUNB8v3Hz4q1SOVUvh+WLtAp3Km6+qClaCeyUvhABOQ+L7f77xGgmLRw3EsHNvRv9sWpqX7lPRh3boOXTPmqSdZ9uoyVq5cSVdXD+vWraO7u5t8sUCxqNU8XdclmRyAiBpM7J6nSCWTCNPECYqDVRS4MsJMkRLp0jA2vm5GiOp01ncEqtyYDsNlW45nsBzlomQTmMBw8K4wIqoH7rGClBIljUioJ2RuF4qSD37w/ey51/u5644/cf7557Ny1cqopHQIvfrVCpim0CWBOzvW8ctf/pILfnI+jmONuY7EloKwUFNp5SkQGMiNXKmFq+nOzk48b+iUvmSyMrsBKnkzkSiSHAMjwvD7EdmqPWWhngNRdoBVpk+i0yJd140qbY5U38EyLfK5IvFEUKfDgKeefI7777+fpUuX8thjj1MsFikUinieSyqVwhRa+j0WS5BI1QEi8JRInQFSkYETpnnon74PjuOQzWS0B0KGz+PoiGwj/UZpRb1lLPmEYSCDTJJabSq9tmW0dwITGArvCiNiU8EwDLzAXW6GKV5ALp8n7SRREg49ZH/eu/t7OfWUU3nyySdoaipV+wwZ914QI06lkijZyG233cb3v/99nOa6TX4Om4ctUX6EAaYBwx+zlkgJvX29g67YoyyJSKbWCLQKqrIbgl3090SMwhugjFI4xQjd7aVJbiDDREkVeb1CUTTP9wLjdWArQu+z8jVf+sQTDj09fdx+2+3ccMP/8tJLL9Hb10trSyuxWALbtkkmk5GBHNaYkb7E83XaqWEIDENQKGhp55qGRHB+nuuSSCaRvk+h4I78um0hGP60XkUoNmSV9+EdirlHfWHL9IJMYHziXWdEDLUiGa4XNdyPKSrlggW6fgdA4CVmmxmTuf7GGzjs05/m5ZdeIp6IYxgGlmkFxEu9Kuvt7cW0HFaufpObbr2Fk086LthrGUu/qh3VWRYGBJVJ9RZRKoLXBLJfDamRJO7VOl7/D5X/XiniopQWZZIyzIkvP3q5HyIQWuqXlz9E+6ReyadT6Qr1xtBoiL4feRb86HBCCU2oM0qfNMLwUfWJDndGqYrXD5gyGhozkRx09InSDwMs24rIttroGbzPRsZHUKcl15fjoot+zdVXX01nZyfpVD3xeJK6ugakLyOhNWFYAdlRp8s6jqMrYkodUvE8Dykl8XiSiknTKBkSUko8qTAME9f1o5oz1eevVTS1xLwfSXxJzGGE7krud49oOFMiMEpBYgYZSTJ6qxylaT3oJ8ExS0/acCdcfZ9Mw8DAwDQMTEPnZpkEil7KGAVhc2wRGsn6p1FWdr48i6XkJRkyxTO8oKp6oSC3IELF2MGIxo1S+nUp9MnwKTRbESZM0o2EaZmDGiZ5T2+JZILLLvsfGhobKBQKtDS30Jfp61eO1zJN6urqeOSRRype3yh3bEVMdguBIRnrsuKgvRDlpMehYuvlg6YhVNnfqvRalfT58DdVuf+N2aJ9CZ0SKcyAMzMwlFKRCqJhGNz0h1vYY489OPecc8lms8yYvg2JRApTmNooUEHqsSGIxWLUpesi48H3fQqFIr6vZZvj8TjJZBIhiDwVJU6D3nThOj2xe+5m8kBsoXooQG0C6ObCeA+Ljqj9W3Af2ArxrvNEbG7ELcgWFPGYwbT2aXz6sE/z81/8nO7ubhoaGvCLVbLKSlFfX8/jjz/Ohq4emhrqtph47qaACBQNpSGoSZ8fzT6rSZJlAk/VYYOuzq6Kz1ZmXYhgXxuT91+JocSrKomcVd83JJ2d68j0ZaL05KGiKsIQFIsep59+OjfddBPJZJJZs2eRDYosVZd7NgxdqrpQyEXOGrfoks1lKRZd3LLy6EKIoNhXDTd9OGEauoKlbVuk6+qwLVvfDwmhDPRIMN45QoZRpuBZ87neep/1CWydmDAiNjEKRUk8JpAKXM/lmGOP4bbbb6Onp4e6uv6cB9f1iMVidHX2sGLFKpob6xm3y4h3YFUolcIcpEIkhBwD/Zk5cypVQmXVrDxWWQIhquuuVBM2axI5y1awqVSK9mlThx126+zq5IQTTuCpJ59i+vTpmKZJNpvFsR09iRl+xX2ybZtcLkNvby+ZbIZ4LEVTUyOzZ29LY2Mj06dPp7m5mcmTJ9Pc1EzRLQ5w5IBYqQyampt49plnHHE91wAAIABJREFUuPXWW4fX6LFAeE7R5d7UfXFC8XAC706MSyPCdTWZ0Zd+JFT0zqM2RdF2hC6WBKSTDnWzprPn+97PbbfdjmWYOE6YsaG/63sedfX1LFu2jJdfeokF83egcoAaXqw24j284+7dzRtKUVJhmIYWLVKq36QN2lAQUrBm7Vq+9rUzOeGEY8HQ9TZiscpHYkwEK2vtr1xeoOIDNV4fZHFabkzoNFEoui6xmM26dR0cdeRRLFmyhKntUykWi1img23FgiJXEulL4nGHXC5HoVCgp6eHZCrOR/b7MB/64Id4/wfeT3t7O9Pa20d1vhIwBTQ1NnL11ddEZa83D0Lv1mj64Dv93GwiGOXjyMCKshuHcrG20JgbKcdkIJS1f6jwUJWs/AQ2DcadEVEouJEQVC1meqgmaVpGkMI2tgVtBsfQuQ5Kwty5c3EcZ8BqoKFSZU9PzyZo49YNHZeH1tbWqEJmNVRo1QFdXaVwhmn1VzDtt/+x7j4D7W8jjhOL2fie4vTTT2fJkiVsv8P25HK5oJx4ZWElYYpANGo5M2bO4IdfP4vDDz+MtjYtv66lqaHCqtk8munjEALK+taWi03lMdlMC4ZNxi3ZVEbV1o1xZ0QA9PVlSSWTGEKL55RDZz2YUV2MkJC2pUAB733vrsRiDiIg8GmUHj7f97Askw2dne9IG8cWZSuegKG+KWGZevUxbfo0HMfp9351LHrt2rXRoL/leLVGDyl1OOfGG2/kgQceYGr7VHK5HK7r6swLw8QoM656evuQvs9XvvZVfvjDH2CbFqCNWN/3kNItY/AHGMrS2mKMjFDUbGJy2FogDT2GKmPijm4pGHdGxNH/eTRLHl/CzJkzteJfVdpYX6aP2bNmc+cf7yCfKxKLOWxpnIK5222H4zgDxuyl8hGmMf49EUOuGMZ+0g7nt5bmlqgsthAC3/OjypHlCOtQ9MdAxSPGui8NJ55RjsEncKkkub4CP73wp5okKSWO7eC6Lr7nY1XJuQshuO666/h/H9kHCXhuHtuyAYFUfuCJKLuPg5SVj9pnqHfOkAgr1kZ9rzKFcQKbEapGWGOLxUT/GC3GnRFRKBTo6uwiHo+Ty+UwTbvf+z3dz7N2zQaampuCSWVzDGjhQ1I5+VQf3gd6enrwpcQU5ez0IBUPiVBgGQKr5opvbB/GIfc2mjmzPMnCGGAVWDO/vFbtgZHD9xRTp07Gtm0ymQwNDU0UpRfwAHRBLolHOp3gjdffGGAvwxW/H2ts3P5t2+R31/yet956i21mbkPe9cgVXQzTxrYcbMuit68PJSU9vb3ceeedfOAD78eT2msnLAsfBaqIUUvIqtow/P/tnXmYXFWZ8H93q7337uwEIZqQMCqbqKAOoAICbkMAeVjUD3HAx1Fw+HQcGMdhJMM44jKOwoCOqAw6bFHRUUHhAT8mEcISFkcIJAgkZOm9qqvqbud+f5x7b62ddFenNzi/PCfd1VV177nnnnvOe973Pe+7j8khzkBRF5tk3M+HOREm7XsS6JXnLBIkAF0TMjZKXX3Gq2eEmlKmil73MzL1Tu75ju/DRHN/aJXkg0KbyDJFjPO7YqLMdfGwgaPedBTdPd20t7fT1dVFd1d3Tenr65OCxvAwljVX1KoVfC9g+fLlJJPJprk0atTts7mvfKbZTysVIQSGqdHe3s6iRYvw/cqgpesyXDPIXReWZfHyyy9TKJTj71aYS4+GzkTtzYGAH/34R7S3t1Mql+K/R32qVCrR0dHByMgIX//613n7sW/GMqRwpaE1BAfb+8nqPzOX2kyhmAxN8r8oJsS8e+rXrFmDbduMjIxQLBYZK47VlEw6Q6lU4sEHH5zlmgY0XVVWe0c3FRLGs9/OwYBR+2QfWoj9imxvz5dbDlOpFIcddhiO4yCEh6EbJBIJfOGHsQ00TMtkcHCQhzc9LCNdinqhM/Lury76LJSJ89jmzWzZsgXLspqG/bZSSXbsfJnDjzqKD593NlE0CtPQ8EJNTY0gEeylxG1UVc9g+v1eJkRNdk/lE/FKIdI0CK3S1arLvhF1hSY/FZNhvs1KvPa1r8XQDbmibDIZOY6DLwS///3v9xmIZzYwTYMXXnge27b3HsXvlaSFGC9d8zR0v4SVQAiBL3zWrFmD67px+GvTMKWfQJhmW9d0fN9nw4YNBIEMfCWFif1erXGZSkbOZjz11FPs3r2bVCpFZ2d3TVbGyHRWLBZZu/Z0nABGCqVYVPI9b787Ic/+MziTFdhf2xgVM8esd9B5z7zr7atWrmbZsuWATnt7O4Zu1RTbdlm0cDEbf79RbscbRyEwa/iw7dltuGWbdDIVxtivFMd1ME2TQASsWrlq6ueb7GosqCsN709a9B+HSajNJ3ncyHny8MMPp7e3F7vsohs6Xph2OwooFYV5fmzzY3LjSPUuxhkSJiLtRxSe2veCvZYIx2ke5OmZp58llcxgl11GhkcatAeu66JpGu973/uwNMjl0niEFmvDqApfbYTpx1vXikClTccKY3Ha8/1KjVakGfuo+3SND0GT886mc+FE8jq8CmjU80X/iP8flznvHDo7zLtWMQyDgw4+mMGhwThZUDWWaWGaJi++8CJPPPG/s1DDveN5gvvuuy8MOdzoZJROpeVAr2usXLVy/5x0XK2GXjWAznZX2D/nHx4exLZtLMvgDW98Az09Pdi2jaZplMvl+HORINHZ2cmmhzbx/J9eRDcInS8rx5tOYUIGxBIEorK9dG+aAL0qEqemaVLLUle37du309bWhm7oMlV9UFscx+Xggw9m8eIFNXOnDAq1/2cZX4DvwlhxrKb9X3nsY8eKmoDmEc2EP3X/xmPetUwioXPySScB4HlyZVMdItj1XBKJBPlCgZtuumlW6rg3EkmdRx99lEwmE9e/GithURgrsHz5cg56zUEzXLt51x3qCOjo6CCZTAKQy6Y4/vjjcT0bz5W+EfX4vs/o6Ci//vWvZ7qyscYkyoGRz4/R39/PwMBAVRmKy549/ezYsQNN00JByWoI2RDlBolMN/XYtk1PTy91GzenDdOQgsQf/vAHElZj3A6FQjG/mXdbPNHghBNOoKOjA9d1SSRqN/EUCgXa29tZuGABd955J//8z1fNUkWhmf7w7rvv5elnnqYt10YymW6qjSiOFXnLW44mk83s/xqNm/hnhgj2zzbO8ai5Ng1OPvlEbrzx+5TKpabBp1KpFLquc/2/X89ZZ55FR4fMZzKR5Fb7g1gDocPf/M3f8POf/7z2A9UrWE2wYMECfve7+8jlcriui2XVbnEujBXCcPBWU02d77oI4VP2AnRDYxqUDzXoplSEbX5sM51dndN7MsXemRWt4/59iOQ24anUX2eydTKM+b64ml7mZescsHwxbzv2GFzXJZtLgyYolgoEgU8mkwIEyWSSkZER1q378gzZAiPjarUnv+yuUaLEfKHM9f9+Pa7j4jgevu8TCC0sAYGQK0jbtlm7di2JhBmr06NSb9MztNqiAwYBhhZgoIXFiH0utEDI9zSNTDLdeBn1mxHqiqbXlnpfZ6FV/az2ogbEBPwgtIabVX+GeqeNaqN2Y8bNt7/9WI4++k1hJsmqCTe0pUe2/6efeYbvfe97NMuuXb3ab7jeff7be5aCyM9hdLTAhg0b4vpExfddUukEmUyKcrnM6tWrSaVSCB8M3WroH7lsDoB8Po9pmg39o7OjA7dskzA1DCrxGyq5Vmp9XarvY8PmlQng+bDh9w/yh2f+iD+B4A/VfaYZ9dcT150wxoTQa0okNI+bSG0cX4HKMyZqSpMaU31npfNq6MgqNIJAq3Jsla9FnaNrLdPrxKUJHS0APdDRAh1NaGEJZEG2YxTTo769WzxpHC8mMiNGZsNA0OD4W/PVIIi/roU7qGRd6zqmCEBMtN3G95Op/6ttS0E8YSWa+vQkrEQc1O7V6nMy74SI6KauXbsW33cZK4wBxFkJfd9HCCG98U2Tb3zjG2zb9uKs1VcHHMdHAHesX8/999/P4sWLSSQSDdETAQYGBliyZAnvPOGdlEvjZUicbA1qacjNMe3xk2bPpqhpcP7556NpWuVhr8L3ZH/p7Ojghhtu4KUXd6LrIPyKoDSdiEBQKtpsemgTW7duxTTMmpLNZdE1nUw2Q6lY4rRTTwPA8z2KpWLD8ZLJJK4jTXqpVKrhfdd1yefzsQA6E9x+++24jvMqWtHty6Y+C8/DbDmX72uX2UQikM0ivufjhVGR0+nGRVepXMZ1XAjkmPFqZN4+1aecegorV62MwxYnk8kaIULXdZLJJMVikb/8+F8C4Loz32FtR5BOGvzxf7dw1Ze+hKZpWJZ0/mymbh4aGuKss84ilUqRSu9/G7Ku6Xieh2maDAwO7PfjzzU0HU499T0ccshKdu7cUZVQqoJlWrS3t9Pf388Xv/hFXC/A8wTTsZmg4dyWgWmZfPPfvhm+tuKSTCYxjQS+H1Aq2ixcuJg3v/nNCB8SCZNcrtHctWTJEpm9VNOa7uCwLIs9e/bw/As7mq6rNS0s4b+psmHDQ/ziFz/HNK2mwdUUirlMJptBCIFt2+OmKRgYHGBgcGSGazZ3mHdCRDJp4bo+lmly7rnnEogA35c24MhjPcI0TVauXMlDmx7iExd/akIRLKdmwWs8vpXQeWn7Lj59ySUMDg2xYOGCWANQLDauJA888EAuuugiTMsknx+bUm3QBEHQKB4LITAMg3w+P7XjM/c7kOsGGKbBBRdcgGVZDc6smq6RyWbQNI2+vj5u/tHNfPWar5JI6kxszpt6C/z2N79l06ZNLFy4GF3X4wJS1SuEYPfu3Rx66KEsXrI4ziQabQut5oADDsAKBdSRkcaBLZ1OMzIywv3330+xWBEyJq6VqDWojTewRlx99dWMjo7S09M9pxLhKaaDeRbUq6brNn+Ou7u6MQyDUqlIodA4HmcyaXbt3MWunbuamkInXJW9mrjmNnN9DmiKZRloOnz0Ix/h2GOPZXh4GNd1cRyHbDYLEG5vC7Btm67OLm666SY+9anPAOAJcH0olsO4AVV/i15P9HFwY8dIDcdz8QTYroftymM/99yf+Oj/+RjPPL2Fvr6FuLaPZUa7B6RznGmZOK7Dnj17WLt2LYsW92IaBqlUqsEHYV8EAlLpBAe95qAq6VleTSRQRNqQ5557jkceeZIgaMyGOh4CcDwXx3NrQutERdMqPyN7tCyhfTpM1a1XvQeVFNt67MchS2OUgvEcNppjmRqWpXH66R/k+OOPZ6B/QEau9P3YTl4qleIz9PUu5JprvsZXr/nXsEFrNVjNb0Hj7vNmKuv4VdU48dKLO7n88r8jlcyE9aktiUQCz/fo6uri7LPPxjLN2OnTaDJqHX744XR2dWLbtvSdCERNcT2Pjo4Ovvvd75LLyHYIquzf9Wj1/7S6gk6paGOX3fD+gm072LbDRRd/kmeffZaurm4KhbGZHSBjO3y9aYFpVu3XmS3mWhKqyLygVY9y+3viD485bkTeSVDvHNMQ92aS9a93oxK6LECzZ/bQQw8lCAIy2SyW1biq6O7uxvM9fvnLXxII8D1p1hA+lIr2xOsFcUj++cYc6NWto+lw2WWXoeu6HDTTFRtwNGAFQYBpmhx88MFcd+11vP8Da/nT8y8AkEnJTmHbPuWyQyuZoK3Qzi6AhGlh6pC0TAh0/vtXv+Gkk97DU08+RTqdqVmJVW9LjVTPr3/D6/nMZz4TX9tUUlMvXrKYocGh2JGpGtM0Q+m6xC233IKmS/X4RNDD60yYVgt+zjOPEwpzug6f+9znWLhoIaOjo1imhd7ERt/e3k5bWxtXXnkl6676Mr4PnlsRsKZyvfHwF/6ybduLfOxjH2fny7sxTZNUKtUQYXJoaAjbtnndytdxxhmnxwJEEFQEr2pe/4bVHLj8QIQQTX0iTMMgmUzyyCOPcPOPbyNhGrHZw2vh4jQdMtla05tt25x33nnccfvt8jOaFqYVf5Uajeccc/2p3RfTXf/KuHDYYW9keHh43O3Jw8PD5HI5brnllvhvjuOhG8RbzSd81nnqMzQ/a13FW495E1dc8bcMDvaj1zvsapAfK+AKn7FSkRUrX8eGDRt417vfzTVfuYb+gRGKZY8gCEilZCeZbIOUbDfOTxfxv08/w1996lNcfNFF+J4XJwVzm9iokykLz3PQNI11675EW1t6SlsLo8Xe0Ucf3bRTauGePsMwMAyD22+/nV/+4rfx+427DxqjzLt+gOsHDdc9t6gIkSAn7te/YTWf+cwleJ6DwIvveTWO55HJZcm2t/EvX72GtWedxQvbX9pvw5Zd9tE0uOOOOzn7Q2ezceNG2tvb0XW9zodBtrqmy3Ddl156qYyquRcBAqTj8RFHHIbr2U1XgsVSiWQySWdHB9d85Sts+9N2LCuBH4Cptxafsrq/bnroEd7//vdz7733snTp0liAePUgan+vvgdzKpR9lbagukz1qFW7a+rH4rmQUqVBebmPSJ6HHrqa3t4uCmMFtCaqYMuS/lQvvPgCV155FZomF2TjOsVXaUGqd6ZodZrZ+cTcnQMmiPDhIx/9CO8+8USGR4Yb3s9ks9JG7HkYus7y5cspl8tcffXVHHfccaxbt44nHn8cU4eS7U96sjAMGSy1ZLtseuQxPn7RxXzwg2v5yfr1pNJpunt6cFwHyzKbOpZ5nsfg4CDr1n2Jt771Tfj+1HYEuJ70CTnyyCPp7endR90NyuUyn77k09x91337PHYkNOzevYvdu3fFmoiaDZhB5WftqlqE297k7/Xb3KZL051Mym2dkeb/go99mPPPP5/BgcGmMTosy2R0dJS2tjYWLVrE5s2bOe3UU7nsrz/Hlue2Tbk+Dz70IH950Sf4xMUXs337dlasWIFpycBQ8W6ZKsYKY5x22mm884Tj8fxgrwIEQMKyOOecc8hmsgwNDjX/TCJBW3s7u3fv5oy1a3nwwYdqQmpPFk2Hhzc9ymWXfZYPfOADbN22le6eboZHhmsEiKgfvPKpU7Frda9ng/k3N00/E2iTtrY2Dj10NQMDO5v6PDiOg+/7ZNIZrr32Wr761a8DNMRvaTCjhVtcPU/MWzNGxLx3ly6WiiSTSf7t29/izDPPZPPmzSxYuICybWPbcqubYVgkUxnKrocvivT29BB0dzM6Oso3vvFNvn/jDzhk9WqOOOIIXv9nf0ZPby/Lli2jt6eXBQu6ajqboUlhY6C/n9HRUZ7ZsoUHHniAe377W0ZGRiiVy1iWRVdXLxoa5bJ0njRMHQhIp5IMDw/HjnM7Xt7B5X97OWef/SF8nwk6841PNGmuXr2Kk046ifU/+RnLDzgAx3GwbZuEVavizmRyDA4McsGFH+eUU97DO995HKsOOYSlByxDiADXdejv72f79u30D+zm7l/9mt/97v/xjW98naWnnTq1ylLZ4aXXzGFVDV5vRx73wY/eCBo+KDNThr4XOlx11T/y8s6drL/jDpYtW4bjOOim1Er4rkc6ncH1ZTIqw0pSLpf47o0/4Me33sKfv/0dvOUtb+HYY9/KAQccwMK+HjllCLmSj/AECD/gpZde4vk/vcjv7r+fjRs38simh7Esi2y2DdM0KY4Vw3pp5LLt+MJF+ALTNNmzZw9HHHEYn//850L/nhLZTN2OjPotcoHGqkNW8e4T380vfv4Lkskko6OjmGHHMk0DX8icIel0mh07dnHmmR/ife97H2d/6Gze8fajpRAoagNuRUqtQqFILpfBtl1eeukl7rrrLjZs2MB9993HWGGM7u7eWNtlmXL/fhT4aiLzmB7IMnf8y/Yl0Ufv7zuGBLOtu9MA/H1oHFrTSNTHEYl+r7/aSBsRvT8FX8SJ1avudUPra7XvNHze0Fh7xl/w6GOPYVngu0GNKVrXpXOxrpskEikuv/xy7rn3Hs4991ze8ua3sGjRImzbplAoUi6X2bFjB7t27eKhTb9n/R3rOeecs/nCF66oOmPj+DXXmfdCRC6XwXE8ero6uPXWW3nve0/j2WefZenyA/C9gGLRRghfThSGju958RbQjo4OTCuJ73k89OCDPProo5SKJXK5LF1d3bS1tTXYlRNJk3KpRGFM5gJ48cUXSSaT5LJZkskkyWQSPVwqBlWJGCI11eDQINlMluHhYYqlIpdecimXX/E5efD9NHAWi0UymQxnnHEGd6z/Ca7rYtt207gUQgiWLl1K0S5x0003cdvtt9DX10c6m8Fx5Pds26ZUKkq/k4SJ7wva29vDa6w9XvS6oomo1jr4UiCvek+2UWR2mJkHRzfge/9xA5l0mh//13/R19dLEAhMy4pXBaZhIoIAQ9fJZrJYloVt29x1113ceeeddHW1s3z5ckwzSV9fH+3tMsiTZSUpFAoMDQ1RKBTI58fYsX07Y2NFcrkcqVQKQzfi8NTRJUcDUyBk6O7tO7azfPly/vWb/8rCRQsplUtk0hOLYGroBp/97Gd56KGH6N8zSHt7O77vYxgGjle7rTiRSJDJZvjODd/h9ttuY/WaNaw+ZDWrV6+mq7uLhQsW4LoejuPgei7P/PEP/OlP2/jjH//Irl27GBgYwLIsUqkU7e3tJBKVLKpA7OB5yimncOedd05/4I05iZD3OYh0d3NGQlLsA8PQ+MhHPsoNN3yHfH6UpJmquXvxc4wcM1avXs2TTzzJJy7+BEuWLKGjoyNcwLm4rk8hP8ro6CiGqVEqldANPUx0N3+Zh0JEtawoB6REwsR2HXK5NLevX88nP/lJHnjgAZKZLOlEGuFrCD1ACB8/jAqiBQJPCHzPIZPN0tHZjuM4JBIJHMehXC4yMtqoDs6PjpFKp8hl5YSwdMkSmf0w7Eya7xMEAb7vYJhmgx0tk86Qz+fxfZ8v//OXOf/D58arvonNoftaJeixmv6kk07k9L84ndvvuJ0Dlx/I2FjtFiVN10hZCUCQSiVZfuByRgsjlOwyJbuMJ3xM3cA0jVhosCyL/v5+nCmov2dmK1hdJEutVsLXdPjyv3yZ7p5ufviDH5JIpeVgoFcGBc3Q45WGZVpYpkVHR1u4b7zE1uefx7U9yuUypmHQ1tYWbzGOjpHNtdPZ2UVXVzcge2wgAnwh+4nAk7sygqgvJxgaGmLx4oV87WvXsGqlTMImHUErxx2PUrlIMpFkxYqD+Oz//SwXXnghaIK+3oWMjIygm+GAFehomk4qZeG5LiteexCe67L1uS089ujDiCAgk04zODgSx6ywLBPhudh2iUw2Q19fH0uXLsX3/FhoiPqe8EUcs+Uf/uFKent7WL9+PWZD6PH9Y4ufOwjk+roSpTH+eyxIzAWi+k1NcI9Ma9HP+uS+NXqYObC4nmxP04FMKsEll1zCBRdcwKrXrkLTK2ZYHR0/8KXW0jQolUt0dHTQ2dVJuVRm+/bt8jn3QQQB3V099PT2gCbYtnUbpmHGz7WmzdxCan8yD4WIagRCSJVS0kqQHyuwoLeH7914I+vWXcUPvv8DhOtjWQm5QvI1ROBX7PNBbXyJfD5PLpcjEALLNDFD4UBuXZObDzs7u8MwumE4XUPHc21s18X3pArcDIMF6bpeI6kC7Ny1i0NWreLKf7ySd73rOECGPtYCbUr7jKs7X1ubzP8ghM9fX3YpDzzwAP39/fT19TU4/DiOg2VZOJ5LqVSivbM91tRomiYzTQoRbgUMQodMEyF8bL9WhT9+1aLBtP4CI+cuxnl/f1GrRi6XHFLpBLlciiv/4YssXLCQb//79bz00kv09vWRTCZl//AFjufFjk8AwpV+E9lcTnpfCw3TMNANA+H7lMtlGefBMCDQa3YkaLqGGd5kYUdaGL1m3Ni5cydHHnkkX/v6NaxZc0jluxO4Sk3TyGQy8aB11llnMjg0yBVXXEE6nZXbRavqEwSCZDIdZjmVg5yVSLB4yRLpEOl5LF6yLIzFIhOG65oWJzKLBCxNl6HVo5p6ngzp7nkeV199NX9x+qn86pf34Pv+fhtw5p5rRaRlkGbLWsYxY9Q4M865CwIa27mZIileBM0xmsnbk/Vb9EIz5YfPO4f//u9fsPGB38s5ourg0RgfBAG+Jyj75dipXW7T1zB0Oc94nodhJmVEWsusc36ffwIEvAIcK6Mb6CP38upAWyrJVVdeybXXXcuSRYsYGRqkNFZAQ6AJgfB8Al/IWARGAtfx8D1BLtsertBMdN3CMBJomiHj3ftyIPVcH9fxcBwP23bxPR9NM0klM2Sz7eTaOsiks2gY8nO2jaHrDPT3U8jnOevMtfzkJ3dwwvHHxddgmJMRICYeJ8EwDVasWMG1132LbC7N0PAQY8U8VtLAtHSCQKq45TXoZLM5hBuAr+F7AZ4rQARhrP2whDkEtMBHeG4lBn5QbaaomCt03cAIJ1Xd0NF1+dMIf5fOljTdijp1ohgUtZ7P1dsRPd/jrz51Md/5zvW86agjGB0ZYmhgD5oeYBigB4JcJk2xkAffw3ddnHIRp1SSbaNpeL40l3m+j2km0XUrXnFqmokMyqTJAabs4LmCRCJFKpUhkZB9bGBwD8VSgdPe+15uv+NW1qw5ZNwwug2xGuq8uqVwKwf2Cy+8kK985SsMDw8yONRP2Q4DnGlCxnRwSmh6gKYZJKwUpmHhewLX8QCdUmmMUqmA45SlScNx8b0g7h/Vg6kvfBy3TP/Abnp6u1i3bh1nn30mvge+8LCdkuw/QSUXhe94+I6L7zr47vj76utzhEToBjhuGdeR5jrD1GQJdx8lEiaaFuC6st778safGnp4H3Q0XaNYLJJImlgJS5ZwwVIfI2UmMXS5pddxHQzdwDBrS1RHz/XiFAMwfpwaTZfPvY4USoXnIDwH33elNlYLaspUEcLFFwJfeAjhVu53WNKZTLxdfX9tKY6WQD/60c0sWrSA/oHdjBWlNtnzHfRwO346nSSdTpNMJjF0A9M0MU0TXdMJhBTsCQzKJYdyuQzQ1MQ835gsZGCyAAAOSklEQVT/V1CF8AW260mnNuCkk07m3nvv5Qtf+AKdnZ0MDw2xa9cuALKZDLphxN7icsUtO51u6JWiG+ihDRtoePilVkN+Vwgf0zBjJ0bfFxQKBUZGRnjb29/Ot771La697lv09vbG6t/pxjRMjjvuHVx37XV0drQzMjJCuVRGCIHrunJwFX58DZqu1Vy/EUVQDFfbpVJJfq5OwzIeNYGmtCCcsPRZG0TrscIw2G9+85v46U9/yuc//3kWL1nCzp3S3q+FD3l3VxeZbJZsNkUimYz7xN7aIPYJCfuGrhtxJlHHcfA9n6GhIXbvktEo//7v/54bbriOdErG6G+aDGySbWZZBueeey7f/va36e3tpVgsUSiMUC6VABC+j+95uI4T3teoz+uhgCeqrkVGh420DK4rA0xFe+iLxSIjwyO884R38p83/SfnnvehhpVfdUROXdcxLVOGgQ9/RivzcRNmxW0rSxQiXH7fqOq7lfYzTZNk0sIwZ76/6bqOYWhxMS0d09KxLAPLtPZ9gP1M1M6WacW7guqLaZihf5dVmyhrHDm/+hmQ96JyP+vH0qmSSCRIJEwSiQRWIoGh6zXFtks1UYur3NLk6/DfRKmf43/2s5/x1re+ldHRUUZGh0hn0nEofS/0t4Na7UQ1VtTfzQSWac3LCJX1zHNzRi26oWMZmow+GQYIMk2Tiy++iHPPPZfv33gjP/npT9m2dSt/fPppujo7ybW1xQ+VH0a5jNS1EE2CMnJfIPTav+sammagaxV1t+2UGB4exPN9spkM73jHOzj/wx/mtFNOjIP5aJoc3GdCDeh6LgnN4vgT/pw777yTyy//O+7+zd3omh7HJwAI9MgZVCBEUGXX1EL1uB96Ict4BkEQkEkl8EStirD+mSiXy5TLJRzHlxOT0MJJNRFL47OJpsvgMLbjoRsGl33mU5x33nn88D9v4rbbbmPrlmcBGYQqlUqBVvHOlgOGXjuxa5VBRKO2vwBYpsHA6DC2bZNOpzn4oIO58OMXsHbtWjmpGgau5+HZAQnLmnL/8L2ARMLkgx/4IMcecyxf+do13HHHesYKRfQoKmq4OgbiZ0BDC+9ldVRRTWZ4rHpdKo3R399PKpVixYoVnHPOOXzsYx+LV4OaVtsnSqVSRUCJfE/0AM/1muaS2ReRIGwaJq7l4tjhsxsJI7p0Do4G95mmVCphGF6chMvQw4lDE/F27Jkkaufo3F5dDA/hyzwR1Yucycitruviua6cUHWBU7V90Q93PE2F6H5H53Hq7muxOCbrHxAuVqZ0uga6e7q59dZb+ad/+idu/N6N7Nq5K052l0ql5HU3lbYEBDq+I/u9KYjH0UBI4UbWdfYXVpPlFSVEQMWGpesmju8zMjxCb08H3Z05Lr3kk3z6kk/yu/v/h7vuuostW7aw+fHHKRQKjBUKmJZFpipTm1QLG1imKZ0n9aDGMSoQAUPD/TXn7+js5A1vfCMnnXQSJ598Mq8/dBWeqNRL+JUVkuf7WPtBOt8bpmHGE1Fvby8/+OF/cM9v7+f6G67n4U0PMzo6KoWEsO9G11/ZghWai8LJpVjM093dQ19fH8WyQzK59yRho6OjWJZZJ0QIEgmL0fywbFP2vfKcTuTKxoyFvIV9XVx6yV9xzjnn8Otf/oq7776bJ598kv7+fjzPxjTl6lcIn0ymrekx5QTpMzw0RLWvh2c7LF6ymOOOO453vetdvPe975GOVQJs20PTiZ2tfC/A0Kc2qESrb8dxWLR4AevWreO8887n5pt/zD333MOOHTvwPQ/P99E1jWwuh2kYmPX73MNrGhyqdTZOJEyOOeYYTj/9dE4++WQWLVwUnzMIBUxRJUWMjo7WCBGGYZBwE7iuW5NLZqKTTbFYpFgsSk1imBFVHiAU5jAojOWbZjydCUZHRzGMsC0Dg0RC+ttYlsFYscBM+0KMFccojhWJQt/XC/LCFziOQ6lUkr5aE7gP1Z8ZGyuSyRRxfBddN/Dsig+W78uQ61OhUBhjbEyO167n4dUJnrZt44UC0nRoOqMowl/4whWceOKJ3Hzzj3l88+NsfnwzgQhIZ9IkQh+8al8qiQjDvwtMUydfyMu4OVS0fXNBOztZtOCVoE8JCYKAYJybMN4U9YennmHLli08/PDDPLPlGYYGh8jn8wwNyZ+e74SDesWDPgop3NbWRjqdpru7m9VrVrNmzRreduzbeM1Br5lQsq/ZoFS0SWdkONYnn/gD//M/G3n88cd59tlnKZfLDAwN1nzetKRtb+HChSxbtoyTTz6ZlStfx8qVq+T7dQ1bvcJ86qmnZBTGWPBqTNhkmBqHvfGNoM2NBygKlBVhaFIA3Lp1K0888QQbN25k69atvPDCC5RKRfIjdQGiAp18oUA6lWLhwoXSPmoarHzdSg4//HCOPvpoli5dypIli5qukqplqZkYVO666zds3LiRhzc9ysDgAMWxIi/vfBnbdmjL5fC8WkfcZcuWYVomh6w6hCOPOpJjjjmGFStWkElnxjUX2LZLqVji0Ucfpau7C0M3EHHwsVDTocnXBxxwAN1d3aHZq/F49f1ndKTA0888LYU6X8QxKiIs0yKfz3PkUUfGMVSmlyjjo8bmzZsxdAvDNCpOtIB8DuRK/+CDX0NXdwdCiBkx8fX39/P888+j63rsQF1N1L6HvfEwjHAnz776YfT+c889x9BIbVI/vep+eJ5P4LsyE214vfXs6/of3vRo0/pGiECQy+VYvXpVjblxOtt11849PLb5Me677z4e3vQw5XKZwliBUrGE67lYpkUqnSJhSW3Fa1+7kqPedAQrX7eS449/h9RuVkWtnG+8ooQImJxcX/34BEIGDPI8n3w+T/+ADCZVLBakk1aoMSiWiuiaSa4tR3dXNz09PXR1y9Wo71WCRfmeXIVNs6Jh0kRhk6F2e1YQgOsKtu98uebziYTBokWLwiBbbhyJLfpus6RNE3pwq+JJzCXP7nohQogAXdcwNBgayZPJpElaJrbrsX37dnZur22vYqmM7/m0tbWxYMECenq66OjoQNMgXyiQy+akeSx04q9/+mazLVw3YNvWbezZs4d8Po9hGmQz6ZrPLFu2jAULFpBKJ2q0anszzTmORyJhxn0v0rxE9up4e2A4kO7tmakerqTZRY/PG2mR6+vhOF7oRDgzA7QQHrpuxnXa2z2Nw5iPIzRNJ82e0zhMvC8mLERUs7fgTn4AWlAx9zVjKm3QrK2nU4io72++F2CYGuWSw/DwMPl8nrHiWLzgzKQzpNNpDNPCNLRKv63b6THfeFULEVLjXDtwOY4X2oj1vQ5oUYeJTIfV3/c9n2QyiS/8KSXRmi6kwCQ91nVDr3gz++MLPVG71jsqGeNoEKQfhYhXnFFAlchsEX1nrglZkRDR7Fn2/SB2vjUMc6/bW4VfJaTVJc2qjgRZz0wLEcWxMpmsDKg2ER+dqN5CBHi+R8KyYsFgX9+r0bLEQkRt/4mFknEmrobhKpC+G5ENv9osVm2bntnnUG491zQt1LSM/8nqPjETVD+X1UTtFv3dMIxJ7xwIggDH8xE1ER0rFy9EgKkTOyI2Y7xJNKpuEC8+gpr6VtdhoskE9ye+F8TXWl3HatMeVO6z8MM+Xic8KiFiDtBKMJH61Xn1ykaIWiFDBhqy0TSNVCqF43gIX8STsev6uI4bD8xziWYrtUgYivBErfQuHU3lwFD98EedfTwhAmpNG0GTSDOx0+oc10RUHAkrE58VqmBctzrugvxiFJHSFzLdeNS+5ZJDMlUfU7+2XWayLar7vfR78UPvfCOemOW1VL4zViySzWRq6hmZyOr7Uj3RQDuVa2y2aqueR5ppIaJJZbodmYMgwPPl1slIE2HbbhxyXBJVVlZkqu3RCs1MCXFbRs9r6EQ96WNT+/xUn0YIuUV8bxPlZCfR6ns/0wJZdH7Pl4vF4aFROrtkUD7fk0J2ZKKIFqUVXx093B5bO/0qIWIesq9gKhMJtvJKY0Ir0gmqCWfCJjldVA+o1TsS9vZ+dY4OaKJxaJLrovrvs91O9fUN6sTy8SYfoKmNveH4szhoTndfnMwEHLezNrPtMdH2n69OfoqZ5xW3O0Oh2F9EmphX02BaLzxqkwglM5GV62y25XSf+9XYXxQKJUQ0RFHTJvf+K5F5GsN9TlCXo6Ox/4z3ecWrijl+35UgpJgorwLlvEKhUCgUiungVe8ToVBMhVeCY5RCoVC0itJEKBQKhUKhaAklRCgUCoVCoWgJJUQoFAqFQqFoCbU7Q6GYAsoHQqFQvJpRmgiFQqFQKBQtoYQIhUKhUCgULaGECIVCoVAoFC2hhAiFQqFQKBQtoYQIhUKhUCgULaGECIVCoVAoFC2hhAiFQqFQKBQtoYQIhUKhUCgULaGECIVCoVAoFC2hhAiFQqFQKBQtoYQIhUKhUCgULaGECIVCoVAoFC2hhAiFQqFQKBQtoYQIhUKhUCgULaGECIVCoVAoFC2hhAiFQqFQKBQtoYQIhUKhUCgULaGECIVCoVAoFC2hhAiFQqFQKBQtoYQIhUKhUCgULaGECIVCoVAoFC2hhAiFQqFQKBQtoYQIhUKhUCgULaGECIVCoVAoFC2hhAiFQqFQKBQtoYQIhUKhUCgULaGECIVCoVAoFC2hhAiFQqFQKBQtoYQIhUKhUCgULaGECIVCoVAoFC2hhAiFQqFQKBQtoYQIhUKhUCgULaGECIVCoVAoFC2hhAiFQqFQKBQtoYQIhUKhUCgULaGECIVCoVAoFC2hhAiFQqFQKBQtoYQIhUKhUCgULaGECIVCoVAoFC2hhAiFQqFQKBQtoYQIhUKhUCgULaGECIVCoVAoFC2hhAiFQqFQKBQtoYQIhUKhUCgULaGECIVCoVAoFC3x/wEkhWxXWDOg1gAAAABJRU5ErkJggg==;" parent="1" vertex="1">
          <mxGeometry x="1493.62" y="897" width="137.68" height="72.02" as="geometry" />
        </mxCell>
        <mxCell id="1OezPi1NgcVtdhWN8k0L-32" value="" style="shape=image;verticalLabelPosition=bottom;labelBackgroundColor=default;verticalAlign=top;aspect=fixed;imageAspect=0;image=https://miro.medium.com/v2/resize:fit:770/1*2QYim4bJ9LyO1pziQNJXMA.jpeg;" parent="1" vertex="1">
          <mxGeometry x="435" y="787.27" width="103" height="86.51" as="geometry" />
        </mxCell>
        <mxCell id="8PrslKJGBhRI_ENk29VD-4" value="" style="endArrow=none;dashed=1;html=1;rounded=0;opacity=60;" parent="1" edge="1">
          <mxGeometry width="50" height="50" relative="1" as="geometry">
            <mxPoint x="253" y="965.26" as="sourcePoint" />
            <mxPoint x="245" y="207" as="targetPoint" />
          </mxGeometry>
        </mxCell>
        <mxCell id="8PrslKJGBhRI_ENk29VD-10" value="" style="endArrow=classic;html=1;strokeWidth=1;rounded=0;entryX=0;entryY=0.5;entryDx=0;entryDy=0;startArrow=classic;startFill=1;endFill=1;" parent="1" target="1OezPi1NgcVtdhWN8k0L-15" edge="1">
          <mxGeometry width="50" height="50" relative="1" as="geometry">
            <mxPoint x="92" y="468" as="sourcePoint" />
            <mxPoint x="467" y="302" as="targetPoint" />
            <Array as="points">
              <mxPoint x="92" y="345" />
            </Array>
          </mxGeometry>
        </mxCell>
        <mxCell id="8PrslKJGBhRI_ENk29VD-12" value="&lt;font face=&quot;Courier New&quot;&gt;GitHub PR with dataset update&lt;/font&gt;" style="text;html=1;strokeColor=none;fillColor=none;align=center;verticalAlign=middle;whiteSpace=wrap;rounded=0;" parent="1" vertex="1">
          <mxGeometry x="131" y="540" width="110" height="30" as="geometry" />
        </mxCell>
        <mxCell id="8PrslKJGBhRI_ENk29VD-14" value="" style="endArrow=classic;html=1;strokeWidth=1;rounded=0;startArrow=none;startFill=0;endFill=1;entryX=0;entryY=0.75;entryDx=0;entryDy=0;" parent="1" target="1OezPi1NgcVtdhWN8k0L-23" edge="1">
          <mxGeometry width="50" height="50" relative="1" as="geometry">
            <mxPoint x="95" y="575" as="sourcePoint" />
            <mxPoint x="373" y="736" as="targetPoint" />
            <Array as="points">
              <mxPoint x="95" y="628" />
            </Array>
          </mxGeometry>
        </mxCell>
        <mxCell id="8PrslKJGBhRI_ENk29VD-15" value="" style="endArrow=none;html=1;strokeWidth=1;rounded=0;startArrow=classic;startFill=1;endFill=0;exitX=0;exitY=0.25;exitDx=0;exitDy=0;" parent="1" source="1OezPi1NgcVtdhWN8k0L-23" edge="1">
          <mxGeometry width="50" height="50" relative="1" as="geometry">
            <mxPoint x="557" y="427" as="sourcePoint" />
            <mxPoint x="128" y="571" as="targetPoint" />
          </mxGeometry>
        </mxCell>
        <mxCell id="8PrslKJGBhRI_ENk29VD-16" value="" style="endArrow=none;html=1;strokeWidth=1;rounded=0;entryX=0.5;entryY=1;entryDx=0;entryDy=0;startArrow=classic;startFill=1;endFill=0;exitX=0.5;exitY=0;exitDx=0;exitDy=0;" parent="1" source="1OezPi1NgcVtdhWN8k0L-32" target="1OezPi1NgcVtdhWN8k0L-23" edge="1">
          <mxGeometry width="50" height="50" relative="1" as="geometry">
            <mxPoint x="591" y="705" as="sourcePoint" />
            <mxPoint x="591" y="633" as="targetPoint" />
          </mxGeometry>
        </mxCell>
        <mxCell id="8PrslKJGBhRI_ENk29VD-18" value="" style="endArrow=none;html=1;strokeWidth=1;rounded=0;entryX=1;entryY=0.5;entryDx=0;entryDy=0;startArrow=classic;startFill=1;endFill=0;exitX=0;exitY=0.5;exitDx=0;exitDy=0;" parent="1" source="1OezPi1NgcVtdhWN8k0L-34" target="1OezPi1NgcVtdhWN8k0L-32" edge="1">
          <mxGeometry width="50" height="50" relative="1" as="geometry">
            <mxPoint x="594" y="823.49" as="sourcePoint" />
            <mxPoint x="594" y="753" as="targetPoint" />
          </mxGeometry>
        </mxCell>
        <mxCell id="8PrslKJGBhRI_ENk29VD-19" value="&lt;font face=&quot;Courier New&quot;&gt;tag release&lt;/font&gt;" style="text;html=1;strokeColor=none;fillColor=none;align=center;verticalAlign=middle;whiteSpace=wrap;rounded=0;" parent="1" vertex="1">
          <mxGeometry x="102" y="598" width="82" height="28" as="geometry" />
        </mxCell>
        <mxCell id="8PrslKJGBhRI_ENk29VD-20" value="&lt;font face=&quot;Courier New&quot;&gt;build images&lt;/font&gt;" style="text;html=1;strokeColor=none;fillColor=none;align=center;verticalAlign=middle;whiteSpace=wrap;rounded=0;" parent="1" vertex="1">
          <mxGeometry x="421" y="705" width="60" height="30" as="geometry" />
        </mxCell>
        <mxCell id="8PrslKJGBhRI_ENk29VD-21" value="&lt;font face=&quot;Courier New&quot;&gt;push images&lt;/font&gt;" style="text;html=1;strokeColor=none;fillColor=none;align=center;verticalAlign=middle;whiteSpace=wrap;rounded=0;" parent="1" vertex="1">
          <mxGeometry x="562" y="790" width="60" height="30" as="geometry" />
        </mxCell>
        <mxCell id="8PrslKJGBhRI_ENk29VD-22" value="" style="endArrow=classic;html=1;strokeWidth=1;rounded=0;entryX=1;entryY=0.5;entryDx=0;entryDy=0;startArrow=classic;startFill=1;endFill=1;exitX=-0.016;exitY=0.428;exitDx=0;exitDy=0;exitPerimeter=0;" parent="1" source="1OezPi1NgcVtdhWN8k0L-27" target="1OezPi1NgcVtdhWN8k0L-15" edge="1">
          <mxGeometry width="50" height="50" relative="1" as="geometry">
            <mxPoint x="723" y="343" as="sourcePoint" />
            <mxPoint x="491" y="401" as="targetPoint" />
            <Array as="points">
              <mxPoint x="484" y="247" />
              <mxPoint x="484" y="343" />
            </Array>
          </mxGeometry>
        </mxCell>
        <mxCell id="8PrslKJGBhRI_ENk29VD-23" value="&lt;font face=&quot;Courier New&quot;&gt;dvc push / pull&lt;/font&gt;" style="text;html=1;strokeColor=none;fillColor=none;align=center;verticalAlign=middle;whiteSpace=wrap;rounded=0;" parent="1" vertex="1">
          <mxGeometry x="579" y="214" width="60" height="30" as="geometry" />
        </mxCell>
        <mxCell id="8PrslKJGBhRI_ENk29VD-29" value="&lt;font face=&quot;Courier New&quot;&gt;deploy preprod&lt;/font&gt;" style="text;html=1;strokeColor=none;fillColor=none;align=center;verticalAlign=middle;whiteSpace=wrap;rounded=0;" parent="1" vertex="1">
          <mxGeometry x="876.7" y="584" width="235" height="42" as="geometry" />
        </mxCell>
        <mxCell id="8PrslKJGBhRI_ENk29VD-30" value="" style="shape=image;verticalLabelPosition=bottom;labelBackgroundColor=default;verticalAlign=top;aspect=fixed;imageAspect=0;image=https://skaftenicki.github.io/dtu_mlops/figures/icons/fastapi.png;clipPath=inset(34.33% 0% 40.33% 0%);" parent="1" vertex="1">
          <mxGeometry x="1485.46" y="599.63" width="147.15" height="37.278000000000006" as="geometry" />
        </mxCell>
        <mxCell id="8PrslKJGBhRI_ENk29VD-33" value="&lt;font face=&quot;Courier New&quot;&gt;preprod alias &lt;br&gt;on selected model for load test&lt;/font&gt;" style="text;html=1;strokeColor=none;fillColor=none;align=center;verticalAlign=middle;whiteSpace=wrap;rounded=0;" parent="1" vertex="1">
          <mxGeometry x="1032" y="492" width="146" height="30" as="geometry" />
        </mxCell>
        <mxCell id="8PrslKJGBhRI_ENk29VD-39" value="" style="shape=image;verticalLabelPosition=bottom;labelBackgroundColor=default;verticalAlign=top;aspect=fixed;imageAspect=0;image=https://aliesbelik.github.io/awesome-locust/assets/images/locust-logo.svg;" parent="1" vertex="1">
          <mxGeometry x="1359.46" y="531" width="104.93" height="63" as="geometry" />
        </mxCell>
        <mxCell id="8PrslKJGBhRI_ENk29VD-48" value="" style="endArrow=none;html=1;rounded=0;" parent="1" edge="1">
          <mxGeometry width="50" height="50" relative="1" as="geometry">
            <mxPoint x="1413.99" y="617.63" as="sourcePoint" />
            <mxPoint x="1413.46" y="575.63" as="targetPoint" />
          </mxGeometry>
        </mxCell>
        <mxCell id="8PrslKJGBhRI_ENk29VD-49" value="&lt;font face=&quot;Courier New&quot;&gt;preprod&amp;nbsp;&lt;/font&gt;&lt;span style=&quot;font-family: &amp;quot;Courier New&amp;quot;;&quot;&gt;load&amp;nbsp;&lt;/span&gt;&lt;font face=&quot;Courier New&quot;&gt;test&lt;/font&gt;" style="text;html=1;strokeColor=none;fillColor=none;align=center;verticalAlign=middle;whiteSpace=wrap;rounded=0;" parent="1" vertex="1">
          <mxGeometry x="1269" y="598" width="139" height="24.5" as="geometry" />
        </mxCell>
        <mxCell id="8PrslKJGBhRI_ENk29VD-52" value="&lt;span style=&quot;font-family: &amp;quot;Courier New&amp;quot;;&quot;&gt;prod alias&lt;/span&gt;&lt;br style=&quot;font-family: &amp;quot;Courier New&amp;quot;;&quot;&gt;&lt;span style=&quot;font-family: &amp;quot;Courier New&amp;quot;;&quot;&gt;on selected model &lt;br&gt;for prod&lt;/span&gt;" style="text;html=1;strokeColor=none;fillColor=none;align=center;verticalAlign=middle;whiteSpace=wrap;rounded=0;" parent="1" vertex="1">
          <mxGeometry x="1245" y="492" width="300" height="30" as="geometry" />
        </mxCell>
        <mxCell id="8PrslKJGBhRI_ENk29VD-54" value="&lt;font face=&quot;Courier New&quot;&gt;deploy prod&lt;/font&gt;" style="text;html=1;strokeColor=none;fillColor=none;align=center;verticalAlign=middle;whiteSpace=wrap;rounded=0;" parent="1" vertex="1">
          <mxGeometry x="879" y="615" width="235" height="47" as="geometry" />
        </mxCell>
        <mxCell id="8PrslKJGBhRI_ENk29VD-56" value="&lt;font face=&quot;Courier New&quot;&gt;prepro api&lt;/font&gt;" style="text;html=1;strokeColor=none;fillColor=none;align=center;verticalAlign=middle;whiteSpace=wrap;rounded=0;" parent="1" vertex="1">
          <mxGeometry x="1506.46" y="636.91" width="116" height="24.5" as="geometry" />
        </mxCell>
        <mxCell id="8PrslKJGBhRI_ENk29VD-57" value="" style="shape=image;verticalLabelPosition=bottom;labelBackgroundColor=default;verticalAlign=top;aspect=fixed;imageAspect=0;image=https://skaftenicki.github.io/dtu_mlops/figures/icons/fastapi.png;clipPath=inset(34.33% 0% 40.33% 0%);" parent="1" vertex="1">
          <mxGeometry x="1479" y="723" width="147.15" height="37.278000000000006" as="geometry" />
        </mxCell>
        <mxCell id="8PrslKJGBhRI_ENk29VD-60" value="&lt;font face=&quot;Courier New&quot;&gt;prod api&lt;/font&gt;" style="text;html=1;strokeColor=none;fillColor=none;align=center;verticalAlign=middle;whiteSpace=wrap;rounded=0;" parent="1" vertex="1">
          <mxGeometry x="1504.4599999999998" y="760.2800000000001" width="116" height="24.5" as="geometry" />
        </mxCell>
        <mxCell id="8PrslKJGBhRI_ENk29VD-61" value="&lt;font face=&quot;Courier New&quot;&gt;frontend app&lt;/font&gt;" style="text;html=1;strokeColor=none;fillColor=none;align=center;verticalAlign=middle;whiteSpace=wrap;rounded=0;" parent="1" vertex="1">
          <mxGeometry x="1504.4599999999998" y="974.5" width="116" height="24.5" as="geometry" />
        </mxCell>
        <mxCell id="8PrslKJGBhRI_ENk29VD-64" value="&lt;font face=&quot;Courier New&quot;&gt;run images&lt;/font&gt;" style="text;html=1;strokeColor=none;fillColor=none;align=center;verticalAlign=middle;whiteSpace=wrap;rounded=0;" parent="1" vertex="1">
          <mxGeometry x="793" y="794.67" width="235" height="42" as="geometry" />
        </mxCell>
        <mxCell id="IAqXeEij122gmrDpqoux-6" value="&lt;b&gt;MLOps Pipeline&lt;/b&gt;" style="swimlane;fontStyle=0;childLayout=stackLayout;horizontal=1;startSize=30;horizontalStack=0;resizeParent=1;resizeParentMax=0;resizeLast=0;collapsible=1;marginBottom=0;whiteSpace=wrap;html=1;labelBackgroundColor=#FFFFFF;" parent="1" vertex="1">
          <mxGeometry x="629" y="542" width="250" height="120" as="geometry" />
        </mxCell>
        <mxCell id="IAqXeEij122gmrDpqoux-7" value="1. Data update starts training" style="text;strokeColor=default;fillColor=default;align=left;verticalAlign=middle;spacingLeft=4;spacingRight=4;overflow=hidden;points=[[0,0.5],[1,0.5]];portConstraint=eastwest;rotatable=0;whiteSpace=wrap;html=1;labelBackgroundColor=#FFFFFF;" parent="IAqXeEij122gmrDpqoux-6" vertex="1">
          <mxGeometry y="30" width="250" height="30" as="geometry" />
        </mxCell>
        <mxCell id="IAqXeEij122gmrDpqoux-8" value="2. Model selection &amp;amp; load test in preprod" style="text;strokeColor=default;fillColor=default;align=left;verticalAlign=middle;spacingLeft=4;spacingRight=4;overflow=hidden;points=[[0,0.5],[1,0.5]];portConstraint=eastwest;rotatable=0;whiteSpace=wrap;html=1;labelBackgroundColor=#FFFFFF;" parent="IAqXeEij122gmrDpqoux-6" vertex="1">
          <mxGeometry y="60" width="250" height="30" as="geometry" />
        </mxCell>
        <mxCell id="IAqXeEij122gmrDpqoux-9" value="3. Model in production" style="text;strokeColor=none;fillColor=default;align=left;verticalAlign=middle;spacingLeft=4;spacingRight=4;overflow=hidden;points=[[0,0.5],[1,0.5]];portConstraint=eastwest;rotatable=0;whiteSpace=wrap;html=1;labelBackgroundColor=default;" parent="IAqXeEij122gmrDpqoux-6" vertex="1">
          <mxGeometry y="90" width="250" height="30" as="geometry" />
        </mxCell>
        <mxCell id="8PrslKJGBhRI_ENk29VD-67" value="" style="endArrow=none;dashed=1;html=1;dashPattern=1 3;strokeWidth=2;rounded=0;" parent="1" edge="1">
          <mxGeometry width="50" height="50" relative="1" as="geometry">
            <mxPoint x="1562.3713199105148" y="821.7" as="sourcePoint" />
            <mxPoint x="1561.9599999999998" y="790" as="targetPoint" />
          </mxGeometry>
        </mxCell>
        <mxCell id="8PrslKJGBhRI_ENk29VD-69" value="" style="endArrow=none;dashed=1;html=1;dashPattern=1 3;strokeWidth=2;rounded=0;" parent="1" edge="1">
          <mxGeometry width="50" height="50" relative="1" as="geometry">
            <mxPoint x="1561.9599999999998" y="895.39" as="sourcePoint" />
            <mxPoint x="1562.3735540838854" y="863.09" as="targetPoint" />
          </mxGeometry>
        </mxCell>
        <mxCell id="8PrslKJGBhRI_ENk29VD-68" value="REST API" style="text;html=1;align=center;verticalAlign=middle;resizable=0;points=[];autosize=1;strokeColor=none;fillColor=none;" parent="1" vertex="1">
          <mxGeometry x="1526.4599999999998" y="830" width="72" height="26" as="geometry" />
        </mxCell>
        <mxCell id="XdvyWvva6dk7Buqy7RHI-8" style="edgeStyle=orthogonalEdgeStyle;rounded=0;orthogonalLoop=1;jettySize=auto;html=1;entryX=0.5;entryY=0;entryDx=0;entryDy=0;" parent="1" source="XdvyWvva6dk7Buqy7RHI-6" target="1OezPi1NgcVtdhWN8k0L-1" edge="1">
          <mxGeometry relative="1" as="geometry" />
        </mxCell>
        <mxCell id="XdvyWvva6dk7Buqy7RHI-6" value="" style="shape=image;verticalLabelPosition=bottom;labelBackgroundColor=default;verticalAlign=top;aspect=fixed;imageAspect=0;image=data:image/png,iVBORw0KGgoAAAANSUhEUgAAAZAAAAGQCAYAAACAvzbMAAAAAXNSR0IArs4c6QAAAERlWElmTU0AKgAAAAgAAYdpAAQAAAABAAAAGgAAAAAAA6ABAAMAAAABAAEAAKACAAQAAAABAAABkKADAAQAAAABAAABkAAAAAAbMW/MAAAWL0lEQVR4Ae3dT2ykZ30H8HfslEQJIYuAxZcQ00ulUClGVS9RsyzH3IJyAC5w4tDTUokeAxtx4JJDwiWRODTKpYrEvxu9VHhDFFUCKV4JUvWElxxwSFCXNAmb0vX0fb07ZnH8Z+Z5Zj2/3zwfSyvbM/PM+3s+31f71TuzXo+6OXxsnDl/prvr+mPdeLTRdeMH+qfc6MbdmW7U//FBgAABAosW2O4H6P+MLnej8VbXrW5u7WwOt1V9jEpX75XGh3Yv9MOc759j+OODAAECBNIIjLb6v7+fqSmTmQtkvzi68dddYaQ5UwxKgACBowXG3fPdyuqTs16VzFQgG2fPfat/iUpxHB2DewgQIJBXYDy6uPW7l56cdgNTFcjG2vn1bnz9x/2TPjTtE3scAQIECKQU2O5Gq5+f5mpk5aTtbXzi3Fe73euv9o9THidhuZ8AAQL5BYYLhlc3zj7y2ElbWT3uAXsvWa2Mn+7f67jruMe5jwABAgSWSuCu/u/9L63ds97tvHvl0lE7O7JA9spjNL541EK3EyBAgMCSC4y688eVyKEFsnfpMuqeW3Ia2yNAgACBkwSGErl3fXvnnSuXDz70A2+i771hPrzn4YcAD1r5ngABAq0KXO3fWP/swTfWP/gm+vj6T5VHq+eIfRMgQOBQgTPdePdHB+/5i5ewbrzv0Z34zvvBJ/E9AQIECCy9wFr/Utaofylrc7LT/Zewbv6sx68nd/hMgAABAgQOCFzt3l/99NbVzavD7X9+CWv3+sUDD/QtAQIECBC4VaD/j3N3vz65Ye8KxNXHhMNnAgQIEDhBYP8q5OYVyPXzJyxwNwECBAgQGAT2r0JuFMju6AIXAgQIECAwlcB4/LnhcSMvX03F5UEECBAgcKvA+6sf7a9AvHx1q4mvCRAgQGAKgf630K7c+DW0UzzYQwgQIECAwESg/xXm/RXI2H/TPgHxmQABAgSmFBivD2+ir0/5aA8jQIAAAQITgYcUyITCZwIECBCYReDMUCA+CBAgQIDArAIKZFYxjydAgACBGwKuQJwJBAgQIFAkoECK2CwiQIAAAQXiHCBAgACBIgEFUsRmEQECBAgoEOcAAQIECBQJKJAiNosIECBAQIE4BwgQIECgSECBFLFZRIAAAQIKxDlAgAABAkUCCqSIzSICBAgQUCDOAQIECBAoElAgRWwWESBAgIACcQ4QIECAQJGAAilis4gAAQIEFIhzgAABAgSKBBRIEZtFBAgQIKBAnAMECBAgUCSgQIrYLCJAgAABBeIcIECAAIEiAQVSxGYRAQIECCgQ5wABAgQIFAkokCI2iwgQIEBAgTgHCBAgQKBIQIEUsVlEgAABAgrEOUCAAAECRQIKpIjNIgIECBBQIM4BAgQIECgSUCBFbBYRIECAgAJxDhAgQIBAkYACKWKziAABAgQUiHOAAAECBIoEFEgRm0UECBAgoECcAwQIECBQJKBAitgsIkCAAAEF4hwgQIAAgSIBBVLEZhEBAgQIKBDnAAECBAgUCSiQIjaLCBAgQECBOAcIECBAoEhAgRSxWUSAAAECCsQ5QIAAAQJFAgqkiM0iAgQIEFAgzgECBAgQKBJQIEVsFhEgQICAAnEOECBAgECRgAIpYrOIAAECBBSIc4AAAQIEigQUSBGbRQQIECCgQJwDBAgQIFAkoECK2CwiQIAAAQXiHCBAgACBIgEFUsRmEQECBAgoEOcAAQIECBQJKJAiNosIECBAQIE4BwgQIECgSOCOolUW7Qv8687f7H/tCwIETl/g3bd3u7d+87/d9q/e71575b3uP1/5Y/fm6386/UEaPOJo45OPjBvc99y2rEDmRumJCMxN4NKLf+h+8NTvFcncRA9/Ii9hHe7iVgIEEgt87ov3dd/9+V93X/n22e6ej/hr7nZFSfZ2yXpeAgQWLvDo1z7afeff17tP3P9XC59lGQdQIMuYqj0RILAvMJTHEz+8v1v/zJ37t/liPgIKZD6OnoUAgcACeyXyo0+5EplzRgpkzqCejgCBmAJ39++FDFci3hOZXz4KZH6WnokAgeACw5XI4//88eBT5hlPgeTJyqQECMxBYHhj3Zvqc4Dsn0KBzMfRsxAgkEjg8W98LNG0cUdVIHGzMRkBArdJ4O8fvdd7IXOwVSBzQPQUBAjkEhjeUP+7Rz+ca+iA0yqQgKEYiQCB2y/w4MN33/6DLPkRFMiSB2x7BAgcLrD+t3cdfodbpxZQIFNTeSABAssk4F9i1aepQOoNPQMBAgkFhvdBfNQJEKzzs5oAAQLNCiiQZqO3cQIECNQJKJA6P6sJECDQrIACaTZ6GydAgECdgAKp87OaAAECzQookGajt3ECBAjUCSiQOj+rCRAg0KyAAmk2ehsnQIBAnYACqfOzmgABAs0KKJBmo7dxAgQI1AkokDo/qwkQINCsgAJpNnobJ0CAQJ2AAqnzs5oAAQLNCiiQZqO3cQIECNQJKJA6P6sJECDQrIACaTZ6GydAgECdgAKp87OaAAECzQookGajt3ECBAjUCSiQOj+rCRAg0KyAAmk2ehsnQIBAnYACqfOzmgABAs0KKJBmo7dxAgQI1AkokDo/qwkQINCsgAJpNnobJ0CAQJ2AAqnzs5oAAQLNCiiQZqO3cQIECNQJKJA6P6sJECDQrIACaTZ6GydAgECdgAKp87OaAAECzQookGajt3ECBAjUCSiQOj+rCRAg0KyAAmk2ehsnQIBAnYACqfOzmgABAs0KKJBmo7dxAgQI1AkokDo/qwkQINCsgAJpNnobJ0CAQJ2AAqnzs5oAAQLNCiiQZqO3cQIECNQJKJA6P6sJECDQrIACaTZ6GydAgECdgAKp87OaAAECzQookGajt3ECBAjUCSiQOj+rCRAg0KyAAmk2ehsnQIBAnYACqfOzmgABAs0KKJBmo7dxAgQI1AkokDo/qwkQINCsgAJpNnobJ0CAQJ2AAqnzs5oAAQLNCiiQZqO3cQIECNQJKJA6P6sJECDQrIACaTZ6GydAgECdgAKp87OaAAECzQookGajt3ECBAjUCSiQOj+rCRAg0KyAAmk2ehsnQIBAnYACqfOzmgABAs0KKJBmo7dxAgQI1AkokDo/qwkQINCsgAJpNnobJ0CAQJ2AAqnzs5oAAQLNCiiQZqO3cQIECNQJKJA6P6sJECDQrIACaTZ6GydAgECdgAKp87OaAAECzQookGajt3ECBAjUCSiQOj+rCRAg0KyAAmk2ehsnQIBAnYACqfOzmgABAs0KKJBmo7dxAgQI1AkokDo/qwkQINCsgAJpNnobJ0CAQJ2AAqnzs5oAAQLNCiiQZqO3cQIECNQJKJA6P6sJECDQrMAdze7cxtMJvPDNN7srv7yWbu5ZBn7gM3d2X/n22VmWeCyBhQkokIXRO/CsAkN5vPbKe7MuS/b4cbJ5jduygJewWk7f3gkQIFAhoEAq8CwlQIBAywIKpOX07Z0AAQIVAgqkAs9SAgQItCygQFpO394JECBQIaBAKvAsJUCAQMsCCqTl9O2dAAECFQIKpALPUgIECLQsoEBaTt/eCRAgUCGgQCrwLCVAgEDLAgqk5fTtnQABAhUCCqQCz1ICBAi0LKBAWk7f3gkQIFAhoEAq8CwlQIBAywIKpOX07Z0AAQIVAgqkAs9SAgQItCygQFpO394JECBQIeA3ElbgWXq6Ao9/42Pdudc/croHPeWj3XPf6ikf0eEIlAsokHI7K09Z4MGH7z7lIzocAQLHCXgJ6zgd9xEgQIDAkQIK5EgadxAgQIDAcQIK5Dgd9xEgQIDAkQIK5EgadxAgsMwCb77+p2Xe3qnsTYGcCrODECAQTUCB1CeiQOoNPQMBAgkFrvzyWsKpY42sQGLlYRoCBE5J4Bf/9u4pHWl5D6NAljdbOyNA4AiB4eWr115574h73TytgAKZVsrjCBBYGoEfPPX7pdnLIjeiQBap79gECJy6wHD1cenFP5z6cZfxgApkGVO1JwIEjhRw9XEkzcx3KJCZySwgQCCrwFAerj7ml54CmZ+lZyJAILDASy++3X3/qbcCT5hvNAWSLzMTEyAwo8BQHs9e+O2Mqzz8JAH/nftJQu4nQCC1wAtP/K77yff+O/Ueog6vQKImYy4CBKoEhp/zeOGbb3Z+4ryK8djFCuRYHncSIJBJ4N23d7tf/OR/uuElKz8oePuTUyC339gRCCytQIR/0TT8XMdbr/9ft/2r911tnPKZpkBOGdzhCCyTwHMXdpZpO/Yyo4B/hTUjmIcTIECAwA0BBeJMIECAAIEiAQVSxGYRAQIECCgQ5wABAgQIFAkokCI2iwgQIEBAgTgHCBAgQKBIQIEUsVlEgAABAgrEOUCAAAECRQIKpIjNIgIECBBQIM4BAgQIECgSUCBFbBYRIECAgAJxDhAgQIBAkYACKWKziAABAgQUiHOAAAECBIoEFEgRm0UECBAgoECcAwQIECBQJKBAitgsIkCAAAG/kdA5QIBAscCDD99dvDbCQr83vS4FBVLnZzWBpgWe+OH9qff/5bX/Sj3/oof3EtaiE3B8AgQIJBVQIEmDMzYBAgQWLaBAFp2A4xMgQCCpgAJJGpyxCRAgsGgBBbLoBByfAAECSQUUSNLgjE2AAIFFCyiQRSfg+AQIEEgqoECSBmdsAgQILFpAgSw6AccnQIBAUgEFkjQ4YxMgQGDRAgpk0Qk4PgECBJIKKJCkwRmbAAECixZQIItOwPEJECCQVECBJA3O2AQIEFi0gAJZdAKOT4AAgaQCCiRpcMYmQIDAogUUyKITcHwCBAgkFVAgSYMzNgECBBYt4FfaLjoBx1+IwLMXftu99OLbczn2uS/e1/3jM2tzeS5PQiCTgCuQTGmZlQABAoEEFEigMIxCgACBTAIKJFNaZiVAgEAgAQUSKAyjECBAIJOAAsmUllkJECAQSECBBArDKAQIEMgkoEAypWVWAgQIBBJQIIHCMAoBAgQyCSiQTGmZlQABAoEEFEigMIxCgACBTAIKJFNaZiVAgEAgAQUSKAyjECBAIJOAAsmUllkJECAQSECBBArDKAQIEMgkoEAypWVWAgQIBBJQIIHCMAoBAgQyCSiQTGmZlQABAoEEFEigMIxCgACBTAIKJFNaZiVAgEAgAQUSKAyjECBAIJOAAsmUllkJECAQSECBBArDKAQIEMgkoEAypWVWAgQIBBJQIIHCMAoBAgQyCSiQTGmZlQABAoEEFEigMIxCgACBTAIKJFNaZiVAgEAgAQUSKAyjECBAIJOAAsmUllkJECAQSECBBArDKAQIEMgkoEAypWVWAgQIBBJQIIHCMAoBAgQyCSiQTGmZlQABAoEEFEigMIxCgACBTAIKJFNaZiVAgEAgAQUSKAyjECBAIJOAAsmUllkJECAQSECBBArDKAQIEMgkoEAypWVWAgQIBBJQIIHCMAoBAgQyCSiQTGmZlQABAoEEFEigMIxCgACBTAIKJFNaZiVAgEAgAQUSKAyjECBAIJOAAsmUllkJECAQSECBBArDKAQIEMgkoEAypWVWAgQIBBJQIIHCMAoBAgQyCSiQTGmZlQABAoEEFEigMIxCgACBTAIKJFNaZiVAgEAgAQUSKAyjECBAIJOAAsmUllkJECAQSECBBArDKAQIEMgkoEAypWVWAgQIBBJQIIHCMAoBAgQyCSiQTGmZlQABAoEEFEigMIxCgACBTAIKJFNaZiVAgEAgAQUSKAyjECBAIJOAAsmUllkJECAQSECBBArDKAQIEMgkoEAypWVWAgQIBBJQIIHCMAoBAgQyCSiQTGmZlQABAoEEFEigMIxCgACBTAIKJFNaZiVAgEAgAQUSKAyjECBAIJOAAsmUllkJECAQSECBBArDKAQIEMgkoEAypWVWAgQIBBIYbXzykXGgeYxCgAABAkkEXIEkCcqYBAgQiCagQKIlYh4CBAgkEVAgSYIyJgECBKIJKJBoiZiHAAECSQQUSJKgjEmAAIFoAgokWiLmIUCAQBIBBZIkKGMSIEAgmoACiZaIeQgQIJBEQIEkCcqYBAgQiCagQKIlYh4CBAgkEVAgSYIyJgECBKIJKJBoiZiHAAECSQQUSJKgjEmAAIFoAgokWiLmIUCAQBIBBZIkKGMSIEAgmoACiZaIeQgQIJBEQIEkCcqYBAgQiCagQKIlYh4CBAgkEVAgSYIyJgECBKIJKJBoiZiHAAECSQQUSJKgjEmAAIFoAgokWiLmIUCAQBIBBZIkKGMSIEAgmoACiZaIeQgQIJBEQIEkCcqYBAgQiCagQKIlYh4CBAgkEVAgSYIyJgECBKIJKJBoiZiHAAECSQQUSJKgjEmAAIFoAgokWiLmIUCAQBIBBZIkKGMSIEAgmoACiZaIeQgQIJBEQIEkCcqYBAgQiCagQKIlYh4CBAgkEVAgSYIyJgECBKIJKJBoiZiHAAECSQQUSJKgjEmAAIFoAgokWiLmIUCAQBIBBZIkKGMSIEAgmoACiZaIeQgQIJBEQIEkCcqYBAgQiCagQKIlYh4CBAgkEVAgSYIyJgECBKIJKJBoiZiHAAECSQQUSJKgjEmAAIFoAgokWiLmIUCAQBIBBZIkKGMSIEAgmoACiZaIeQgQIJBEQIEkCcqYBAgQiCagQKIlYh4CBAgkEVAgSYIyJgECBKIJKJBoiZiHAAECSQQUSJKgjEmAAIFoAgokWiLmIUCAQBIBBZIkKGMSIEAgmoACiZaIeQgQIJBEYKUbd1eTzGpMAgQIEAgksNKNFEigPIxCgACBLALbw0tYl7NMa04CBAgQCCMwFMhoO8w4BiFAgACBJAKjy/1LWOOtJNMakwABAgSiCPTdsdJdW/1xlHnMQYAAAQJZBFY3V7aubg7/Cmszy8jmJECAAIFFC4y2tnY2995E798GGV1a9DiOT4AAAQJJBEbjZ4ZJb/wg4bWVp/08SJLgjEmAAIGFC6xuDiPsFcjey1gro71GWfhcBiBAgACBuAKj7vnh5athwBtXIMNXrkIGBR8ECBAgcKzA6pOTu/cLxFXIhMRnAgQIEDhUYDR+cnL1Mdw/OvigjbPnXu1/NmTj4O2+J0CAAIGmBba33vjZp28V2L8C2b9xZeUL3lDf1/AFAQIECAz/6e5o9fMHIVYP3rDzzvbVtXsfeKO//bGD9/meAAECBJoU+PLWGy/9x8Gdf6BAhgfsvPObrbV7P9W/vDU6f3CB7wkQIECgIYHhfY83Xn7usB0fWiDDA/sS2VQih5G5jQABAo0I7L1p/vLFo3b7gTfRDz5w4+wjw0tZ/9K/3X7m4H2+J0CAAIElFBje81jp/mlr52fPH7e7EwtkWLyxdn69G1//af/l+vC9DwIECBBYWoHL/Rvmj936z3WP2ulUBTJZvLH2Dxe78ehbk+99JkCAAIElEdi76hg/s7Xz8sVpdzRTgQxPunc10l3vi6T76rQH8TgCBAgQCCpwszi6a3c8ffN/Z5960JkLZPLMN4vkfLc7uuAHDycqPhMgQCCNwGb/d/elkuKY7LC4QCZPMHzeL5PxqP8J9vFD/U3rN//0n3wQIECAwMIE9n4IsH9TvOu2+h/NuLL3W2j7XyQ469XGYfP/P8LOs37Bae+TAAAAAElFTkSuQmCC;" parent="1" vertex="1">
          <mxGeometry x="453.3" y="400" width="62" height="62" as="geometry" />
        </mxCell>
        <mxCell id="XdvyWvva6dk7Buqy7RHI-9" value="&lt;font face=&quot;Courier New&quot;&gt;apply fixes&lt;/font&gt;" style="text;html=1;strokeColor=none;fillColor=none;align=center;verticalAlign=middle;whiteSpace=wrap;rounded=0;" parent="1" vertex="1">
          <mxGeometry x="361.99999999999994" y="392.89" width="60" height="30" as="geometry" />
        </mxCell>
        <mxCell id="XdvyWvva6dk7Buqy7RHI-10" value="&lt;font face=&quot;Courier New&quot;&gt;trigger code check&lt;/font&gt;" style="text;html=1;strokeColor=none;fillColor=none;align=center;verticalAlign=middle;whiteSpace=wrap;rounded=0;" parent="1" vertex="1">
          <mxGeometry x="394" y="497" width="87" height="30" as="geometry" />
        </mxCell>
        <mxCell id="XdvyWvva6dk7Buqy7RHI-11" value="" style="shape=image;verticalLabelPosition=bottom;labelBackgroundColor=default;verticalAlign=top;aspect=fixed;imageAspect=0;image=https://upload.wikimedia.org/wikipedia/commons/b/ba/Pytest_logo.svg;" parent="1" vertex="1">
          <mxGeometry x="659" y="462" width="75.63" height="75.63" as="geometry" />
        </mxCell>
        <mxCell id="XdvyWvva6dk7Buqy7RHI-13" value="" style="endArrow=classic;html=1;rounded=0;entryX=0;entryY=0.5;entryDx=0;entryDy=0;exitX=0.75;exitY=0;exitDx=0;exitDy=0;" parent="1" source="1OezPi1NgcVtdhWN8k0L-23" target="XdvyWvva6dk7Buqy7RHI-11" edge="1">
          <mxGeometry width="50" height="50" relative="1" as="geometry">
            <mxPoint x="802" y="723" as="sourcePoint" />
            <mxPoint x="852" y="673" as="targetPoint" />
            <Array as="points">
              <mxPoint x="518" y="501" />
            </Array>
          </mxGeometry>
        </mxCell>
        <mxCell id="XdvyWvva6dk7Buqy7RHI-14" value="&lt;font face=&quot;Courier New&quot;&gt;trigger unit &amp;amp; integration tests&lt;/font&gt;" style="text;html=1;strokeColor=none;fillColor=none;align=center;verticalAlign=middle;whiteSpace=wrap;rounded=0;" parent="1" vertex="1">
          <mxGeometry x="513" y="465" width="136" height="30" as="geometry" />
        </mxCell>
        <mxCell id="BaASAAcb1w998YvZR67S-4" value="&lt;span style=&quot;font-family: &amp;quot;Courier New&amp;quot;;&quot;&gt;App User&lt;/span&gt;" style="shape=umlActor;verticalLabelPosition=bottom;verticalAlign=top;html=1;outlineConnect=0;fillColor=#00CC00;strokeColor=#000000;" parent="1" vertex="1">
          <mxGeometry x="1219.5" y="939" width="30" height="60" as="geometry" />
        </mxCell>
        <mxCell id="BaASAAcb1w998YvZR67S-17" style="edgeStyle=orthogonalEdgeStyle;rounded=0;orthogonalLoop=1;jettySize=auto;html=1;entryX=0;entryY=0.75;entryDx=0;entryDy=0;" parent="1" edge="1">
          <mxGeometry relative="1" as="geometry">
            <mxPoint x="879" y="648.76" as="sourcePoint" />
            <mxPoint x="1188" y="648.76" as="targetPoint" />
          </mxGeometry>
        </mxCell>
        <mxCell id="BaASAAcb1w998YvZR67S-18" style="edgeStyle=orthogonalEdgeStyle;rounded=0;orthogonalLoop=1;jettySize=auto;html=1;entryX=0;entryY=0.75;entryDx=0;entryDy=0;" parent="1" edge="1">
          <mxGeometry relative="1" as="geometry">
            <mxPoint x="879" y="621" as="sourcePoint" />
            <mxPoint x="1188" y="621" as="targetPoint" />
          </mxGeometry>
        </mxCell>
        <mxCell id="BaASAAcb1w998YvZR67S-20" style="edgeStyle=orthogonalEdgeStyle;rounded=0;orthogonalLoop=1;jettySize=auto;html=1;entryX=0;entryY=0.5;entryDx=0;entryDy=0;" parent="1" target="1OezPi1NgcVtdhWN8k0L-45" edge="1">
          <mxGeometry relative="1" as="geometry">
            <mxPoint x="879" y="583" as="sourcePoint" />
            <mxPoint x="957" y="583" as="targetPoint" />
            <Array as="points">
              <mxPoint x="913" y="583" />
              <mxPoint x="913" y="384" />
            </Array>
          </mxGeometry>
        </mxCell>
        <mxCell id="BaASAAcb1w998YvZR67S-22" value="" style="endArrow=classic;html=1;rounded=0;entryX=0;entryY=0.5;entryDx=0;entryDy=0;exitX=1;exitY=0.75;exitDx=0;exitDy=0;" parent="1" target="8PrslKJGBhRI_ENk29VD-30" edge="1">
          <mxGeometry width="50" height="50" relative="1" as="geometry">
            <mxPoint x="1285.92" y="620.6725" as="sourcePoint" />
            <mxPoint x="1405.46" y="651.63" as="targetPoint" />
          </mxGeometry>
        </mxCell>
        <mxCell id="BaASAAcb1w998YvZR67S-24" value="" style="endArrow=classic;html=1;rounded=0;entryX=0;entryY=0.5;entryDx=0;entryDy=0;exitX=1;exitY=0.75;exitDx=0;exitDy=0;" parent="1" source="1OezPi1NgcVtdhWN8k0L-50" target="8PrslKJGBhRI_ENk29VD-57" edge="1">
          <mxGeometry width="50" height="50" relative="1" as="geometry">
            <mxPoint x="1351" y="943" as="sourcePoint" />
            <mxPoint x="1401" y="893" as="targetPoint" />
            <Array as="points">
              <mxPoint x="1397" y="668" />
              <mxPoint x="1397" y="742" />
            </Array>
          </mxGeometry>
        </mxCell>
        <mxCell id="BaASAAcb1w998YvZR67S-26" value="" style="endArrow=classic;html=1;rounded=0;entryX=0;entryY=0.5;entryDx=0;entryDy=0;" parent="1" edge="1">
          <mxGeometry width="50" height="50" relative="1" as="geometry">
            <mxPoint x="1261" y="696" as="sourcePoint" />
            <mxPoint x="1493.62" y="911.62" as="targetPoint" />
            <Array as="points">
              <mxPoint x="1261" y="911.61" />
            </Array>
          </mxGeometry>
        </mxCell>
        <mxCell id="BaASAAcb1w998YvZR67S-29" value="&lt;font face=&quot;Courier New&quot;&gt;deploy app&lt;/font&gt;" style="text;html=1;strokeColor=none;fillColor=none;align=center;verticalAlign=middle;whiteSpace=wrap;rounded=0;" parent="1" vertex="1">
          <mxGeometry x="1256" y="883" width="116" height="24.5" as="geometry" />
        </mxCell>
        <mxCell id="BaASAAcb1w998YvZR67S-30" value="&lt;font face=&quot;Courier New&quot;&gt;deploy prod&lt;/font&gt;" style="text;html=1;strokeColor=none;fillColor=none;align=center;verticalAlign=middle;whiteSpace=wrap;rounded=0;" parent="1" vertex="1">
          <mxGeometry x="1280.46" y="645" width="116" height="24.5" as="geometry" />
        </mxCell>
        <mxCell id="BaASAAcb1w998YvZR67S-31" value="&lt;font face=&quot;Courier New&quot;&gt;upload image&lt;/font&gt;" style="text;html=1;strokeColor=none;fillColor=none;align=center;verticalAlign=middle;whiteSpace=wrap;rounded=0;" parent="1" vertex="1">
          <mxGeometry x="1256" y="941" width="116" height="24.5" as="geometry" />
        </mxCell>
        <mxCell id="BaASAAcb1w998YvZR67S-32" value="" style="endArrow=classic;html=1;rounded=0;entryX=0;entryY=0.75;entryDx=0;entryDy=0;exitX=0;exitY=1;exitDx=0;exitDy=0;" parent="1" edge="1">
          <mxGeometry width="50" height="50" relative="1" as="geometry">
            <mxPoint x="1261.000000000001" y="970.5100000000002" as="sourcePoint" />
            <mxPoint x="1493.62" y="969.0249999999999" as="targetPoint" />
          </mxGeometry>
        </mxCell>
        <mxCell id="cZ3MUQ-4q9K2Py6t4Zb5-4" value="Machine Learning Operations Pipeline" style="text;strokeColor=none;fillColor=none;html=1;fontSize=40;fontStyle=1;verticalAlign=middle;align=center;" vertex="1" parent="1">
          <mxGeometry x="135" y="59" width="1410" height="69" as="geometry" />
        </mxCell>
        <mxCell id="cZ3MUQ-4q9K2Py6t4Zb5-5" value="&lt;h5&gt;Local&lt;/h5&gt;" style="text;strokeColor=none;fillColor=none;html=1;fontSize=24;fontStyle=1;verticalAlign=middle;align=center;" vertex="1" parent="1">
          <mxGeometry x="87" y="211" width="100" height="40" as="geometry" />
        </mxCell>
        <mxCell id="cZ3MUQ-4q9K2Py6t4Zb5-7" value="&lt;h5&gt;Cloud&lt;/h5&gt;" style="text;strokeColor=none;fillColor=none;html=1;fontSize=24;fontStyle=1;verticalAlign=middle;align=center;" vertex="1" parent="1">
          <mxGeometry x="280" y="211" width="100" height="40" as="geometry" />
        </mxCell>
        <mxCell id="cZ3MUQ-4q9K2Py6t4Zb5-15" value="&lt;font face=&quot;Courier New&quot;&gt;dataset build in train image&lt;/font&gt;" style="text;html=1;strokeColor=none;fillColor=none;align=center;verticalAlign=middle;whiteSpace=wrap;rounded=0;" vertex="1" parent="1">
          <mxGeometry x="724" y="322" width="90" height="30" as="geometry" />
        </mxCell>
        <mxCell id="cZ3MUQ-4q9K2Py6t4Zb5-16" value="Artifact&#xa;Registry" style="shape=image;verticalLabelPosition=bottom;labelBackgroundColor=default;verticalAlign=top;aspect=fixed;imageAspect=0;image=https://storage.googleapis.com/gweb-cloudblog-publish/images/artifact_reg.max-2600x2600.jpg;clipPath=inset(32.4% 57.33% 33.2% 27.67%);" vertex="1" parent="1">
          <mxGeometry x="887.75" y="361.85" width="45.51" height="43.5" as="geometry" />
        </mxCell>
        <mxCell id="cZ3MUQ-4q9K2Py6t4Zb5-17" value="" style="endArrow=classic;html=1;rounded=0;" edge="1" parent="1">
          <mxGeometry width="50" height="50" relative="1" as="geometry">
            <mxPoint x="844" y="383.57" as="sourcePoint" />
            <mxPoint x="894" y="383.57" as="targetPoint" />
          </mxGeometry>
        </mxCell>
        <mxCell id="cZ3MUQ-4q9K2Py6t4Zb5-20" value="&lt;font face=&quot;Courier New&quot;&gt;push images&lt;/font&gt;" style="text;html=1;strokeColor=none;fillColor=none;align=center;verticalAlign=middle;whiteSpace=wrap;rounded=0;" vertex="1" parent="1">
          <mxGeometry x="857" y="484" width="60" height="30" as="geometry" />
        </mxCell>
        <mxCell id="cZ3MUQ-4q9K2Py6t4Zb5-21" value="experiment evaluator" style="shape=umlActor;verticalLabelPosition=bottom;verticalAlign=top;html=1;outlineConnect=0;fillColor=#00CC00;strokeColor=#000000;" vertex="1" parent="1">
          <mxGeometry x="1547.46" y="343" width="30" height="60" as="geometry" />
        </mxCell>
        <mxCell id="cZ3MUQ-4q9K2Py6t4Zb5-23" value="evaluate" style="edgeStyle=orthogonalEdgeStyle;rounded=0;orthogonalLoop=1;jettySize=auto;html=1;entryX=1.002;entryY=0.376;entryDx=0;entryDy=0;entryPerimeter=0;fontSize=12;" edge="1" parent="1" source="cZ3MUQ-4q9K2Py6t4Zb5-21" target="pw7c0dyJwH6RE3UTUSyw-1">
          <mxGeometry x="0.0954" y="-10" relative="1" as="geometry">
            <mxPoint as="offset" />
          </mxGeometry>
        </mxCell>
      </root>
    </mxGraphModel>
  </diagram>
</mxfile>
